G04 #@! TF.GenerationSoftware,KiCad,Pcbnew,9.0.6-9.0.6~ubuntu22.04.1*
G04 #@! TF.CreationDate,2025-12-28T21:54:20+02:00*
G04 #@! TF.ProjectId,rpi_i2c_board,7270695f-6932-4635-9f62-6f6172642e6b,1.0*
G04 #@! TF.SameCoordinates,PX5f5e100PY5f5e100*
G04 #@! TF.FileFunction,Legend,Top*
G04 #@! TF.FilePolarity,Positive*
%FSLAX46Y46*%
G04 Gerber Fmt 4.6, Leading zero omitted, Abs format (unit mm)*
G04 Created by KiCad (PCBNEW 9.0.6-9.0.6~ubuntu22.04.1) date 2025-12-28 21:54:20*
%MOMM*%
%LPD*%
G01*
G04 APERTURE LIST*
%ADD10C,0.120000*%
%ADD11C,0.150000*%
%ADD12C,0.200000*%
%ADD13C,0.100000*%
G04 APERTURE END LIST*
D10*
X58673500Y5333500D02*
X58673500Y5715000D01*
X59055000Y5333500D02*
X58673500Y5333500D01*
X58673500Y5333500D02*
X59690500Y6350500D01*
D11*
X19193286Y18960181D02*
X19812333Y18960181D01*
X19812333Y18960181D02*
X19479000Y18579229D01*
X19479000Y18579229D02*
X19621857Y18579229D01*
X19621857Y18579229D02*
X19717095Y18531610D01*
X19717095Y18531610D02*
X19764714Y18483991D01*
X19764714Y18483991D02*
X19812333Y18388753D01*
X19812333Y18388753D02*
X19812333Y18150658D01*
X19812333Y18150658D02*
X19764714Y18055420D01*
X19764714Y18055420D02*
X19717095Y18007800D01*
X19717095Y18007800D02*
X19621857Y17960181D01*
X19621857Y17960181D02*
X19336143Y17960181D01*
X19336143Y17960181D02*
X19240905Y18007800D01*
X19240905Y18007800D02*
X19193286Y18055420D01*
X20240905Y18055420D02*
X20288524Y18007800D01*
X20288524Y18007800D02*
X20240905Y17960181D01*
X20240905Y17960181D02*
X20193286Y18007800D01*
X20193286Y18007800D02*
X20240905Y18055420D01*
X20240905Y18055420D02*
X20240905Y17960181D01*
X20621857Y18960181D02*
X21240904Y18960181D01*
X21240904Y18960181D02*
X20907571Y18579229D01*
X20907571Y18579229D02*
X21050428Y18579229D01*
X21050428Y18579229D02*
X21145666Y18531610D01*
X21145666Y18531610D02*
X21193285Y18483991D01*
X21193285Y18483991D02*
X21240904Y18388753D01*
X21240904Y18388753D02*
X21240904Y18150658D01*
X21240904Y18150658D02*
X21193285Y18055420D01*
X21193285Y18055420D02*
X21145666Y18007800D01*
X21145666Y18007800D02*
X21050428Y17960181D01*
X21050428Y17960181D02*
X20764714Y17960181D01*
X20764714Y17960181D02*
X20669476Y18007800D01*
X20669476Y18007800D02*
X20621857Y18055420D01*
X21526619Y18960181D02*
X21859952Y17960181D01*
X21859952Y17960181D02*
X22193285Y18960181D01*
X23764714Y17960181D02*
X23288524Y17960181D01*
X23288524Y17960181D02*
X23288524Y18960181D01*
X24098048Y17960181D02*
X24098048Y18960181D01*
X24098048Y18960181D02*
X24336143Y18960181D01*
X24336143Y18960181D02*
X24479000Y18912562D01*
X24479000Y18912562D02*
X24574238Y18817324D01*
X24574238Y18817324D02*
X24621857Y18722086D01*
X24621857Y18722086D02*
X24669476Y18531610D01*
X24669476Y18531610D02*
X24669476Y18388753D01*
X24669476Y18388753D02*
X24621857Y18198277D01*
X24621857Y18198277D02*
X24574238Y18103039D01*
X24574238Y18103039D02*
X24479000Y18007800D01*
X24479000Y18007800D02*
X24336143Y17960181D01*
X24336143Y17960181D02*
X24098048Y17960181D01*
X25288524Y18960181D02*
X25479000Y18960181D01*
X25479000Y18960181D02*
X25574238Y18912562D01*
X25574238Y18912562D02*
X25669476Y18817324D01*
X25669476Y18817324D02*
X25717095Y18626848D01*
X25717095Y18626848D02*
X25717095Y18293515D01*
X25717095Y18293515D02*
X25669476Y18103039D01*
X25669476Y18103039D02*
X25574238Y18007800D01*
X25574238Y18007800D02*
X25479000Y17960181D01*
X25479000Y17960181D02*
X25288524Y17960181D01*
X25288524Y17960181D02*
X25193286Y18007800D01*
X25193286Y18007800D02*
X25098048Y18103039D01*
X25098048Y18103039D02*
X25050429Y18293515D01*
X25050429Y18293515D02*
X25050429Y18626848D01*
X25050429Y18626848D02*
X25098048Y18817324D01*
X25098048Y18817324D02*
X25193286Y18912562D01*
X25193286Y18912562D02*
X25288524Y18960181D01*
D12*
X59442571Y22245258D02*
X60185428Y22245258D01*
X60185428Y22245258D02*
X59785428Y21788115D01*
X59785428Y21788115D02*
X59956857Y21788115D01*
X59956857Y21788115D02*
X60071143Y21730972D01*
X60071143Y21730972D02*
X60128285Y21673829D01*
X60128285Y21673829D02*
X60185428Y21559543D01*
X60185428Y21559543D02*
X60185428Y21273829D01*
X60185428Y21273829D02*
X60128285Y21159543D01*
X60128285Y21159543D02*
X60071143Y21102400D01*
X60071143Y21102400D02*
X59956857Y21045258D01*
X59956857Y21045258D02*
X59614000Y21045258D01*
X59614000Y21045258D02*
X59499714Y21102400D01*
X59499714Y21102400D02*
X59442571Y21159543D01*
X60699714Y21159543D02*
X60756857Y21102400D01*
X60756857Y21102400D02*
X60699714Y21045258D01*
X60699714Y21045258D02*
X60642571Y21102400D01*
X60642571Y21102400D02*
X60699714Y21159543D01*
X60699714Y21159543D02*
X60699714Y21045258D01*
X61156857Y22245258D02*
X61899714Y22245258D01*
X61899714Y22245258D02*
X61499714Y21788115D01*
X61499714Y21788115D02*
X61671143Y21788115D01*
X61671143Y21788115D02*
X61785429Y21730972D01*
X61785429Y21730972D02*
X61842571Y21673829D01*
X61842571Y21673829D02*
X61899714Y21559543D01*
X61899714Y21559543D02*
X61899714Y21273829D01*
X61899714Y21273829D02*
X61842571Y21159543D01*
X61842571Y21159543D02*
X61785429Y21102400D01*
X61785429Y21102400D02*
X61671143Y21045258D01*
X61671143Y21045258D02*
X61328286Y21045258D01*
X61328286Y21045258D02*
X61214000Y21102400D01*
X61214000Y21102400D02*
X61156857Y21159543D01*
X62242571Y22245258D02*
X62642571Y21045258D01*
X62642571Y21045258D02*
X63042571Y22245258D01*
D11*
X41783095Y11673562D02*
X41687857Y11721181D01*
X41687857Y11721181D02*
X41545000Y11721181D01*
X41545000Y11721181D02*
X41402143Y11673562D01*
X41402143Y11673562D02*
X41306905Y11578324D01*
X41306905Y11578324D02*
X41259286Y11483086D01*
X41259286Y11483086D02*
X41211667Y11292610D01*
X41211667Y11292610D02*
X41211667Y11149753D01*
X41211667Y11149753D02*
X41259286Y10959277D01*
X41259286Y10959277D02*
X41306905Y10864039D01*
X41306905Y10864039D02*
X41402143Y10768800D01*
X41402143Y10768800D02*
X41545000Y10721181D01*
X41545000Y10721181D02*
X41640238Y10721181D01*
X41640238Y10721181D02*
X41783095Y10768800D01*
X41783095Y10768800D02*
X41830714Y10816420D01*
X41830714Y10816420D02*
X41830714Y11149753D01*
X41830714Y11149753D02*
X41640238Y11149753D01*
X42259286Y10721181D02*
X42259286Y11721181D01*
X42259286Y11721181D02*
X42830714Y10721181D01*
X42830714Y10721181D02*
X42830714Y11721181D01*
X43306905Y10721181D02*
X43306905Y11721181D01*
X43306905Y11721181D02*
X43545000Y11721181D01*
X43545000Y11721181D02*
X43687857Y11673562D01*
X43687857Y11673562D02*
X43783095Y11578324D01*
X43783095Y11578324D02*
X43830714Y11483086D01*
X43830714Y11483086D02*
X43878333Y11292610D01*
X43878333Y11292610D02*
X43878333Y11149753D01*
X43878333Y11149753D02*
X43830714Y10959277D01*
X43830714Y10959277D02*
X43783095Y10864039D01*
X43783095Y10864039D02*
X43687857Y10768800D01*
X43687857Y10768800D02*
X43545000Y10721181D01*
X43545000Y10721181D02*
X43306905Y10721181D01*
X47021729Y14158259D02*
X47142676Y14247968D01*
X47142676Y14247968D02*
X47279242Y14443004D01*
X47279242Y14443004D02*
X47294861Y14548332D01*
X47294861Y14548332D02*
X47283167Y14614652D01*
X47283167Y14614652D02*
X47232466Y14708286D01*
X47232466Y14708286D02*
X47154451Y14762912D01*
X47154451Y14762912D02*
X47049123Y14778531D01*
X47049123Y14778531D02*
X46982803Y14766837D01*
X46982803Y14766837D02*
X46889169Y14716136D01*
X46889169Y14716136D02*
X46740910Y14587420D01*
X46740910Y14587420D02*
X46647276Y14536719D01*
X46647276Y14536719D02*
X46580956Y14525025D01*
X46580956Y14525025D02*
X46475628Y14540644D01*
X46475628Y14540644D02*
X46397613Y14595270D01*
X46397613Y14595270D02*
X46346912Y14688904D01*
X46346912Y14688904D02*
X46335218Y14755224D01*
X46335218Y14755224D02*
X46350837Y14860552D01*
X46350837Y14860552D02*
X46487403Y15055588D01*
X46487403Y15055588D02*
X46608350Y15145296D01*
X47884057Y15472812D02*
X47895751Y15406491D01*
X47895751Y15406491D02*
X47852818Y15262156D01*
X47852818Y15262156D02*
X47798192Y15184142D01*
X47798192Y15184142D02*
X47677245Y15094433D01*
X47677245Y15094433D02*
X47544604Y15071045D01*
X47544604Y15071045D02*
X47439277Y15086664D01*
X47439277Y15086664D02*
X47255935Y15156910D01*
X47255935Y15156910D02*
X47138913Y15238849D01*
X47138913Y15238849D02*
X47010197Y15387109D01*
X47010197Y15387109D02*
X46959496Y15480743D01*
X46959496Y15480743D02*
X46936108Y15613383D01*
X46936108Y15613383D02*
X46979040Y15757718D01*
X46979040Y15757718D02*
X47033666Y15835733D01*
X47033666Y15835733D02*
X47154613Y15925441D01*
X47154613Y15925441D02*
X47220933Y15937135D01*
X48481021Y16159323D02*
X48207889Y15769250D01*
X48207889Y15769250D02*
X47388737Y16342827D01*
D12*
X1544257Y21107286D02*
X1544257Y20421571D01*
X344257Y20764429D02*
X1544257Y20764429D01*
X1544257Y20135857D02*
X344257Y19335857D01*
X1544257Y19335857D02*
X344257Y20135857D01*
X59756857Y13482400D02*
X59928286Y13425258D01*
X59928286Y13425258D02*
X60214000Y13425258D01*
X60214000Y13425258D02*
X60328286Y13482400D01*
X60328286Y13482400D02*
X60385428Y13539543D01*
X60385428Y13539543D02*
X60442571Y13653829D01*
X60442571Y13653829D02*
X60442571Y13768115D01*
X60442571Y13768115D02*
X60385428Y13882400D01*
X60385428Y13882400D02*
X60328286Y13939543D01*
X60328286Y13939543D02*
X60214000Y13996686D01*
X60214000Y13996686D02*
X59985428Y14053829D01*
X59985428Y14053829D02*
X59871143Y14110972D01*
X59871143Y14110972D02*
X59814000Y14168115D01*
X59814000Y14168115D02*
X59756857Y14282400D01*
X59756857Y14282400D02*
X59756857Y14396686D01*
X59756857Y14396686D02*
X59814000Y14510972D01*
X59814000Y14510972D02*
X59871143Y14568115D01*
X59871143Y14568115D02*
X59985428Y14625258D01*
X59985428Y14625258D02*
X60271143Y14625258D01*
X60271143Y14625258D02*
X60442571Y14568115D01*
X60956857Y13425258D02*
X60956857Y14625258D01*
X60956857Y14625258D02*
X61242571Y14625258D01*
X61242571Y14625258D02*
X61414000Y14568115D01*
X61414000Y14568115D02*
X61528285Y14453829D01*
X61528285Y14453829D02*
X61585428Y14339543D01*
X61585428Y14339543D02*
X61642571Y14110972D01*
X61642571Y14110972D02*
X61642571Y13939543D01*
X61642571Y13939543D02*
X61585428Y13710972D01*
X61585428Y13710972D02*
X61528285Y13596686D01*
X61528285Y13596686D02*
X61414000Y13482400D01*
X61414000Y13482400D02*
X61242571Y13425258D01*
X61242571Y13425258D02*
X60956857Y13425258D01*
X62099714Y13768115D02*
X62671143Y13768115D01*
X61985428Y13425258D02*
X62385428Y14625258D01*
X62385428Y14625258D02*
X62785428Y13425258D01*
D11*
X28648819Y10145453D02*
X27648819Y10145453D01*
X27744057Y10574024D02*
X27696438Y10621643D01*
X27696438Y10621643D02*
X27648819Y10716881D01*
X27648819Y10716881D02*
X27648819Y10954976D01*
X27648819Y10954976D02*
X27696438Y11050214D01*
X27696438Y11050214D02*
X27744057Y11097833D01*
X27744057Y11097833D02*
X27839295Y11145452D01*
X27839295Y11145452D02*
X27934533Y11145452D01*
X27934533Y11145452D02*
X28077390Y11097833D01*
X28077390Y11097833D02*
X28648819Y10526405D01*
X28648819Y10526405D02*
X28648819Y11145452D01*
X28553580Y12145452D02*
X28601200Y12097833D01*
X28601200Y12097833D02*
X28648819Y11954976D01*
X28648819Y11954976D02*
X28648819Y11859738D01*
X28648819Y11859738D02*
X28601200Y11716881D01*
X28601200Y11716881D02*
X28505961Y11621643D01*
X28505961Y11621643D02*
X28410723Y11574024D01*
X28410723Y11574024D02*
X28220247Y11526405D01*
X28220247Y11526405D02*
X28077390Y11526405D01*
X28077390Y11526405D02*
X27886914Y11574024D01*
X27886914Y11574024D02*
X27791676Y11621643D01*
X27791676Y11621643D02*
X27696438Y11716881D01*
X27696438Y11716881D02*
X27648819Y11859738D01*
X27648819Y11859738D02*
X27648819Y11954976D01*
X27648819Y11954976D02*
X27696438Y12097833D01*
X27696438Y12097833D02*
X27744057Y12145452D01*
X28125009Y13669262D02*
X28125009Y13335929D01*
X28648819Y13335929D02*
X27648819Y13335929D01*
X27648819Y13335929D02*
X27648819Y13812119D01*
X28648819Y14669262D02*
X28648819Y14193072D01*
X28648819Y14193072D02*
X27648819Y14193072D01*
X28363104Y14954977D02*
X28363104Y15431167D01*
X28648819Y14859739D02*
X27648819Y15193072D01*
X27648819Y15193072D02*
X28648819Y15526405D01*
X28601200Y15812120D02*
X28648819Y15954977D01*
X28648819Y15954977D02*
X28648819Y16193072D01*
X28648819Y16193072D02*
X28601200Y16288310D01*
X28601200Y16288310D02*
X28553580Y16335929D01*
X28553580Y16335929D02*
X28458342Y16383548D01*
X28458342Y16383548D02*
X28363104Y16383548D01*
X28363104Y16383548D02*
X28267866Y16335929D01*
X28267866Y16335929D02*
X28220247Y16288310D01*
X28220247Y16288310D02*
X28172628Y16193072D01*
X28172628Y16193072D02*
X28125009Y16002596D01*
X28125009Y16002596D02*
X28077390Y15907358D01*
X28077390Y15907358D02*
X28029771Y15859739D01*
X28029771Y15859739D02*
X27934533Y15812120D01*
X27934533Y15812120D02*
X27839295Y15812120D01*
X27839295Y15812120D02*
X27744057Y15859739D01*
X27744057Y15859739D02*
X27696438Y15907358D01*
X27696438Y15907358D02*
X27648819Y16002596D01*
X27648819Y16002596D02*
X27648819Y16240691D01*
X27648819Y16240691D02*
X27696438Y16383548D01*
X28648819Y16812120D02*
X27648819Y16812120D01*
X28125009Y16812120D02*
X28125009Y17383548D01*
X28648819Y17383548D02*
X27648819Y17383548D01*
X41481524Y7085800D02*
X41624381Y7038181D01*
X41624381Y7038181D02*
X41862476Y7038181D01*
X41862476Y7038181D02*
X41957714Y7085800D01*
X41957714Y7085800D02*
X42005333Y7133420D01*
X42005333Y7133420D02*
X42052952Y7228658D01*
X42052952Y7228658D02*
X42052952Y7323896D01*
X42052952Y7323896D02*
X42005333Y7419134D01*
X42005333Y7419134D02*
X41957714Y7466753D01*
X41957714Y7466753D02*
X41862476Y7514372D01*
X41862476Y7514372D02*
X41672000Y7561991D01*
X41672000Y7561991D02*
X41576762Y7609610D01*
X41576762Y7609610D02*
X41529143Y7657229D01*
X41529143Y7657229D02*
X41481524Y7752467D01*
X41481524Y7752467D02*
X41481524Y7847705D01*
X41481524Y7847705D02*
X41529143Y7942943D01*
X41529143Y7942943D02*
X41576762Y7990562D01*
X41576762Y7990562D02*
X41672000Y8038181D01*
X41672000Y8038181D02*
X41910095Y8038181D01*
X41910095Y8038181D02*
X42052952Y7990562D01*
X43052952Y7133420D02*
X43005333Y7085800D01*
X43005333Y7085800D02*
X42862476Y7038181D01*
X42862476Y7038181D02*
X42767238Y7038181D01*
X42767238Y7038181D02*
X42624381Y7085800D01*
X42624381Y7085800D02*
X42529143Y7181039D01*
X42529143Y7181039D02*
X42481524Y7276277D01*
X42481524Y7276277D02*
X42433905Y7466753D01*
X42433905Y7466753D02*
X42433905Y7609610D01*
X42433905Y7609610D02*
X42481524Y7800086D01*
X42481524Y7800086D02*
X42529143Y7895324D01*
X42529143Y7895324D02*
X42624381Y7990562D01*
X42624381Y7990562D02*
X42767238Y8038181D01*
X42767238Y8038181D02*
X42862476Y8038181D01*
X42862476Y8038181D02*
X43005333Y7990562D01*
X43005333Y7990562D02*
X43052952Y7942943D01*
X43957714Y7038181D02*
X43481524Y7038181D01*
X43481524Y7038181D02*
X43481524Y8038181D01*
D12*
X60299714Y19648115D02*
X60185429Y19705258D01*
X60185429Y19705258D02*
X60014000Y19705258D01*
X60014000Y19705258D02*
X59842571Y19648115D01*
X59842571Y19648115D02*
X59728286Y19533829D01*
X59728286Y19533829D02*
X59671143Y19419543D01*
X59671143Y19419543D02*
X59614000Y19190972D01*
X59614000Y19190972D02*
X59614000Y19019543D01*
X59614000Y19019543D02*
X59671143Y18790972D01*
X59671143Y18790972D02*
X59728286Y18676686D01*
X59728286Y18676686D02*
X59842571Y18562400D01*
X59842571Y18562400D02*
X60014000Y18505258D01*
X60014000Y18505258D02*
X60128286Y18505258D01*
X60128286Y18505258D02*
X60299714Y18562400D01*
X60299714Y18562400D02*
X60356857Y18619543D01*
X60356857Y18619543D02*
X60356857Y19019543D01*
X60356857Y19019543D02*
X60128286Y19019543D01*
X60871143Y18505258D02*
X60871143Y19705258D01*
X60871143Y19705258D02*
X61556857Y18505258D01*
X61556857Y18505258D02*
X61556857Y19705258D01*
X62128286Y18505258D02*
X62128286Y19705258D01*
X62128286Y19705258D02*
X62414000Y19705258D01*
X62414000Y19705258D02*
X62585429Y19648115D01*
X62585429Y19648115D02*
X62699714Y19533829D01*
X62699714Y19533829D02*
X62756857Y19419543D01*
X62756857Y19419543D02*
X62814000Y19190972D01*
X62814000Y19190972D02*
X62814000Y19019543D01*
X62814000Y19019543D02*
X62756857Y18790972D01*
X62756857Y18790972D02*
X62699714Y18676686D01*
X62699714Y18676686D02*
X62585429Y18562400D01*
X62585429Y18562400D02*
X62414000Y18505258D01*
X62414000Y18505258D02*
X62128286Y18505258D01*
X59785428Y16022400D02*
X59956857Y15965258D01*
X59956857Y15965258D02*
X60242571Y15965258D01*
X60242571Y15965258D02*
X60356857Y16022400D01*
X60356857Y16022400D02*
X60413999Y16079543D01*
X60413999Y16079543D02*
X60471142Y16193829D01*
X60471142Y16193829D02*
X60471142Y16308115D01*
X60471142Y16308115D02*
X60413999Y16422400D01*
X60413999Y16422400D02*
X60356857Y16479543D01*
X60356857Y16479543D02*
X60242571Y16536686D01*
X60242571Y16536686D02*
X60013999Y16593829D01*
X60013999Y16593829D02*
X59899714Y16650972D01*
X59899714Y16650972D02*
X59842571Y16708115D01*
X59842571Y16708115D02*
X59785428Y16822400D01*
X59785428Y16822400D02*
X59785428Y16936686D01*
X59785428Y16936686D02*
X59842571Y17050972D01*
X59842571Y17050972D02*
X59899714Y17108115D01*
X59899714Y17108115D02*
X60013999Y17165258D01*
X60013999Y17165258D02*
X60299714Y17165258D01*
X60299714Y17165258D02*
X60471142Y17108115D01*
X61671142Y16079543D02*
X61613999Y16022400D01*
X61613999Y16022400D02*
X61442571Y15965258D01*
X61442571Y15965258D02*
X61328285Y15965258D01*
X61328285Y15965258D02*
X61156856Y16022400D01*
X61156856Y16022400D02*
X61042571Y16136686D01*
X61042571Y16136686D02*
X60985428Y16250972D01*
X60985428Y16250972D02*
X60928285Y16479543D01*
X60928285Y16479543D02*
X60928285Y16650972D01*
X60928285Y16650972D02*
X60985428Y16879543D01*
X60985428Y16879543D02*
X61042571Y16993829D01*
X61042571Y16993829D02*
X61156856Y17108115D01*
X61156856Y17108115D02*
X61328285Y17165258D01*
X61328285Y17165258D02*
X61442571Y17165258D01*
X61442571Y17165258D02*
X61613999Y17108115D01*
X61613999Y17108115D02*
X61671142Y17050972D01*
X62756856Y15965258D02*
X62185428Y15965258D01*
X62185428Y15965258D02*
X62185428Y17165258D01*
D11*
X47008072Y11598755D02*
X47129019Y11688464D01*
X47129019Y11688464D02*
X47265585Y11883500D01*
X47265585Y11883500D02*
X47281204Y11988828D01*
X47281204Y11988828D02*
X47269510Y12055148D01*
X47269510Y12055148D02*
X47218809Y12148782D01*
X47218809Y12148782D02*
X47140794Y12203408D01*
X47140794Y12203408D02*
X47035467Y12219027D01*
X47035467Y12219027D02*
X46969146Y12207333D01*
X46969146Y12207333D02*
X46875513Y12156632D01*
X46875513Y12156632D02*
X46727253Y12027916D01*
X46727253Y12027916D02*
X46633619Y11977215D01*
X46633619Y11977215D02*
X46567299Y11965521D01*
X46567299Y11965521D02*
X46461971Y11981140D01*
X46461971Y11981140D02*
X46383957Y12035766D01*
X46383957Y12035766D02*
X46333255Y12129400D01*
X46333255Y12129400D02*
X46321561Y12195720D01*
X46321561Y12195720D02*
X46337180Y12301048D01*
X46337180Y12301048D02*
X46473746Y12496084D01*
X46473746Y12496084D02*
X46594693Y12585792D01*
X47620656Y12390594D02*
X46801504Y12964171D01*
X46801504Y12964171D02*
X46938070Y13159207D01*
X46938070Y13159207D02*
X47059017Y13248916D01*
X47059017Y13248916D02*
X47191658Y13272304D01*
X47191658Y13272304D02*
X47296985Y13256685D01*
X47296985Y13256685D02*
X47480327Y13186439D01*
X47480327Y13186439D02*
X47597349Y13104500D01*
X47597349Y13104500D02*
X47726065Y12956240D01*
X47726065Y12956240D02*
X47776766Y12862606D01*
X47776766Y12862606D02*
X47800154Y12729965D01*
X47800154Y12729965D02*
X47757222Y12585631D01*
X47757222Y12585631D02*
X47620656Y12390594D01*
X47932876Y13334618D02*
X48206008Y13724691D01*
X48112293Y13092725D02*
X47484333Y13939352D01*
X47484333Y13939352D02*
X48494677Y13638826D01*
X46458706Y19550480D02*
X46813777Y20057574D01*
X46813777Y20057574D02*
X46934643Y19566018D01*
X46934643Y19566018D02*
X47016582Y19683039D01*
X47016582Y19683039D02*
X47110216Y19733741D01*
X47110216Y19733741D02*
X47176536Y19745435D01*
X47176536Y19745435D02*
X47281864Y19729816D01*
X47281864Y19729816D02*
X47476900Y19593250D01*
X47476900Y19593250D02*
X47527601Y19499616D01*
X47527601Y19499616D02*
X47539295Y19433296D01*
X47539295Y19433296D02*
X47523676Y19327968D01*
X47523676Y19327968D02*
X47359797Y19093925D01*
X47359797Y19093925D02*
X47266164Y19043223D01*
X47266164Y19043223D02*
X47199843Y19031529D01*
X47800733Y19889689D02*
X47867053Y19901383D01*
X47867053Y19901383D02*
X47878747Y19835062D01*
X47878747Y19835062D02*
X47812427Y19823368D01*
X47812427Y19823368D02*
X47800733Y19889689D01*
X47800733Y19889689D02*
X47878747Y19835062D01*
X47278100Y20720696D02*
X47633171Y21227790D01*
X47633171Y21227790D02*
X47754037Y20736234D01*
X47754037Y20736234D02*
X47835977Y20853256D01*
X47835977Y20853256D02*
X47929610Y20903958D01*
X47929610Y20903958D02*
X47995931Y20915652D01*
X47995931Y20915652D02*
X48101258Y20900033D01*
X48101258Y20900033D02*
X48296295Y20763467D01*
X48296295Y20763467D02*
X48346996Y20669833D01*
X48346996Y20669833D02*
X48358690Y20603513D01*
X48358690Y20603513D02*
X48343071Y20498185D01*
X48343071Y20498185D02*
X48179192Y20264142D01*
X48179192Y20264142D02*
X48085558Y20213440D01*
X48085558Y20213440D02*
X48019238Y20201746D01*
X47797050Y21461834D02*
X48807395Y21161308D01*
X48807395Y21161308D02*
X48179435Y22007935D01*
D12*
X344257Y15476000D02*
X1544257Y15476000D01*
X1544257Y15476000D02*
X1544257Y15018857D01*
X1544257Y15018857D02*
X1487114Y14904572D01*
X1487114Y14904572D02*
X1429971Y14847429D01*
X1429971Y14847429D02*
X1315685Y14790286D01*
X1315685Y14790286D02*
X1144257Y14790286D01*
X1144257Y14790286D02*
X1029971Y14847429D01*
X1029971Y14847429D02*
X972828Y14904572D01*
X972828Y14904572D02*
X915685Y15018857D01*
X915685Y15018857D02*
X915685Y15476000D01*
X1544257Y14390286D02*
X344257Y14104572D01*
X344257Y14104572D02*
X1201400Y13876000D01*
X1201400Y13876000D02*
X344257Y13647429D01*
X344257Y13647429D02*
X1544257Y13361714D01*
X344257Y12218857D02*
X915685Y12618857D01*
X344257Y12904571D02*
X1544257Y12904571D01*
X1544257Y12904571D02*
X1544257Y12447428D01*
X1544257Y12447428D02*
X1487114Y12333143D01*
X1487114Y12333143D02*
X1429971Y12276000D01*
X1429971Y12276000D02*
X1315685Y12218857D01*
X1315685Y12218857D02*
X1144257Y12218857D01*
X1144257Y12218857D02*
X1029971Y12276000D01*
X1029971Y12276000D02*
X972828Y12333143D01*
X972828Y12333143D02*
X915685Y12447428D01*
X915685Y12447428D02*
X915685Y12904571D01*
D10*
X46403407Y4794477D02*
X46403407Y5365905D01*
X47403407Y5080191D02*
X46403407Y5080191D01*
X46879597Y5699239D02*
X46879597Y6032572D01*
X47403407Y6175429D02*
X47403407Y5699239D01*
X47403407Y5699239D02*
X46403407Y5699239D01*
X46403407Y5699239D02*
X46403407Y6175429D01*
X47403407Y6604001D02*
X46403407Y6604001D01*
X46403407Y6604001D02*
X47117692Y6937334D01*
X47117692Y6937334D02*
X46403407Y7270667D01*
X46403407Y7270667D02*
X47403407Y7270667D01*
X47403407Y7746858D02*
X46403407Y7746858D01*
X46403407Y7746858D02*
X46403407Y8127810D01*
X46403407Y8127810D02*
X46451026Y8223048D01*
X46451026Y8223048D02*
X46498645Y8270667D01*
X46498645Y8270667D02*
X46593883Y8318286D01*
X46593883Y8318286D02*
X46736740Y8318286D01*
X46736740Y8318286D02*
X46831978Y8270667D01*
X46831978Y8270667D02*
X46879597Y8223048D01*
X46879597Y8223048D02*
X46927216Y8127810D01*
X46927216Y8127810D02*
X46927216Y7746858D01*
X48965732Y3842096D02*
X49013351Y3984953D01*
X49013351Y3984953D02*
X49013351Y4223048D01*
X49013351Y4223048D02*
X48965732Y4318286D01*
X48965732Y4318286D02*
X48918112Y4365905D01*
X48918112Y4365905D02*
X48822874Y4413524D01*
X48822874Y4413524D02*
X48727636Y4413524D01*
X48727636Y4413524D02*
X48632398Y4365905D01*
X48632398Y4365905D02*
X48584779Y4318286D01*
X48584779Y4318286D02*
X48537160Y4223048D01*
X48537160Y4223048D02*
X48489541Y4032572D01*
X48489541Y4032572D02*
X48441922Y3937334D01*
X48441922Y3937334D02*
X48394303Y3889715D01*
X48394303Y3889715D02*
X48299065Y3842096D01*
X48299065Y3842096D02*
X48203827Y3842096D01*
X48203827Y3842096D02*
X48108589Y3889715D01*
X48108589Y3889715D02*
X48060970Y3937334D01*
X48060970Y3937334D02*
X48013351Y4032572D01*
X48013351Y4032572D02*
X48013351Y4270667D01*
X48013351Y4270667D02*
X48060970Y4413524D01*
X48489541Y4842096D02*
X48489541Y5175429D01*
X49013351Y5318286D02*
X49013351Y4842096D01*
X49013351Y4842096D02*
X48013351Y4842096D01*
X48013351Y4842096D02*
X48013351Y5318286D01*
X49013351Y5746858D02*
X48013351Y5746858D01*
X48013351Y5746858D02*
X49013351Y6318286D01*
X49013351Y6318286D02*
X48013351Y6318286D01*
X48965732Y6746858D02*
X49013351Y6889715D01*
X49013351Y6889715D02*
X49013351Y7127810D01*
X49013351Y7127810D02*
X48965732Y7223048D01*
X48965732Y7223048D02*
X48918112Y7270667D01*
X48918112Y7270667D02*
X48822874Y7318286D01*
X48822874Y7318286D02*
X48727636Y7318286D01*
X48727636Y7318286D02*
X48632398Y7270667D01*
X48632398Y7270667D02*
X48584779Y7223048D01*
X48584779Y7223048D02*
X48537160Y7127810D01*
X48537160Y7127810D02*
X48489541Y6937334D01*
X48489541Y6937334D02*
X48441922Y6842096D01*
X48441922Y6842096D02*
X48394303Y6794477D01*
X48394303Y6794477D02*
X48299065Y6746858D01*
X48299065Y6746858D02*
X48203827Y6746858D01*
X48203827Y6746858D02*
X48108589Y6794477D01*
X48108589Y6794477D02*
X48060970Y6842096D01*
X48060970Y6842096D02*
X48013351Y6937334D01*
X48013351Y6937334D02*
X48013351Y7175429D01*
X48013351Y7175429D02*
X48060970Y7318286D01*
X48013351Y7937334D02*
X48013351Y8127810D01*
X48013351Y8127810D02*
X48060970Y8223048D01*
X48060970Y8223048D02*
X48156208Y8318286D01*
X48156208Y8318286D02*
X48346684Y8365905D01*
X48346684Y8365905D02*
X48680017Y8365905D01*
X48680017Y8365905D02*
X48870493Y8318286D01*
X48870493Y8318286D02*
X48965732Y8223048D01*
X48965732Y8223048D02*
X49013351Y8127810D01*
X49013351Y8127810D02*
X49013351Y7937334D01*
X49013351Y7937334D02*
X48965732Y7842096D01*
X48965732Y7842096D02*
X48870493Y7746858D01*
X48870493Y7746858D02*
X48680017Y7699239D01*
X48680017Y7699239D02*
X48346684Y7699239D01*
X48346684Y7699239D02*
X48156208Y7746858D01*
X48156208Y7746858D02*
X48060970Y7842096D01*
X48060970Y7842096D02*
X48013351Y7937334D01*
X49013351Y9365905D02*
X48537160Y9032572D01*
X49013351Y8794477D02*
X48013351Y8794477D01*
X48013351Y8794477D02*
X48013351Y9175429D01*
X48013351Y9175429D02*
X48060970Y9270667D01*
X48060970Y9270667D02*
X48108589Y9318286D01*
X48108589Y9318286D02*
X48203827Y9365905D01*
X48203827Y9365905D02*
X48346684Y9365905D01*
X48346684Y9365905D02*
X48441922Y9318286D01*
X48441922Y9318286D02*
X48489541Y9270667D01*
X48489541Y9270667D02*
X48537160Y9175429D01*
X48537160Y9175429D02*
X48537160Y8794477D01*
D11*
X19450255Y23101181D02*
X19640731Y23101181D01*
X19640731Y23101181D02*
X19735969Y23053562D01*
X19735969Y23053562D02*
X19831207Y22958324D01*
X19831207Y22958324D02*
X19878826Y22767848D01*
X19878826Y22767848D02*
X19878826Y22434515D01*
X19878826Y22434515D02*
X19831207Y22244039D01*
X19831207Y22244039D02*
X19735969Y22148800D01*
X19735969Y22148800D02*
X19640731Y22101181D01*
X19640731Y22101181D02*
X19450255Y22101181D01*
X19450255Y22101181D02*
X19355017Y22148800D01*
X19355017Y22148800D02*
X19259779Y22244039D01*
X19259779Y22244039D02*
X19212160Y22434515D01*
X19212160Y22434515D02*
X19212160Y22767848D01*
X19212160Y22767848D02*
X19259779Y22958324D01*
X19259779Y22958324D02*
X19355017Y23053562D01*
X19355017Y23053562D02*
X19450255Y23101181D01*
X20783588Y22101181D02*
X20307398Y22101181D01*
X20307398Y22101181D02*
X20307398Y23101181D01*
X21116922Y22624991D02*
X21450255Y22624991D01*
X21593112Y22101181D02*
X21116922Y22101181D01*
X21116922Y22101181D02*
X21116922Y23101181D01*
X21116922Y23101181D02*
X21593112Y23101181D01*
X22021684Y22101181D02*
X22021684Y23101181D01*
X22021684Y23101181D02*
X22259779Y23101181D01*
X22259779Y23101181D02*
X22402636Y23053562D01*
X22402636Y23053562D02*
X22497874Y22958324D01*
X22497874Y22958324D02*
X22545493Y22863086D01*
X22545493Y22863086D02*
X22593112Y22672610D01*
X22593112Y22672610D02*
X22593112Y22529753D01*
X22593112Y22529753D02*
X22545493Y22339277D01*
X22545493Y22339277D02*
X22497874Y22244039D01*
X22497874Y22244039D02*
X22402636Y22148800D01*
X22402636Y22148800D02*
X22259779Y22101181D01*
X22259779Y22101181D02*
X22021684Y22101181D01*
X24212160Y22101181D02*
X24212160Y23101181D01*
X24212160Y22148800D02*
X24116922Y22101181D01*
X24116922Y22101181D02*
X23926446Y22101181D01*
X23926446Y22101181D02*
X23831208Y22148800D01*
X23831208Y22148800D02*
X23783589Y22196420D01*
X23783589Y22196420D02*
X23735970Y22291658D01*
X23735970Y22291658D02*
X23735970Y22577372D01*
X23735970Y22577372D02*
X23783589Y22672610D01*
X23783589Y22672610D02*
X23831208Y22720229D01*
X23831208Y22720229D02*
X23926446Y22767848D01*
X23926446Y22767848D02*
X24116922Y22767848D01*
X24116922Y22767848D02*
X24212160Y22720229D01*
X24688351Y22101181D02*
X24688351Y22767848D01*
X24688351Y23101181D02*
X24640732Y23053562D01*
X24640732Y23053562D02*
X24688351Y23005943D01*
X24688351Y23005943D02*
X24735970Y23053562D01*
X24735970Y23053562D02*
X24688351Y23101181D01*
X24688351Y23101181D02*
X24688351Y23005943D01*
X25116922Y22148800D02*
X25212160Y22101181D01*
X25212160Y22101181D02*
X25402636Y22101181D01*
X25402636Y22101181D02*
X25497874Y22148800D01*
X25497874Y22148800D02*
X25545493Y22244039D01*
X25545493Y22244039D02*
X25545493Y22291658D01*
X25545493Y22291658D02*
X25497874Y22386896D01*
X25497874Y22386896D02*
X25402636Y22434515D01*
X25402636Y22434515D02*
X25259779Y22434515D01*
X25259779Y22434515D02*
X25164541Y22482134D01*
X25164541Y22482134D02*
X25116922Y22577372D01*
X25116922Y22577372D02*
X25116922Y22624991D01*
X25116922Y22624991D02*
X25164541Y22720229D01*
X25164541Y22720229D02*
X25259779Y22767848D01*
X25259779Y22767848D02*
X25402636Y22767848D01*
X25402636Y22767848D02*
X25497874Y22720229D01*
X25974065Y22767848D02*
X25974065Y21767848D01*
X25974065Y22720229D02*
X26069303Y22767848D01*
X26069303Y22767848D02*
X26259779Y22767848D01*
X26259779Y22767848D02*
X26355017Y22720229D01*
X26355017Y22720229D02*
X26402636Y22672610D01*
X26402636Y22672610D02*
X26450255Y22577372D01*
X26450255Y22577372D02*
X26450255Y22291658D01*
X26450255Y22291658D02*
X26402636Y22196420D01*
X26402636Y22196420D02*
X26355017Y22148800D01*
X26355017Y22148800D02*
X26259779Y22101181D01*
X26259779Y22101181D02*
X26069303Y22101181D01*
X26069303Y22101181D02*
X25974065Y22148800D01*
X27021684Y22101181D02*
X26926446Y22148800D01*
X26926446Y22148800D02*
X26878827Y22244039D01*
X26878827Y22244039D02*
X26878827Y23101181D01*
X27831208Y22101181D02*
X27831208Y22624991D01*
X27831208Y22624991D02*
X27783589Y22720229D01*
X27783589Y22720229D02*
X27688351Y22767848D01*
X27688351Y22767848D02*
X27497875Y22767848D01*
X27497875Y22767848D02*
X27402637Y22720229D01*
X27831208Y22148800D02*
X27735970Y22101181D01*
X27735970Y22101181D02*
X27497875Y22101181D01*
X27497875Y22101181D02*
X27402637Y22148800D01*
X27402637Y22148800D02*
X27355018Y22244039D01*
X27355018Y22244039D02*
X27355018Y22339277D01*
X27355018Y22339277D02*
X27402637Y22434515D01*
X27402637Y22434515D02*
X27497875Y22482134D01*
X27497875Y22482134D02*
X27735970Y22482134D01*
X27735970Y22482134D02*
X27831208Y22529753D01*
X28212161Y22767848D02*
X28450256Y22101181D01*
X28688351Y22767848D02*
X28450256Y22101181D01*
X28450256Y22101181D02*
X28355018Y21863086D01*
X28355018Y21863086D02*
X28307399Y21815467D01*
X28307399Y21815467D02*
X28212161Y21767848D01*
X38917714Y8863800D02*
X39060571Y8816181D01*
X39060571Y8816181D02*
X39298666Y8816181D01*
X39298666Y8816181D02*
X39393904Y8863800D01*
X39393904Y8863800D02*
X39441523Y8911420D01*
X39441523Y8911420D02*
X39489142Y9006658D01*
X39489142Y9006658D02*
X39489142Y9101896D01*
X39489142Y9101896D02*
X39441523Y9197134D01*
X39441523Y9197134D02*
X39393904Y9244753D01*
X39393904Y9244753D02*
X39298666Y9292372D01*
X39298666Y9292372D02*
X39108190Y9339991D01*
X39108190Y9339991D02*
X39012952Y9387610D01*
X39012952Y9387610D02*
X38965333Y9435229D01*
X38965333Y9435229D02*
X38917714Y9530467D01*
X38917714Y9530467D02*
X38917714Y9625705D01*
X38917714Y9625705D02*
X38965333Y9720943D01*
X38965333Y9720943D02*
X39012952Y9768562D01*
X39012952Y9768562D02*
X39108190Y9816181D01*
X39108190Y9816181D02*
X39346285Y9816181D01*
X39346285Y9816181D02*
X39489142Y9768562D01*
X39917714Y8816181D02*
X39917714Y9816181D01*
X39917714Y9816181D02*
X40155809Y9816181D01*
X40155809Y9816181D02*
X40298666Y9768562D01*
X40298666Y9768562D02*
X40393904Y9673324D01*
X40393904Y9673324D02*
X40441523Y9578086D01*
X40441523Y9578086D02*
X40489142Y9387610D01*
X40489142Y9387610D02*
X40489142Y9244753D01*
X40489142Y9244753D02*
X40441523Y9054277D01*
X40441523Y9054277D02*
X40393904Y8959039D01*
X40393904Y8959039D02*
X40298666Y8863800D01*
X40298666Y8863800D02*
X40155809Y8816181D01*
X40155809Y8816181D02*
X39917714Y8816181D01*
X40870095Y9101896D02*
X41346285Y9101896D01*
X40774857Y8816181D02*
X41108190Y9816181D01*
X41108190Y9816181D02*
X41441523Y8816181D01*
X36225847Y17192763D02*
X35225847Y17192763D01*
X35702037Y17192763D02*
X35702037Y17764191D01*
X36225847Y17764191D02*
X35225847Y17764191D01*
X35940132Y18192763D02*
X35940132Y18668953D01*
X36225847Y18097525D02*
X35225847Y18430858D01*
X35225847Y18430858D02*
X36225847Y18764191D01*
X35225847Y18954668D02*
X35225847Y19526096D01*
X36225847Y19240382D02*
X35225847Y19240382D01*
X37311981Y16597524D02*
X37311981Y16264191D01*
X37835791Y16264191D02*
X36835791Y16264191D01*
X36835791Y16264191D02*
X36835791Y16740381D01*
X37835791Y17597524D02*
X37835791Y17121334D01*
X37835791Y17121334D02*
X36835791Y17121334D01*
X37550076Y17883239D02*
X37550076Y18359429D01*
X37835791Y17788001D02*
X36835791Y18121334D01*
X36835791Y18121334D02*
X37835791Y18454667D01*
X37788172Y18740382D02*
X37835791Y18883239D01*
X37835791Y18883239D02*
X37835791Y19121334D01*
X37835791Y19121334D02*
X37788172Y19216572D01*
X37788172Y19216572D02*
X37740552Y19264191D01*
X37740552Y19264191D02*
X37645314Y19311810D01*
X37645314Y19311810D02*
X37550076Y19311810D01*
X37550076Y19311810D02*
X37454838Y19264191D01*
X37454838Y19264191D02*
X37407219Y19216572D01*
X37407219Y19216572D02*
X37359600Y19121334D01*
X37359600Y19121334D02*
X37311981Y18930858D01*
X37311981Y18930858D02*
X37264362Y18835620D01*
X37264362Y18835620D02*
X37216743Y18788001D01*
X37216743Y18788001D02*
X37121505Y18740382D01*
X37121505Y18740382D02*
X37026267Y18740382D01*
X37026267Y18740382D02*
X36931029Y18788001D01*
X36931029Y18788001D02*
X36883410Y18835620D01*
X36883410Y18835620D02*
X36835791Y18930858D01*
X36835791Y18930858D02*
X36835791Y19168953D01*
X36835791Y19168953D02*
X36883410Y19311810D01*
X37835791Y19740382D02*
X36835791Y19740382D01*
X37311981Y19740382D02*
X37311981Y20311810D01*
X37835791Y20311810D02*
X36835791Y20311810D01*
X46653410Y17568275D02*
X46559777Y17517574D01*
X46559777Y17517574D02*
X46477837Y17400552D01*
X46477837Y17400552D02*
X46434905Y17256217D01*
X46434905Y17256217D02*
X46458293Y17123576D01*
X46458293Y17123576D02*
X46508994Y17029943D01*
X46508994Y17029943D02*
X46637710Y16881683D01*
X46637710Y16881683D02*
X46754732Y16799743D01*
X46754732Y16799743D02*
X46938074Y16729498D01*
X46938074Y16729498D02*
X47043402Y16713879D01*
X47043402Y16713879D02*
X47176043Y16737267D01*
X47176043Y16737267D02*
X47296989Y16826975D01*
X47296989Y16826975D02*
X47351616Y16904990D01*
X47351616Y16904990D02*
X47394548Y17049325D01*
X47394548Y17049325D02*
X47382854Y17115645D01*
X47382854Y17115645D02*
X47109803Y17306837D01*
X47109803Y17306837D02*
X47000550Y17150808D01*
X47706687Y17412084D02*
X46887535Y17985660D01*
X46887535Y17985660D02*
X48034445Y17880171D01*
X48034445Y17880171D02*
X47215293Y18453747D01*
X48307576Y18270243D02*
X47488424Y18843820D01*
X47488424Y18843820D02*
X47624990Y19038856D01*
X47624990Y19038856D02*
X47745937Y19128564D01*
X47745937Y19128564D02*
X47878578Y19151953D01*
X47878578Y19151953D02*
X47983905Y19136334D01*
X47983905Y19136334D02*
X48167247Y19066088D01*
X48167247Y19066088D02*
X48284269Y18984149D01*
X48284269Y18984149D02*
X48412985Y18835889D01*
X48412985Y18835889D02*
X48463686Y18742255D01*
X48463686Y18742255D02*
X48487074Y18609614D01*
X48487074Y18609614D02*
X48444142Y18465279D01*
X48444142Y18465279D02*
X48307576Y18270243D01*
X9223714Y18960181D02*
X9223714Y18150658D01*
X9223714Y18150658D02*
X9271333Y18055420D01*
X9271333Y18055420D02*
X9318952Y18007800D01*
X9318952Y18007800D02*
X9414190Y17960181D01*
X9414190Y17960181D02*
X9604666Y17960181D01*
X9604666Y17960181D02*
X9699904Y18007800D01*
X9699904Y18007800D02*
X9747523Y18055420D01*
X9747523Y18055420D02*
X9795142Y18150658D01*
X9795142Y18150658D02*
X9795142Y18960181D01*
X10223714Y18007800D02*
X10366571Y17960181D01*
X10366571Y17960181D02*
X10604666Y17960181D01*
X10604666Y17960181D02*
X10699904Y18007800D01*
X10699904Y18007800D02*
X10747523Y18055420D01*
X10747523Y18055420D02*
X10795142Y18150658D01*
X10795142Y18150658D02*
X10795142Y18245896D01*
X10795142Y18245896D02*
X10747523Y18341134D01*
X10747523Y18341134D02*
X10699904Y18388753D01*
X10699904Y18388753D02*
X10604666Y18436372D01*
X10604666Y18436372D02*
X10414190Y18483991D01*
X10414190Y18483991D02*
X10318952Y18531610D01*
X10318952Y18531610D02*
X10271333Y18579229D01*
X10271333Y18579229D02*
X10223714Y18674467D01*
X10223714Y18674467D02*
X10223714Y18769705D01*
X10223714Y18769705D02*
X10271333Y18864943D01*
X10271333Y18864943D02*
X10318952Y18912562D01*
X10318952Y18912562D02*
X10414190Y18960181D01*
X10414190Y18960181D02*
X10652285Y18960181D01*
X10652285Y18960181D02*
X10795142Y18912562D01*
X11557047Y18483991D02*
X11699904Y18436372D01*
X11699904Y18436372D02*
X11747523Y18388753D01*
X11747523Y18388753D02*
X11795142Y18293515D01*
X11795142Y18293515D02*
X11795142Y18150658D01*
X11795142Y18150658D02*
X11747523Y18055420D01*
X11747523Y18055420D02*
X11699904Y18007800D01*
X11699904Y18007800D02*
X11604666Y17960181D01*
X11604666Y17960181D02*
X11223714Y17960181D01*
X11223714Y17960181D02*
X11223714Y18960181D01*
X11223714Y18960181D02*
X11557047Y18960181D01*
X11557047Y18960181D02*
X11652285Y18912562D01*
X11652285Y18912562D02*
X11699904Y18864943D01*
X11699904Y18864943D02*
X11747523Y18769705D01*
X11747523Y18769705D02*
X11747523Y18674467D01*
X11747523Y18674467D02*
X11699904Y18579229D01*
X11699904Y18579229D02*
X11652285Y18531610D01*
X11652285Y18531610D02*
X11557047Y18483991D01*
X11557047Y18483991D02*
X11223714Y18483991D01*
X12223714Y18341134D02*
X12985619Y18341134D01*
X13461809Y18960181D02*
X13461809Y18150658D01*
X13461809Y18150658D02*
X13509428Y18055420D01*
X13509428Y18055420D02*
X13557047Y18007800D01*
X13557047Y18007800D02*
X13652285Y17960181D01*
X13652285Y17960181D02*
X13842761Y17960181D01*
X13842761Y17960181D02*
X13937999Y18007800D01*
X13937999Y18007800D02*
X13985618Y18055420D01*
X13985618Y18055420D02*
X14033237Y18150658D01*
X14033237Y18150658D02*
X14033237Y18960181D01*
X14461809Y18245896D02*
X14937999Y18245896D01*
X14366571Y17960181D02*
X14699904Y18960181D01*
X14699904Y18960181D02*
X15033237Y17960181D01*
X15937999Y17960181D02*
X15604666Y18436372D01*
X15366571Y17960181D02*
X15366571Y18960181D01*
X15366571Y18960181D02*
X15747523Y18960181D01*
X15747523Y18960181D02*
X15842761Y18912562D01*
X15842761Y18912562D02*
X15890380Y18864943D01*
X15890380Y18864943D02*
X15937999Y18769705D01*
X15937999Y18769705D02*
X15937999Y18626848D01*
X15937999Y18626848D02*
X15890380Y18531610D01*
X15890380Y18531610D02*
X15842761Y18483991D01*
X15842761Y18483991D02*
X15747523Y18436372D01*
X15747523Y18436372D02*
X15366571Y18436372D01*
X16223714Y18960181D02*
X16795142Y18960181D01*
X16509428Y17960181D02*
X16509428Y18960181D01*
X40941810Y13753181D02*
X41560857Y13753181D01*
X41560857Y13753181D02*
X41227524Y13372229D01*
X41227524Y13372229D02*
X41370381Y13372229D01*
X41370381Y13372229D02*
X41465619Y13324610D01*
X41465619Y13324610D02*
X41513238Y13276991D01*
X41513238Y13276991D02*
X41560857Y13181753D01*
X41560857Y13181753D02*
X41560857Y12943658D01*
X41560857Y12943658D02*
X41513238Y12848420D01*
X41513238Y12848420D02*
X41465619Y12800800D01*
X41465619Y12800800D02*
X41370381Y12753181D01*
X41370381Y12753181D02*
X41084667Y12753181D01*
X41084667Y12753181D02*
X40989429Y12800800D01*
X40989429Y12800800D02*
X40941810Y12848420D01*
X41989429Y12848420D02*
X42037048Y12800800D01*
X42037048Y12800800D02*
X41989429Y12753181D01*
X41989429Y12753181D02*
X41941810Y12800800D01*
X41941810Y12800800D02*
X41989429Y12848420D01*
X41989429Y12848420D02*
X41989429Y12753181D01*
X42370381Y13753181D02*
X42989428Y13753181D01*
X42989428Y13753181D02*
X42656095Y13372229D01*
X42656095Y13372229D02*
X42798952Y13372229D01*
X42798952Y13372229D02*
X42894190Y13324610D01*
X42894190Y13324610D02*
X42941809Y13276991D01*
X42941809Y13276991D02*
X42989428Y13181753D01*
X42989428Y13181753D02*
X42989428Y12943658D01*
X42989428Y12943658D02*
X42941809Y12848420D01*
X42941809Y12848420D02*
X42894190Y12800800D01*
X42894190Y12800800D02*
X42798952Y12753181D01*
X42798952Y12753181D02*
X42513238Y12753181D01*
X42513238Y12753181D02*
X42418000Y12800800D01*
X42418000Y12800800D02*
X42370381Y12848420D01*
X43275143Y13753181D02*
X43608476Y12753181D01*
X43608476Y12753181D02*
X43941809Y13753181D01*
D12*
X344257Y17480000D02*
X915685Y17880000D01*
X344257Y18165714D02*
X1544257Y18165714D01*
X1544257Y18165714D02*
X1544257Y17708571D01*
X1544257Y17708571D02*
X1487114Y17594286D01*
X1487114Y17594286D02*
X1429971Y17537143D01*
X1429971Y17537143D02*
X1315685Y17480000D01*
X1315685Y17480000D02*
X1144257Y17480000D01*
X1144257Y17480000D02*
X1029971Y17537143D01*
X1029971Y17537143D02*
X972828Y17594286D01*
X972828Y17594286D02*
X915685Y17708571D01*
X915685Y17708571D02*
X915685Y18165714D01*
X1544257Y17080000D02*
X344257Y16280000D01*
X1544257Y16280000D02*
X344257Y17080000D01*
D11*
X15074819Y22183334D02*
X14598628Y21850001D01*
X15074819Y21611906D02*
X14074819Y21611906D01*
X14074819Y21611906D02*
X14074819Y21992858D01*
X14074819Y21992858D02*
X14122438Y22088096D01*
X14122438Y22088096D02*
X14170057Y22135715D01*
X14170057Y22135715D02*
X14265295Y22183334D01*
X14265295Y22183334D02*
X14408152Y22183334D01*
X14408152Y22183334D02*
X14503390Y22135715D01*
X14503390Y22135715D02*
X14551009Y22088096D01*
X14551009Y22088096D02*
X14598628Y21992858D01*
X14598628Y21992858D02*
X14598628Y21611906D01*
X14408152Y23040477D02*
X15074819Y23040477D01*
X14027200Y22802382D02*
X14741485Y22564287D01*
X14741485Y22564287D02*
X14741485Y23183334D01*
X5651833Y14912181D02*
X5318500Y15388372D01*
X5080405Y14912181D02*
X5080405Y15912181D01*
X5080405Y15912181D02*
X5461357Y15912181D01*
X5461357Y15912181D02*
X5556595Y15864562D01*
X5556595Y15864562D02*
X5604214Y15816943D01*
X5604214Y15816943D02*
X5651833Y15721705D01*
X5651833Y15721705D02*
X5651833Y15578848D01*
X5651833Y15578848D02*
X5604214Y15483610D01*
X5604214Y15483610D02*
X5556595Y15435991D01*
X5556595Y15435991D02*
X5461357Y15388372D01*
X5461357Y15388372D02*
X5080405Y15388372D01*
X6223262Y15483610D02*
X6128024Y15531229D01*
X6128024Y15531229D02*
X6080405Y15578848D01*
X6080405Y15578848D02*
X6032786Y15674086D01*
X6032786Y15674086D02*
X6032786Y15721705D01*
X6032786Y15721705D02*
X6080405Y15816943D01*
X6080405Y15816943D02*
X6128024Y15864562D01*
X6128024Y15864562D02*
X6223262Y15912181D01*
X6223262Y15912181D02*
X6413738Y15912181D01*
X6413738Y15912181D02*
X6508976Y15864562D01*
X6508976Y15864562D02*
X6556595Y15816943D01*
X6556595Y15816943D02*
X6604214Y15721705D01*
X6604214Y15721705D02*
X6604214Y15674086D01*
X6604214Y15674086D02*
X6556595Y15578848D01*
X6556595Y15578848D02*
X6508976Y15531229D01*
X6508976Y15531229D02*
X6413738Y15483610D01*
X6413738Y15483610D02*
X6223262Y15483610D01*
X6223262Y15483610D02*
X6128024Y15435991D01*
X6128024Y15435991D02*
X6080405Y15388372D01*
X6080405Y15388372D02*
X6032786Y15293134D01*
X6032786Y15293134D02*
X6032786Y15102658D01*
X6032786Y15102658D02*
X6080405Y15007420D01*
X6080405Y15007420D02*
X6128024Y14959800D01*
X6128024Y14959800D02*
X6223262Y14912181D01*
X6223262Y14912181D02*
X6413738Y14912181D01*
X6413738Y14912181D02*
X6508976Y14959800D01*
X6508976Y14959800D02*
X6556595Y15007420D01*
X6556595Y15007420D02*
X6604214Y15102658D01*
X6604214Y15102658D02*
X6604214Y15293134D01*
X6604214Y15293134D02*
X6556595Y15388372D01*
X6556595Y15388372D02*
X6508976Y15435991D01*
X6508976Y15435991D02*
X6413738Y15483610D01*
X26086733Y16607620D02*
X26039114Y16560000D01*
X26039114Y16560000D02*
X25896257Y16512381D01*
X25896257Y16512381D02*
X25801019Y16512381D01*
X25801019Y16512381D02*
X25658162Y16560000D01*
X25658162Y16560000D02*
X25562924Y16655239D01*
X25562924Y16655239D02*
X25515305Y16750477D01*
X25515305Y16750477D02*
X25467686Y16940953D01*
X25467686Y16940953D02*
X25467686Y17083810D01*
X25467686Y17083810D02*
X25515305Y17274286D01*
X25515305Y17274286D02*
X25562924Y17369524D01*
X25562924Y17369524D02*
X25658162Y17464762D01*
X25658162Y17464762D02*
X25801019Y17512381D01*
X25801019Y17512381D02*
X25896257Y17512381D01*
X25896257Y17512381D02*
X26039114Y17464762D01*
X26039114Y17464762D02*
X26086733Y17417143D01*
X26420067Y17512381D02*
X27039114Y17512381D01*
X27039114Y17512381D02*
X26705781Y17131429D01*
X26705781Y17131429D02*
X26848638Y17131429D01*
X26848638Y17131429D02*
X26943876Y17083810D01*
X26943876Y17083810D02*
X26991495Y17036191D01*
X26991495Y17036191D02*
X27039114Y16940953D01*
X27039114Y16940953D02*
X27039114Y16702858D01*
X27039114Y16702858D02*
X26991495Y16607620D01*
X26991495Y16607620D02*
X26943876Y16560000D01*
X26943876Y16560000D02*
X26848638Y16512381D01*
X26848638Y16512381D02*
X26562924Y16512381D01*
X26562924Y16512381D02*
X26467686Y16560000D01*
X26467686Y16560000D02*
X26420067Y16607620D01*
X34668619Y14620543D02*
X34192428Y14287210D01*
X34668619Y14049115D02*
X33668619Y14049115D01*
X33668619Y14049115D02*
X33668619Y14430067D01*
X33668619Y14430067D02*
X33716238Y14525305D01*
X33716238Y14525305D02*
X33763857Y14572924D01*
X33763857Y14572924D02*
X33859095Y14620543D01*
X33859095Y14620543D02*
X34001952Y14620543D01*
X34001952Y14620543D02*
X34097190Y14572924D01*
X34097190Y14572924D02*
X34144809Y14525305D01*
X34144809Y14525305D02*
X34192428Y14430067D01*
X34192428Y14430067D02*
X34192428Y14049115D01*
X33763857Y15001496D02*
X33716238Y15049115D01*
X33716238Y15049115D02*
X33668619Y15144353D01*
X33668619Y15144353D02*
X33668619Y15382448D01*
X33668619Y15382448D02*
X33716238Y15477686D01*
X33716238Y15477686D02*
X33763857Y15525305D01*
X33763857Y15525305D02*
X33859095Y15572924D01*
X33859095Y15572924D02*
X33954333Y15572924D01*
X33954333Y15572924D02*
X34097190Y15525305D01*
X34097190Y15525305D02*
X34668619Y14953877D01*
X34668619Y14953877D02*
X34668619Y15572924D01*
X33763857Y15953877D02*
X33716238Y16001496D01*
X33716238Y16001496D02*
X33668619Y16096734D01*
X33668619Y16096734D02*
X33668619Y16334829D01*
X33668619Y16334829D02*
X33716238Y16430067D01*
X33716238Y16430067D02*
X33763857Y16477686D01*
X33763857Y16477686D02*
X33859095Y16525305D01*
X33859095Y16525305D02*
X33954333Y16525305D01*
X33954333Y16525305D02*
X34097190Y16477686D01*
X34097190Y16477686D02*
X34668619Y15906258D01*
X34668619Y15906258D02*
X34668619Y16525305D01*
X5651833Y20754181D02*
X5318500Y21230372D01*
X5080405Y20754181D02*
X5080405Y21754181D01*
X5080405Y21754181D02*
X5461357Y21754181D01*
X5461357Y21754181D02*
X5556595Y21706562D01*
X5556595Y21706562D02*
X5604214Y21658943D01*
X5604214Y21658943D02*
X5651833Y21563705D01*
X5651833Y21563705D02*
X5651833Y21420848D01*
X5651833Y21420848D02*
X5604214Y21325610D01*
X5604214Y21325610D02*
X5556595Y21277991D01*
X5556595Y21277991D02*
X5461357Y21230372D01*
X5461357Y21230372D02*
X5080405Y21230372D01*
X5985167Y21754181D02*
X6651833Y21754181D01*
X6651833Y21754181D02*
X6223262Y20754181D01*
X43442095Y16801181D02*
X44013523Y16801181D01*
X43727809Y15801181D02*
X43727809Y16801181D01*
X44346857Y15801181D02*
X44346857Y16801181D01*
X44346857Y16801181D02*
X44727809Y16801181D01*
X44727809Y16801181D02*
X44823047Y16753562D01*
X44823047Y16753562D02*
X44870666Y16705943D01*
X44870666Y16705943D02*
X44918285Y16610705D01*
X44918285Y16610705D02*
X44918285Y16467848D01*
X44918285Y16467848D02*
X44870666Y16372610D01*
X44870666Y16372610D02*
X44823047Y16324991D01*
X44823047Y16324991D02*
X44727809Y16277372D01*
X44727809Y16277372D02*
X44346857Y16277372D01*
X45299238Y16705943D02*
X45346857Y16753562D01*
X45346857Y16753562D02*
X45442095Y16801181D01*
X45442095Y16801181D02*
X45680190Y16801181D01*
X45680190Y16801181D02*
X45775428Y16753562D01*
X45775428Y16753562D02*
X45823047Y16705943D01*
X45823047Y16705943D02*
X45870666Y16610705D01*
X45870666Y16610705D02*
X45870666Y16515467D01*
X45870666Y16515467D02*
X45823047Y16372610D01*
X45823047Y16372610D02*
X45251619Y15801181D01*
X45251619Y15801181D02*
X45870666Y15801181D01*
X53346666Y23262181D02*
X53346666Y22547896D01*
X53346666Y22547896D02*
X53299047Y22405039D01*
X53299047Y22405039D02*
X53203809Y22309800D01*
X53203809Y22309800D02*
X53060952Y22262181D01*
X53060952Y22262181D02*
X52965714Y22262181D01*
X54251428Y22928848D02*
X54251428Y22262181D01*
X54013333Y23309800D02*
X53775238Y22595515D01*
X53775238Y22595515D02*
X54394285Y22595515D01*
X9644142Y16584420D02*
X9596523Y16536800D01*
X9596523Y16536800D02*
X9453666Y16489181D01*
X9453666Y16489181D02*
X9358428Y16489181D01*
X9358428Y16489181D02*
X9215571Y16536800D01*
X9215571Y16536800D02*
X9120333Y16632039D01*
X9120333Y16632039D02*
X9072714Y16727277D01*
X9072714Y16727277D02*
X9025095Y16917753D01*
X9025095Y16917753D02*
X9025095Y17060610D01*
X9025095Y17060610D02*
X9072714Y17251086D01*
X9072714Y17251086D02*
X9120333Y17346324D01*
X9120333Y17346324D02*
X9215571Y17441562D01*
X9215571Y17441562D02*
X9358428Y17489181D01*
X9358428Y17489181D02*
X9453666Y17489181D01*
X9453666Y17489181D02*
X9596523Y17441562D01*
X9596523Y17441562D02*
X9644142Y17393943D01*
X10596523Y16489181D02*
X10025095Y16489181D01*
X10310809Y16489181D02*
X10310809Y17489181D01*
X10310809Y17489181D02*
X10215571Y17346324D01*
X10215571Y17346324D02*
X10120333Y17251086D01*
X10120333Y17251086D02*
X10025095Y17203467D01*
X10977476Y17393943D02*
X11025095Y17441562D01*
X11025095Y17441562D02*
X11120333Y17489181D01*
X11120333Y17489181D02*
X11358428Y17489181D01*
X11358428Y17489181D02*
X11453666Y17441562D01*
X11453666Y17441562D02*
X11501285Y17393943D01*
X11501285Y17393943D02*
X11548904Y17298705D01*
X11548904Y17298705D02*
X11548904Y17203467D01*
X11548904Y17203467D02*
X11501285Y17060610D01*
X11501285Y17060610D02*
X10929857Y16489181D01*
X10929857Y16489181D02*
X11548904Y16489181D01*
X41267142Y5260181D02*
X40933809Y5736372D01*
X40695714Y5260181D02*
X40695714Y6260181D01*
X40695714Y6260181D02*
X41076666Y6260181D01*
X41076666Y6260181D02*
X41171904Y6212562D01*
X41171904Y6212562D02*
X41219523Y6164943D01*
X41219523Y6164943D02*
X41267142Y6069705D01*
X41267142Y6069705D02*
X41267142Y5926848D01*
X41267142Y5926848D02*
X41219523Y5831610D01*
X41219523Y5831610D02*
X41171904Y5783991D01*
X41171904Y5783991D02*
X41076666Y5736372D01*
X41076666Y5736372D02*
X40695714Y5736372D01*
X42219523Y5260181D02*
X41648095Y5260181D01*
X41933809Y5260181D02*
X41933809Y6260181D01*
X41933809Y6260181D02*
X41838571Y6117324D01*
X41838571Y6117324D02*
X41743333Y6022086D01*
X41743333Y6022086D02*
X41648095Y5974467D01*
X43124285Y6260181D02*
X42648095Y6260181D01*
X42648095Y6260181D02*
X42600476Y5783991D01*
X42600476Y5783991D02*
X42648095Y5831610D01*
X42648095Y5831610D02*
X42743333Y5879229D01*
X42743333Y5879229D02*
X42981428Y5879229D01*
X42981428Y5879229D02*
X43076666Y5831610D01*
X43076666Y5831610D02*
X43124285Y5783991D01*
X43124285Y5783991D02*
X43171904Y5688753D01*
X43171904Y5688753D02*
X43171904Y5450658D01*
X43171904Y5450658D02*
X43124285Y5355420D01*
X43124285Y5355420D02*
X43076666Y5307800D01*
X43076666Y5307800D02*
X42981428Y5260181D01*
X42981428Y5260181D02*
X42743333Y5260181D01*
X42743333Y5260181D02*
X42648095Y5307800D01*
X42648095Y5307800D02*
X42600476Y5355420D01*
X46505905Y3437981D02*
X46505905Y4437981D01*
X46505905Y4437981D02*
X46744000Y4437981D01*
X46744000Y4437981D02*
X46886857Y4390362D01*
X46886857Y4390362D02*
X46982095Y4295124D01*
X46982095Y4295124D02*
X47029714Y4199886D01*
X47029714Y4199886D02*
X47077333Y4009410D01*
X47077333Y4009410D02*
X47077333Y3866553D01*
X47077333Y3866553D02*
X47029714Y3676077D01*
X47029714Y3676077D02*
X46982095Y3580839D01*
X46982095Y3580839D02*
X46886857Y3485600D01*
X46886857Y3485600D02*
X46744000Y3437981D01*
X46744000Y3437981D02*
X46505905Y3437981D01*
X48029714Y3437981D02*
X47458286Y3437981D01*
X47744000Y3437981D02*
X47744000Y4437981D01*
X47744000Y4437981D02*
X47648762Y4295124D01*
X47648762Y4295124D02*
X47553524Y4199886D01*
X47553524Y4199886D02*
X47458286Y4152267D01*
X29993019Y19372343D02*
X29516828Y19039010D01*
X29993019Y18800915D02*
X28993019Y18800915D01*
X28993019Y18800915D02*
X28993019Y19181867D01*
X28993019Y19181867D02*
X29040638Y19277105D01*
X29040638Y19277105D02*
X29088257Y19324724D01*
X29088257Y19324724D02*
X29183495Y19372343D01*
X29183495Y19372343D02*
X29326352Y19372343D01*
X29326352Y19372343D02*
X29421590Y19324724D01*
X29421590Y19324724D02*
X29469209Y19277105D01*
X29469209Y19277105D02*
X29516828Y19181867D01*
X29516828Y19181867D02*
X29516828Y18800915D01*
X29088257Y19753296D02*
X29040638Y19800915D01*
X29040638Y19800915D02*
X28993019Y19896153D01*
X28993019Y19896153D02*
X28993019Y20134248D01*
X28993019Y20134248D02*
X29040638Y20229486D01*
X29040638Y20229486D02*
X29088257Y20277105D01*
X29088257Y20277105D02*
X29183495Y20324724D01*
X29183495Y20324724D02*
X29278733Y20324724D01*
X29278733Y20324724D02*
X29421590Y20277105D01*
X29421590Y20277105D02*
X29993019Y19705677D01*
X29993019Y19705677D02*
X29993019Y20324724D01*
X29993019Y21277105D02*
X29993019Y20705677D01*
X29993019Y20991391D02*
X28993019Y20991391D01*
X28993019Y20991391D02*
X29135876Y20896153D01*
X29135876Y20896153D02*
X29231114Y20800915D01*
X29231114Y20800915D02*
X29278733Y20705677D01*
X2436905Y21135181D02*
X2436905Y22135181D01*
X2436905Y22135181D02*
X2675000Y22135181D01*
X2675000Y22135181D02*
X2817857Y22087562D01*
X2817857Y22087562D02*
X2913095Y21992324D01*
X2913095Y21992324D02*
X2960714Y21897086D01*
X2960714Y21897086D02*
X3008333Y21706610D01*
X3008333Y21706610D02*
X3008333Y21563753D01*
X3008333Y21563753D02*
X2960714Y21373277D01*
X2960714Y21373277D02*
X2913095Y21278039D01*
X2913095Y21278039D02*
X2817857Y21182800D01*
X2817857Y21182800D02*
X2675000Y21135181D01*
X2675000Y21135181D02*
X2436905Y21135181D01*
X3341667Y22135181D02*
X3960714Y22135181D01*
X3960714Y22135181D02*
X3627381Y21754229D01*
X3627381Y21754229D02*
X3770238Y21754229D01*
X3770238Y21754229D02*
X3865476Y21706610D01*
X3865476Y21706610D02*
X3913095Y21658991D01*
X3913095Y21658991D02*
X3960714Y21563753D01*
X3960714Y21563753D02*
X3960714Y21325658D01*
X3960714Y21325658D02*
X3913095Y21230420D01*
X3913095Y21230420D02*
X3865476Y21182800D01*
X3865476Y21182800D02*
X3770238Y21135181D01*
X3770238Y21135181D02*
X3484524Y21135181D01*
X3484524Y21135181D02*
X3389286Y21182800D01*
X3389286Y21182800D02*
X3341667Y21230420D01*
X2436905Y18214181D02*
X2436905Y19214181D01*
X2436905Y19214181D02*
X2675000Y19214181D01*
X2675000Y19214181D02*
X2817857Y19166562D01*
X2817857Y19166562D02*
X2913095Y19071324D01*
X2913095Y19071324D02*
X2960714Y18976086D01*
X2960714Y18976086D02*
X3008333Y18785610D01*
X3008333Y18785610D02*
X3008333Y18642753D01*
X3008333Y18642753D02*
X2960714Y18452277D01*
X2960714Y18452277D02*
X2913095Y18357039D01*
X2913095Y18357039D02*
X2817857Y18261800D01*
X2817857Y18261800D02*
X2675000Y18214181D01*
X2675000Y18214181D02*
X2436905Y18214181D01*
X3389286Y19118943D02*
X3436905Y19166562D01*
X3436905Y19166562D02*
X3532143Y19214181D01*
X3532143Y19214181D02*
X3770238Y19214181D01*
X3770238Y19214181D02*
X3865476Y19166562D01*
X3865476Y19166562D02*
X3913095Y19118943D01*
X3913095Y19118943D02*
X3960714Y19023705D01*
X3960714Y19023705D02*
X3960714Y18928467D01*
X3960714Y18928467D02*
X3913095Y18785610D01*
X3913095Y18785610D02*
X3341667Y18214181D01*
X3341667Y18214181D02*
X3960714Y18214181D01*
X5651833Y17833181D02*
X5318500Y18309372D01*
X5080405Y17833181D02*
X5080405Y18833181D01*
X5080405Y18833181D02*
X5461357Y18833181D01*
X5461357Y18833181D02*
X5556595Y18785562D01*
X5556595Y18785562D02*
X5604214Y18737943D01*
X5604214Y18737943D02*
X5651833Y18642705D01*
X5651833Y18642705D02*
X5651833Y18499848D01*
X5651833Y18499848D02*
X5604214Y18404610D01*
X5604214Y18404610D02*
X5556595Y18356991D01*
X5556595Y18356991D02*
X5461357Y18309372D01*
X5461357Y18309372D02*
X5080405Y18309372D01*
X6508976Y18833181D02*
X6318500Y18833181D01*
X6318500Y18833181D02*
X6223262Y18785562D01*
X6223262Y18785562D02*
X6175643Y18737943D01*
X6175643Y18737943D02*
X6080405Y18595086D01*
X6080405Y18595086D02*
X6032786Y18404610D01*
X6032786Y18404610D02*
X6032786Y18023658D01*
X6032786Y18023658D02*
X6080405Y17928420D01*
X6080405Y17928420D02*
X6128024Y17880800D01*
X6128024Y17880800D02*
X6223262Y17833181D01*
X6223262Y17833181D02*
X6413738Y17833181D01*
X6413738Y17833181D02*
X6508976Y17880800D01*
X6508976Y17880800D02*
X6556595Y17928420D01*
X6556595Y17928420D02*
X6604214Y18023658D01*
X6604214Y18023658D02*
X6604214Y18261753D01*
X6604214Y18261753D02*
X6556595Y18356991D01*
X6556595Y18356991D02*
X6508976Y18404610D01*
X6508976Y18404610D02*
X6413738Y18452229D01*
X6413738Y18452229D02*
X6223262Y18452229D01*
X6223262Y18452229D02*
X6128024Y18404610D01*
X6128024Y18404610D02*
X6080405Y18356991D01*
X6080405Y18356991D02*
X6032786Y18261753D01*
X20306933Y16023420D02*
X20259314Y15975800D01*
X20259314Y15975800D02*
X20116457Y15928181D01*
X20116457Y15928181D02*
X20021219Y15928181D01*
X20021219Y15928181D02*
X19878362Y15975800D01*
X19878362Y15975800D02*
X19783124Y16071039D01*
X19783124Y16071039D02*
X19735505Y16166277D01*
X19735505Y16166277D02*
X19687886Y16356753D01*
X19687886Y16356753D02*
X19687886Y16499610D01*
X19687886Y16499610D02*
X19735505Y16690086D01*
X19735505Y16690086D02*
X19783124Y16785324D01*
X19783124Y16785324D02*
X19878362Y16880562D01*
X19878362Y16880562D02*
X20021219Y16928181D01*
X20021219Y16928181D02*
X20116457Y16928181D01*
X20116457Y16928181D02*
X20259314Y16880562D01*
X20259314Y16880562D02*
X20306933Y16832943D01*
X20783124Y15928181D02*
X20973600Y15928181D01*
X20973600Y15928181D02*
X21068838Y15975800D01*
X21068838Y15975800D02*
X21116457Y16023420D01*
X21116457Y16023420D02*
X21211695Y16166277D01*
X21211695Y16166277D02*
X21259314Y16356753D01*
X21259314Y16356753D02*
X21259314Y16737705D01*
X21259314Y16737705D02*
X21211695Y16832943D01*
X21211695Y16832943D02*
X21164076Y16880562D01*
X21164076Y16880562D02*
X21068838Y16928181D01*
X21068838Y16928181D02*
X20878362Y16928181D01*
X20878362Y16928181D02*
X20783124Y16880562D01*
X20783124Y16880562D02*
X20735505Y16832943D01*
X20735505Y16832943D02*
X20687886Y16737705D01*
X20687886Y16737705D02*
X20687886Y16499610D01*
X20687886Y16499610D02*
X20735505Y16404372D01*
X20735505Y16404372D02*
X20783124Y16356753D01*
X20783124Y16356753D02*
X20878362Y16309134D01*
X20878362Y16309134D02*
X21068838Y16309134D01*
X21068838Y16309134D02*
X21164076Y16356753D01*
X21164076Y16356753D02*
X21211695Y16404372D01*
X21211695Y16404372D02*
X21259314Y16499610D01*
X6312819Y5127667D02*
X7027104Y5127667D01*
X7027104Y5127667D02*
X7169961Y5080048D01*
X7169961Y5080048D02*
X7265200Y4984810D01*
X7265200Y4984810D02*
X7312819Y4841953D01*
X7312819Y4841953D02*
X7312819Y4746715D01*
X6408057Y5556239D02*
X6360438Y5603858D01*
X6360438Y5603858D02*
X6312819Y5699096D01*
X6312819Y5699096D02*
X6312819Y5937191D01*
X6312819Y5937191D02*
X6360438Y6032429D01*
X6360438Y6032429D02*
X6408057Y6080048D01*
X6408057Y6080048D02*
X6503295Y6127667D01*
X6503295Y6127667D02*
X6598533Y6127667D01*
X6598533Y6127667D02*
X6741390Y6080048D01*
X6741390Y6080048D02*
X7312819Y5508620D01*
X7312819Y5508620D02*
X7312819Y6127667D01*
X12575157Y9479829D02*
X12146585Y9179829D01*
X12575157Y8965543D02*
X11675157Y8965543D01*
X11675157Y8965543D02*
X11675157Y9308400D01*
X11675157Y9308400D02*
X11718014Y9394115D01*
X11718014Y9394115D02*
X11760871Y9436972D01*
X11760871Y9436972D02*
X11846585Y9479829D01*
X11846585Y9479829D02*
X11975157Y9479829D01*
X11975157Y9479829D02*
X12060871Y9436972D01*
X12060871Y9436972D02*
X12103728Y9394115D01*
X12103728Y9394115D02*
X12146585Y9308400D01*
X12146585Y9308400D02*
X12146585Y8965543D01*
X12575157Y10336972D02*
X12575157Y9822686D01*
X12575157Y10079829D02*
X11675157Y10079829D01*
X11675157Y10079829D02*
X11803728Y9994115D01*
X11803728Y9994115D02*
X11889442Y9908400D01*
X11889442Y9908400D02*
X11932300Y9822686D01*
X11675157Y10894115D02*
X11675157Y10979829D01*
X11675157Y10979829D02*
X11718014Y11065543D01*
X11718014Y11065543D02*
X11760871Y11108400D01*
X11760871Y11108400D02*
X11846585Y11151258D01*
X11846585Y11151258D02*
X12018014Y11194115D01*
X12018014Y11194115D02*
X12232300Y11194115D01*
X12232300Y11194115D02*
X12403728Y11151258D01*
X12403728Y11151258D02*
X12489442Y11108400D01*
X12489442Y11108400D02*
X12532300Y11065543D01*
X12532300Y11065543D02*
X12575157Y10979829D01*
X12575157Y10979829D02*
X12575157Y10894115D01*
X12575157Y10894115D02*
X12532300Y10808400D01*
X12532300Y10808400D02*
X12489442Y10765543D01*
X12489442Y10765543D02*
X12403728Y10722686D01*
X12403728Y10722686D02*
X12232300Y10679829D01*
X12232300Y10679829D02*
X12018014Y10679829D01*
X12018014Y10679829D02*
X11846585Y10722686D01*
X11846585Y10722686D02*
X11760871Y10765543D01*
X11760871Y10765543D02*
X11718014Y10808400D01*
X11718014Y10808400D02*
X11675157Y10894115D01*
D10*
X60019379Y7231143D02*
X59543188Y6897810D01*
X60019379Y6659715D02*
X59019379Y6659715D01*
X59019379Y6659715D02*
X59019379Y7040667D01*
X59019379Y7040667D02*
X59066998Y7135905D01*
X59066998Y7135905D02*
X59114617Y7183524D01*
X59114617Y7183524D02*
X59209855Y7231143D01*
X59209855Y7231143D02*
X59352712Y7231143D01*
X59352712Y7231143D02*
X59447950Y7183524D01*
X59447950Y7183524D02*
X59495569Y7135905D01*
X59495569Y7135905D02*
X59543188Y7040667D01*
X59543188Y7040667D02*
X59543188Y6659715D01*
X60019379Y8183524D02*
X60019379Y7612096D01*
X60019379Y7897810D02*
X59019379Y7897810D01*
X59019379Y7897810D02*
X59162236Y7802572D01*
X59162236Y7802572D02*
X59257474Y7707334D01*
X59257474Y7707334D02*
X59305093Y7612096D01*
X60019379Y8659715D02*
X60019379Y8850191D01*
X60019379Y8850191D02*
X59971760Y8945429D01*
X59971760Y8945429D02*
X59924140Y8993048D01*
X59924140Y8993048D02*
X59781283Y9088286D01*
X59781283Y9088286D02*
X59590807Y9135905D01*
X59590807Y9135905D02*
X59209855Y9135905D01*
X59209855Y9135905D02*
X59114617Y9088286D01*
X59114617Y9088286D02*
X59066998Y9040667D01*
X59066998Y9040667D02*
X59019379Y8945429D01*
X59019379Y8945429D02*
X59019379Y8754953D01*
X59019379Y8754953D02*
X59066998Y8659715D01*
X59066998Y8659715D02*
X59114617Y8612096D01*
X59114617Y8612096D02*
X59209855Y8564477D01*
X59209855Y8564477D02*
X59447950Y8564477D01*
X59447950Y8564477D02*
X59543188Y8612096D01*
X59543188Y8612096D02*
X59590807Y8659715D01*
X59590807Y8659715D02*
X59638426Y8754953D01*
X59638426Y8754953D02*
X59638426Y8945429D01*
X59638426Y8945429D02*
X59590807Y9040667D01*
X59590807Y9040667D02*
X59543188Y9088286D01*
X59543188Y9088286D02*
X59447950Y9135905D01*
D11*
X4804580Y11771334D02*
X4852200Y11723715D01*
X4852200Y11723715D02*
X4899819Y11580858D01*
X4899819Y11580858D02*
X4899819Y11485620D01*
X4899819Y11485620D02*
X4852200Y11342763D01*
X4852200Y11342763D02*
X4756961Y11247525D01*
X4756961Y11247525D02*
X4661723Y11199906D01*
X4661723Y11199906D02*
X4471247Y11152287D01*
X4471247Y11152287D02*
X4328390Y11152287D01*
X4328390Y11152287D02*
X4137914Y11199906D01*
X4137914Y11199906D02*
X4042676Y11247525D01*
X4042676Y11247525D02*
X3947438Y11342763D01*
X3947438Y11342763D02*
X3899819Y11485620D01*
X3899819Y11485620D02*
X3899819Y11580858D01*
X3899819Y11580858D02*
X3947438Y11723715D01*
X3947438Y11723715D02*
X3995057Y11771334D01*
X4233152Y12628477D02*
X4899819Y12628477D01*
X3852200Y12390382D02*
X4566485Y12152287D01*
X4566485Y12152287D02*
X4566485Y12771334D01*
X14437142Y10314781D02*
X14103809Y10790972D01*
X13865714Y10314781D02*
X13865714Y11314781D01*
X13865714Y11314781D02*
X14246666Y11314781D01*
X14246666Y11314781D02*
X14341904Y11267162D01*
X14341904Y11267162D02*
X14389523Y11219543D01*
X14389523Y11219543D02*
X14437142Y11124305D01*
X14437142Y11124305D02*
X14437142Y10981448D01*
X14437142Y10981448D02*
X14389523Y10886210D01*
X14389523Y10886210D02*
X14341904Y10838591D01*
X14341904Y10838591D02*
X14246666Y10790972D01*
X14246666Y10790972D02*
X13865714Y10790972D01*
X15389523Y10314781D02*
X14818095Y10314781D01*
X15103809Y10314781D02*
X15103809Y11314781D01*
X15103809Y11314781D02*
X15008571Y11171924D01*
X15008571Y11171924D02*
X14913333Y11076686D01*
X14913333Y11076686D02*
X14818095Y11029067D01*
X16341904Y10314781D02*
X15770476Y10314781D01*
X16056190Y10314781D02*
X16056190Y11314781D01*
X16056190Y11314781D02*
X15960952Y11171924D01*
X15960952Y11171924D02*
X15865714Y11076686D01*
X15865714Y11076686D02*
X15770476Y11029067D01*
X31911819Y19372343D02*
X31435628Y19039010D01*
X31911819Y18800915D02*
X30911819Y18800915D01*
X30911819Y18800915D02*
X30911819Y19181867D01*
X30911819Y19181867D02*
X30959438Y19277105D01*
X30959438Y19277105D02*
X31007057Y19324724D01*
X31007057Y19324724D02*
X31102295Y19372343D01*
X31102295Y19372343D02*
X31245152Y19372343D01*
X31245152Y19372343D02*
X31340390Y19324724D01*
X31340390Y19324724D02*
X31388009Y19277105D01*
X31388009Y19277105D02*
X31435628Y19181867D01*
X31435628Y19181867D02*
X31435628Y18800915D01*
X31007057Y19753296D02*
X30959438Y19800915D01*
X30959438Y19800915D02*
X30911819Y19896153D01*
X30911819Y19896153D02*
X30911819Y20134248D01*
X30911819Y20134248D02*
X30959438Y20229486D01*
X30959438Y20229486D02*
X31007057Y20277105D01*
X31007057Y20277105D02*
X31102295Y20324724D01*
X31102295Y20324724D02*
X31197533Y20324724D01*
X31197533Y20324724D02*
X31340390Y20277105D01*
X31340390Y20277105D02*
X31911819Y19705677D01*
X31911819Y19705677D02*
X31911819Y20324724D01*
X30911819Y20943772D02*
X30911819Y21039010D01*
X30911819Y21039010D02*
X30959438Y21134248D01*
X30959438Y21134248D02*
X31007057Y21181867D01*
X31007057Y21181867D02*
X31102295Y21229486D01*
X31102295Y21229486D02*
X31292771Y21277105D01*
X31292771Y21277105D02*
X31530866Y21277105D01*
X31530866Y21277105D02*
X31721342Y21229486D01*
X31721342Y21229486D02*
X31816580Y21181867D01*
X31816580Y21181867D02*
X31864200Y21134248D01*
X31864200Y21134248D02*
X31911819Y21039010D01*
X31911819Y21039010D02*
X31911819Y20943772D01*
X31911819Y20943772D02*
X31864200Y20848534D01*
X31864200Y20848534D02*
X31816580Y20800915D01*
X31816580Y20800915D02*
X31721342Y20753296D01*
X31721342Y20753296D02*
X31530866Y20705677D01*
X31530866Y20705677D02*
X31292771Y20705677D01*
X31292771Y20705677D02*
X31102295Y20753296D01*
X31102295Y20753296D02*
X31007057Y20800915D01*
X31007057Y20800915D02*
X30959438Y20848534D01*
X30959438Y20848534D02*
X30911819Y20943772D01*
D10*
X57352379Y9136143D02*
X56876188Y8802810D01*
X57352379Y8564715D02*
X56352379Y8564715D01*
X56352379Y8564715D02*
X56352379Y8945667D01*
X56352379Y8945667D02*
X56399998Y9040905D01*
X56399998Y9040905D02*
X56447617Y9088524D01*
X56447617Y9088524D02*
X56542855Y9136143D01*
X56542855Y9136143D02*
X56685712Y9136143D01*
X56685712Y9136143D02*
X56780950Y9088524D01*
X56780950Y9088524D02*
X56828569Y9040905D01*
X56828569Y9040905D02*
X56876188Y8945667D01*
X56876188Y8945667D02*
X56876188Y8564715D01*
X57352379Y10088524D02*
X57352379Y9517096D01*
X57352379Y9802810D02*
X56352379Y9802810D01*
X56352379Y9802810D02*
X56495236Y9707572D01*
X56495236Y9707572D02*
X56590474Y9612334D01*
X56590474Y9612334D02*
X56638093Y9517096D01*
X56352379Y10421858D02*
X56352379Y11088524D01*
X56352379Y11088524D02*
X57352379Y10659953D01*
D11*
X36547580Y21718334D02*
X36595200Y21670715D01*
X36595200Y21670715D02*
X36642819Y21527858D01*
X36642819Y21527858D02*
X36642819Y21432620D01*
X36642819Y21432620D02*
X36595200Y21289763D01*
X36595200Y21289763D02*
X36499961Y21194525D01*
X36499961Y21194525D02*
X36404723Y21146906D01*
X36404723Y21146906D02*
X36214247Y21099287D01*
X36214247Y21099287D02*
X36071390Y21099287D01*
X36071390Y21099287D02*
X35880914Y21146906D01*
X35880914Y21146906D02*
X35785676Y21194525D01*
X35785676Y21194525D02*
X35690438Y21289763D01*
X35690438Y21289763D02*
X35642819Y21432620D01*
X35642819Y21432620D02*
X35642819Y21527858D01*
X35642819Y21527858D02*
X35690438Y21670715D01*
X35690438Y21670715D02*
X35738057Y21718334D01*
X36642819Y22670715D02*
X36642819Y22099287D01*
X36642819Y22385001D02*
X35642819Y22385001D01*
X35642819Y22385001D02*
X35785676Y22289763D01*
X35785676Y22289763D02*
X35880914Y22194525D01*
X35880914Y22194525D02*
X35928533Y22099287D01*
X33474819Y18813543D02*
X32998628Y18480210D01*
X33474819Y18242115D02*
X32474819Y18242115D01*
X32474819Y18242115D02*
X32474819Y18623067D01*
X32474819Y18623067D02*
X32522438Y18718305D01*
X32522438Y18718305D02*
X32570057Y18765924D01*
X32570057Y18765924D02*
X32665295Y18813543D01*
X32665295Y18813543D02*
X32808152Y18813543D01*
X32808152Y18813543D02*
X32903390Y18765924D01*
X32903390Y18765924D02*
X32951009Y18718305D01*
X32951009Y18718305D02*
X32998628Y18623067D01*
X32998628Y18623067D02*
X32998628Y18242115D01*
X32570057Y19194496D02*
X32522438Y19242115D01*
X32522438Y19242115D02*
X32474819Y19337353D01*
X32474819Y19337353D02*
X32474819Y19575448D01*
X32474819Y19575448D02*
X32522438Y19670686D01*
X32522438Y19670686D02*
X32570057Y19718305D01*
X32570057Y19718305D02*
X32665295Y19765924D01*
X32665295Y19765924D02*
X32760533Y19765924D01*
X32760533Y19765924D02*
X32903390Y19718305D01*
X32903390Y19718305D02*
X33474819Y19146877D01*
X33474819Y19146877D02*
X33474819Y19765924D01*
X32474819Y20099258D02*
X32474819Y20718305D01*
X32474819Y20718305D02*
X32855771Y20384972D01*
X32855771Y20384972D02*
X32855771Y20527829D01*
X32855771Y20527829D02*
X32903390Y20623067D01*
X32903390Y20623067D02*
X32951009Y20670686D01*
X32951009Y20670686D02*
X33046247Y20718305D01*
X33046247Y20718305D02*
X33284342Y20718305D01*
X33284342Y20718305D02*
X33379580Y20670686D01*
X33379580Y20670686D02*
X33427200Y20623067D01*
X33427200Y20623067D02*
X33474819Y20527829D01*
X33474819Y20527829D02*
X33474819Y20242115D01*
X33474819Y20242115D02*
X33427200Y20146877D01*
X33427200Y20146877D02*
X33379580Y20099258D01*
X26071533Y14626420D02*
X26023914Y14578800D01*
X26023914Y14578800D02*
X25881057Y14531181D01*
X25881057Y14531181D02*
X25785819Y14531181D01*
X25785819Y14531181D02*
X25642962Y14578800D01*
X25642962Y14578800D02*
X25547724Y14674039D01*
X25547724Y14674039D02*
X25500105Y14769277D01*
X25500105Y14769277D02*
X25452486Y14959753D01*
X25452486Y14959753D02*
X25452486Y15102610D01*
X25452486Y15102610D02*
X25500105Y15293086D01*
X25500105Y15293086D02*
X25547724Y15388324D01*
X25547724Y15388324D02*
X25642962Y15483562D01*
X25642962Y15483562D02*
X25785819Y15531181D01*
X25785819Y15531181D02*
X25881057Y15531181D01*
X25881057Y15531181D02*
X26023914Y15483562D01*
X26023914Y15483562D02*
X26071533Y15435943D01*
X26452486Y15435943D02*
X26500105Y15483562D01*
X26500105Y15483562D02*
X26595343Y15531181D01*
X26595343Y15531181D02*
X26833438Y15531181D01*
X26833438Y15531181D02*
X26928676Y15483562D01*
X26928676Y15483562D02*
X26976295Y15435943D01*
X26976295Y15435943D02*
X27023914Y15340705D01*
X27023914Y15340705D02*
X27023914Y15245467D01*
X27023914Y15245467D02*
X26976295Y15102610D01*
X26976295Y15102610D02*
X26404867Y14531181D01*
X26404867Y14531181D02*
X27023914Y14531181D01*
X16756142Y8962220D02*
X16708523Y8914600D01*
X16708523Y8914600D02*
X16565666Y8866981D01*
X16565666Y8866981D02*
X16470428Y8866981D01*
X16470428Y8866981D02*
X16327571Y8914600D01*
X16327571Y8914600D02*
X16232333Y9009839D01*
X16232333Y9009839D02*
X16184714Y9105077D01*
X16184714Y9105077D02*
X16137095Y9295553D01*
X16137095Y9295553D02*
X16137095Y9438410D01*
X16137095Y9438410D02*
X16184714Y9628886D01*
X16184714Y9628886D02*
X16232333Y9724124D01*
X16232333Y9724124D02*
X16327571Y9819362D01*
X16327571Y9819362D02*
X16470428Y9866981D01*
X16470428Y9866981D02*
X16565666Y9866981D01*
X16565666Y9866981D02*
X16708523Y9819362D01*
X16708523Y9819362D02*
X16756142Y9771743D01*
X17708523Y8866981D02*
X17137095Y8866981D01*
X17422809Y8866981D02*
X17422809Y9866981D01*
X17422809Y9866981D02*
X17327571Y9724124D01*
X17327571Y9724124D02*
X17232333Y9628886D01*
X17232333Y9628886D02*
X17137095Y9581267D01*
X18327571Y9866981D02*
X18422809Y9866981D01*
X18422809Y9866981D02*
X18518047Y9819362D01*
X18518047Y9819362D02*
X18565666Y9771743D01*
X18565666Y9771743D02*
X18613285Y9676505D01*
X18613285Y9676505D02*
X18660904Y9486029D01*
X18660904Y9486029D02*
X18660904Y9247934D01*
X18660904Y9247934D02*
X18613285Y9057458D01*
X18613285Y9057458D02*
X18565666Y8962220D01*
X18565666Y8962220D02*
X18518047Y8914600D01*
X18518047Y8914600D02*
X18422809Y8866981D01*
X18422809Y8866981D02*
X18327571Y8866981D01*
X18327571Y8866981D02*
X18232333Y8914600D01*
X18232333Y8914600D02*
X18184714Y8962220D01*
X18184714Y8962220D02*
X18137095Y9057458D01*
X18137095Y9057458D02*
X18089476Y9247934D01*
X18089476Y9247934D02*
X18089476Y9486029D01*
X18089476Y9486029D02*
X18137095Y9676505D01*
X18137095Y9676505D02*
X18184714Y9771743D01*
X18184714Y9771743D02*
X18232333Y9819362D01*
X18232333Y9819362D02*
X18327571Y9866981D01*
X12534819Y22183334D02*
X12058628Y21850001D01*
X12534819Y21611906D02*
X11534819Y21611906D01*
X11534819Y21611906D02*
X11534819Y21992858D01*
X11534819Y21992858D02*
X11582438Y22088096D01*
X11582438Y22088096D02*
X11630057Y22135715D01*
X11630057Y22135715D02*
X11725295Y22183334D01*
X11725295Y22183334D02*
X11868152Y22183334D01*
X11868152Y22183334D02*
X11963390Y22135715D01*
X11963390Y22135715D02*
X12011009Y22088096D01*
X12011009Y22088096D02*
X12058628Y21992858D01*
X12058628Y21992858D02*
X12058628Y21611906D01*
X11534819Y23088096D02*
X11534819Y22611906D01*
X11534819Y22611906D02*
X12011009Y22564287D01*
X12011009Y22564287D02*
X11963390Y22611906D01*
X11963390Y22611906D02*
X11915771Y22707144D01*
X11915771Y22707144D02*
X11915771Y22945239D01*
X11915771Y22945239D02*
X11963390Y23040477D01*
X11963390Y23040477D02*
X12011009Y23088096D01*
X12011009Y23088096D02*
X12106247Y23135715D01*
X12106247Y23135715D02*
X12344342Y23135715D01*
X12344342Y23135715D02*
X12439580Y23088096D01*
X12439580Y23088096D02*
X12487200Y23040477D01*
X12487200Y23040477D02*
X12534819Y22945239D01*
X12534819Y22945239D02*
X12534819Y22707144D01*
X12534819Y22707144D02*
X12487200Y22611906D01*
X12487200Y22611906D02*
X12439580Y22564287D01*
X4873666Y9593991D02*
X4540333Y9593991D01*
X4540333Y9070181D02*
X4540333Y10070181D01*
X4540333Y10070181D02*
X5016523Y10070181D01*
X5921285Y9070181D02*
X5349857Y9070181D01*
X5635571Y9070181D02*
X5635571Y10070181D01*
X5635571Y10070181D02*
X5540333Y9927324D01*
X5540333Y9927324D02*
X5445095Y9832086D01*
X5445095Y9832086D02*
X5349857Y9784467D01*
X51943095Y10197181D02*
X51943095Y9387658D01*
X51943095Y9387658D02*
X51990714Y9292420D01*
X51990714Y9292420D02*
X52038333Y9244800D01*
X52038333Y9244800D02*
X52133571Y9197181D01*
X52133571Y9197181D02*
X52324047Y9197181D01*
X52324047Y9197181D02*
X52419285Y9244800D01*
X52419285Y9244800D02*
X52466904Y9292420D01*
X52466904Y9292420D02*
X52514523Y9387658D01*
X52514523Y9387658D02*
X52514523Y10197181D01*
X53133571Y9768610D02*
X53038333Y9816229D01*
X53038333Y9816229D02*
X52990714Y9863848D01*
X52990714Y9863848D02*
X52943095Y9959086D01*
X52943095Y9959086D02*
X52943095Y10006705D01*
X52943095Y10006705D02*
X52990714Y10101943D01*
X52990714Y10101943D02*
X53038333Y10149562D01*
X53038333Y10149562D02*
X53133571Y10197181D01*
X53133571Y10197181D02*
X53324047Y10197181D01*
X53324047Y10197181D02*
X53419285Y10149562D01*
X53419285Y10149562D02*
X53466904Y10101943D01*
X53466904Y10101943D02*
X53514523Y10006705D01*
X53514523Y10006705D02*
X53514523Y9959086D01*
X53514523Y9959086D02*
X53466904Y9863848D01*
X53466904Y9863848D02*
X53419285Y9816229D01*
X53419285Y9816229D02*
X53324047Y9768610D01*
X53324047Y9768610D02*
X53133571Y9768610D01*
X53133571Y9768610D02*
X53038333Y9720991D01*
X53038333Y9720991D02*
X52990714Y9673372D01*
X52990714Y9673372D02*
X52943095Y9578134D01*
X52943095Y9578134D02*
X52943095Y9387658D01*
X52943095Y9387658D02*
X52990714Y9292420D01*
X52990714Y9292420D02*
X53038333Y9244800D01*
X53038333Y9244800D02*
X53133571Y9197181D01*
X53133571Y9197181D02*
X53324047Y9197181D01*
X53324047Y9197181D02*
X53419285Y9244800D01*
X53419285Y9244800D02*
X53466904Y9292420D01*
X53466904Y9292420D02*
X53514523Y9387658D01*
X53514523Y9387658D02*
X53514523Y9578134D01*
X53514523Y9578134D02*
X53466904Y9673372D01*
X53466904Y9673372D02*
X53419285Y9720991D01*
X53419285Y9720991D02*
X53324047Y9768610D01*
X49796666Y23278181D02*
X49796666Y22563896D01*
X49796666Y22563896D02*
X49749047Y22421039D01*
X49749047Y22421039D02*
X49653809Y22325800D01*
X49653809Y22325800D02*
X49510952Y22278181D01*
X49510952Y22278181D02*
X49415714Y22278181D01*
X50177619Y23278181D02*
X50796666Y23278181D01*
X50796666Y23278181D02*
X50463333Y22897229D01*
X50463333Y22897229D02*
X50606190Y22897229D01*
X50606190Y22897229D02*
X50701428Y22849610D01*
X50701428Y22849610D02*
X50749047Y22801991D01*
X50749047Y22801991D02*
X50796666Y22706753D01*
X50796666Y22706753D02*
X50796666Y22468658D01*
X50796666Y22468658D02*
X50749047Y22373420D01*
X50749047Y22373420D02*
X50701428Y22325800D01*
X50701428Y22325800D02*
X50606190Y22278181D01*
X50606190Y22278181D02*
X50320476Y22278181D01*
X50320476Y22278181D02*
X50225238Y22325800D01*
X50225238Y22325800D02*
X50177619Y22373420D01*
D10*
X58622379Y9136143D02*
X58146188Y8802810D01*
X58622379Y8564715D02*
X57622379Y8564715D01*
X57622379Y8564715D02*
X57622379Y8945667D01*
X57622379Y8945667D02*
X57669998Y9040905D01*
X57669998Y9040905D02*
X57717617Y9088524D01*
X57717617Y9088524D02*
X57812855Y9136143D01*
X57812855Y9136143D02*
X57955712Y9136143D01*
X57955712Y9136143D02*
X58050950Y9088524D01*
X58050950Y9088524D02*
X58098569Y9040905D01*
X58098569Y9040905D02*
X58146188Y8945667D01*
X58146188Y8945667D02*
X58146188Y8564715D01*
X58622379Y10088524D02*
X58622379Y9517096D01*
X58622379Y9802810D02*
X57622379Y9802810D01*
X57622379Y9802810D02*
X57765236Y9707572D01*
X57765236Y9707572D02*
X57860474Y9612334D01*
X57860474Y9612334D02*
X57908093Y9517096D01*
X57622379Y10945667D02*
X57622379Y10755191D01*
X57622379Y10755191D02*
X57669998Y10659953D01*
X57669998Y10659953D02*
X57717617Y10612334D01*
X57717617Y10612334D02*
X57860474Y10517096D01*
X57860474Y10517096D02*
X58050950Y10469477D01*
X58050950Y10469477D02*
X58431902Y10469477D01*
X58431902Y10469477D02*
X58527140Y10517096D01*
X58527140Y10517096D02*
X58574760Y10564715D01*
X58574760Y10564715D02*
X58622379Y10659953D01*
X58622379Y10659953D02*
X58622379Y10850429D01*
X58622379Y10850429D02*
X58574760Y10945667D01*
X58574760Y10945667D02*
X58527140Y10993286D01*
X58527140Y10993286D02*
X58431902Y11040905D01*
X58431902Y11040905D02*
X58193807Y11040905D01*
X58193807Y11040905D02*
X58098569Y10993286D01*
X58098569Y10993286D02*
X58050950Y10945667D01*
X58050950Y10945667D02*
X58003331Y10850429D01*
X58003331Y10850429D02*
X58003331Y10659953D01*
X58003331Y10659953D02*
X58050950Y10564715D01*
X58050950Y10564715D02*
X58098569Y10517096D01*
X58098569Y10517096D02*
X58193807Y10469477D01*
X54633333Y10179860D02*
X54585714Y10132240D01*
X54585714Y10132240D02*
X54442857Y10084621D01*
X54442857Y10084621D02*
X54347619Y10084621D01*
X54347619Y10084621D02*
X54204762Y10132240D01*
X54204762Y10132240D02*
X54109524Y10227479D01*
X54109524Y10227479D02*
X54061905Y10322717D01*
X54061905Y10322717D02*
X54014286Y10513193D01*
X54014286Y10513193D02*
X54014286Y10656050D01*
X54014286Y10656050D02*
X54061905Y10846526D01*
X54061905Y10846526D02*
X54109524Y10941764D01*
X54109524Y10941764D02*
X54204762Y11037002D01*
X54204762Y11037002D02*
X54347619Y11084621D01*
X54347619Y11084621D02*
X54442857Y11084621D01*
X54442857Y11084621D02*
X54585714Y11037002D01*
X54585714Y11037002D02*
X54633333Y10989383D01*
X54966667Y11084621D02*
X55633333Y11084621D01*
X55633333Y11084621D02*
X55204762Y10084621D01*
D11*
X44310333Y20627181D02*
X43977000Y21103372D01*
X43738905Y20627181D02*
X43738905Y21627181D01*
X43738905Y21627181D02*
X44119857Y21627181D01*
X44119857Y21627181D02*
X44215095Y21579562D01*
X44215095Y21579562D02*
X44262714Y21531943D01*
X44262714Y21531943D02*
X44310333Y21436705D01*
X44310333Y21436705D02*
X44310333Y21293848D01*
X44310333Y21293848D02*
X44262714Y21198610D01*
X44262714Y21198610D02*
X44215095Y21150991D01*
X44215095Y21150991D02*
X44119857Y21103372D01*
X44119857Y21103372D02*
X43738905Y21103372D01*
X44691286Y21531943D02*
X44738905Y21579562D01*
X44738905Y21579562D02*
X44834143Y21627181D01*
X44834143Y21627181D02*
X45072238Y21627181D01*
X45072238Y21627181D02*
X45167476Y21579562D01*
X45167476Y21579562D02*
X45215095Y21531943D01*
X45215095Y21531943D02*
X45262714Y21436705D01*
X45262714Y21436705D02*
X45262714Y21341467D01*
X45262714Y21341467D02*
X45215095Y21198610D01*
X45215095Y21198610D02*
X44643667Y20627181D01*
X44643667Y20627181D02*
X45262714Y20627181D01*
X34395580Y11215334D02*
X34443200Y11167715D01*
X34443200Y11167715D02*
X34490819Y11024858D01*
X34490819Y11024858D02*
X34490819Y10929620D01*
X34490819Y10929620D02*
X34443200Y10786763D01*
X34443200Y10786763D02*
X34347961Y10691525D01*
X34347961Y10691525D02*
X34252723Y10643906D01*
X34252723Y10643906D02*
X34062247Y10596287D01*
X34062247Y10596287D02*
X33919390Y10596287D01*
X33919390Y10596287D02*
X33728914Y10643906D01*
X33728914Y10643906D02*
X33633676Y10691525D01*
X33633676Y10691525D02*
X33538438Y10786763D01*
X33538438Y10786763D02*
X33490819Y10929620D01*
X33490819Y10929620D02*
X33490819Y11024858D01*
X33490819Y11024858D02*
X33538438Y11167715D01*
X33538438Y11167715D02*
X33586057Y11215334D01*
X33919390Y11786763D02*
X33871771Y11691525D01*
X33871771Y11691525D02*
X33824152Y11643906D01*
X33824152Y11643906D02*
X33728914Y11596287D01*
X33728914Y11596287D02*
X33681295Y11596287D01*
X33681295Y11596287D02*
X33586057Y11643906D01*
X33586057Y11643906D02*
X33538438Y11691525D01*
X33538438Y11691525D02*
X33490819Y11786763D01*
X33490819Y11786763D02*
X33490819Y11977239D01*
X33490819Y11977239D02*
X33538438Y12072477D01*
X33538438Y12072477D02*
X33586057Y12120096D01*
X33586057Y12120096D02*
X33681295Y12167715D01*
X33681295Y12167715D02*
X33728914Y12167715D01*
X33728914Y12167715D02*
X33824152Y12120096D01*
X33824152Y12120096D02*
X33871771Y12072477D01*
X33871771Y12072477D02*
X33919390Y11977239D01*
X33919390Y11977239D02*
X33919390Y11786763D01*
X33919390Y11786763D02*
X33967009Y11691525D01*
X33967009Y11691525D02*
X34014628Y11643906D01*
X34014628Y11643906D02*
X34109866Y11596287D01*
X34109866Y11596287D02*
X34300342Y11596287D01*
X34300342Y11596287D02*
X34395580Y11643906D01*
X34395580Y11643906D02*
X34443200Y11691525D01*
X34443200Y11691525D02*
X34490819Y11786763D01*
X34490819Y11786763D02*
X34490819Y11977239D01*
X34490819Y11977239D02*
X34443200Y12072477D01*
X34443200Y12072477D02*
X34395580Y12120096D01*
X34395580Y12120096D02*
X34300342Y12167715D01*
X34300342Y12167715D02*
X34109866Y12167715D01*
X34109866Y12167715D02*
X34014628Y12120096D01*
X34014628Y12120096D02*
X33967009Y12072477D01*
X33967009Y12072477D02*
X33919390Y11977239D01*
X29860095Y9562181D02*
X29860095Y8752658D01*
X29860095Y8752658D02*
X29907714Y8657420D01*
X29907714Y8657420D02*
X29955333Y8609800D01*
X29955333Y8609800D02*
X30050571Y8562181D01*
X30050571Y8562181D02*
X30241047Y8562181D01*
X30241047Y8562181D02*
X30336285Y8609800D01*
X30336285Y8609800D02*
X30383904Y8657420D01*
X30383904Y8657420D02*
X30431523Y8752658D01*
X30431523Y8752658D02*
X30431523Y9562181D01*
X31383904Y9562181D02*
X30907714Y9562181D01*
X30907714Y9562181D02*
X30860095Y9085991D01*
X30860095Y9085991D02*
X30907714Y9133610D01*
X30907714Y9133610D02*
X31002952Y9181229D01*
X31002952Y9181229D02*
X31241047Y9181229D01*
X31241047Y9181229D02*
X31336285Y9133610D01*
X31336285Y9133610D02*
X31383904Y9085991D01*
X31383904Y9085991D02*
X31431523Y8990753D01*
X31431523Y8990753D02*
X31431523Y8752658D01*
X31431523Y8752658D02*
X31383904Y8657420D01*
X31383904Y8657420D02*
X31336285Y8609800D01*
X31336285Y8609800D02*
X31241047Y8562181D01*
X31241047Y8562181D02*
X31002952Y8562181D01*
X31002952Y8562181D02*
X30907714Y8609800D01*
X30907714Y8609800D02*
X30860095Y8657420D01*
D10*
X61289379Y7231143D02*
X60813188Y6897810D01*
X61289379Y6659715D02*
X60289379Y6659715D01*
X60289379Y6659715D02*
X60289379Y7040667D01*
X60289379Y7040667D02*
X60336998Y7135905D01*
X60336998Y7135905D02*
X60384617Y7183524D01*
X60384617Y7183524D02*
X60479855Y7231143D01*
X60479855Y7231143D02*
X60622712Y7231143D01*
X60622712Y7231143D02*
X60717950Y7183524D01*
X60717950Y7183524D02*
X60765569Y7135905D01*
X60765569Y7135905D02*
X60813188Y7040667D01*
X60813188Y7040667D02*
X60813188Y6659715D01*
X61289379Y8183524D02*
X61289379Y7612096D01*
X61289379Y7897810D02*
X60289379Y7897810D01*
X60289379Y7897810D02*
X60432236Y7802572D01*
X60432236Y7802572D02*
X60527474Y7707334D01*
X60527474Y7707334D02*
X60575093Y7612096D01*
X60717950Y8754953D02*
X60670331Y8659715D01*
X60670331Y8659715D02*
X60622712Y8612096D01*
X60622712Y8612096D02*
X60527474Y8564477D01*
X60527474Y8564477D02*
X60479855Y8564477D01*
X60479855Y8564477D02*
X60384617Y8612096D01*
X60384617Y8612096D02*
X60336998Y8659715D01*
X60336998Y8659715D02*
X60289379Y8754953D01*
X60289379Y8754953D02*
X60289379Y8945429D01*
X60289379Y8945429D02*
X60336998Y9040667D01*
X60336998Y9040667D02*
X60384617Y9088286D01*
X60384617Y9088286D02*
X60479855Y9135905D01*
X60479855Y9135905D02*
X60527474Y9135905D01*
X60527474Y9135905D02*
X60622712Y9088286D01*
X60622712Y9088286D02*
X60670331Y9040667D01*
X60670331Y9040667D02*
X60717950Y8945429D01*
X60717950Y8945429D02*
X60717950Y8754953D01*
X60717950Y8754953D02*
X60765569Y8659715D01*
X60765569Y8659715D02*
X60813188Y8612096D01*
X60813188Y8612096D02*
X60908426Y8564477D01*
X60908426Y8564477D02*
X61098902Y8564477D01*
X61098902Y8564477D02*
X61194140Y8612096D01*
X61194140Y8612096D02*
X61241760Y8659715D01*
X61241760Y8659715D02*
X61289379Y8754953D01*
X61289379Y8754953D02*
X61289379Y8945429D01*
X61289379Y8945429D02*
X61241760Y9040667D01*
X61241760Y9040667D02*
X61194140Y9088286D01*
X61194140Y9088286D02*
X61098902Y9135905D01*
X61098902Y9135905D02*
X60908426Y9135905D01*
X60908426Y9135905D02*
X60813188Y9088286D01*
X60813188Y9088286D02*
X60765569Y9040667D01*
X60765569Y9040667D02*
X60717950Y8945429D01*
D11*
X22961695Y4863181D02*
X22961695Y4053658D01*
X22961695Y4053658D02*
X23009314Y3958420D01*
X23009314Y3958420D02*
X23056933Y3910800D01*
X23056933Y3910800D02*
X23152171Y3863181D01*
X23152171Y3863181D02*
X23342647Y3863181D01*
X23342647Y3863181D02*
X23437885Y3910800D01*
X23437885Y3910800D02*
X23485504Y3958420D01*
X23485504Y3958420D02*
X23533123Y4053658D01*
X23533123Y4053658D02*
X23533123Y4863181D01*
X24437885Y4863181D02*
X24247409Y4863181D01*
X24247409Y4863181D02*
X24152171Y4815562D01*
X24152171Y4815562D02*
X24104552Y4767943D01*
X24104552Y4767943D02*
X24009314Y4625086D01*
X24009314Y4625086D02*
X23961695Y4434610D01*
X23961695Y4434610D02*
X23961695Y4053658D01*
X23961695Y4053658D02*
X24009314Y3958420D01*
X24009314Y3958420D02*
X24056933Y3910800D01*
X24056933Y3910800D02*
X24152171Y3863181D01*
X24152171Y3863181D02*
X24342647Y3863181D01*
X24342647Y3863181D02*
X24437885Y3910800D01*
X24437885Y3910800D02*
X24485504Y3958420D01*
X24485504Y3958420D02*
X24533123Y4053658D01*
X24533123Y4053658D02*
X24533123Y4291753D01*
X24533123Y4291753D02*
X24485504Y4386991D01*
X24485504Y4386991D02*
X24437885Y4434610D01*
X24437885Y4434610D02*
X24342647Y4482229D01*
X24342647Y4482229D02*
X24152171Y4482229D01*
X24152171Y4482229D02*
X24056933Y4434610D01*
X24056933Y4434610D02*
X24009314Y4386991D01*
X24009314Y4386991D02*
X23961695Y4291753D01*
X2436905Y15293181D02*
X2436905Y16293181D01*
X2436905Y16293181D02*
X2675000Y16293181D01*
X2675000Y16293181D02*
X2817857Y16245562D01*
X2817857Y16245562D02*
X2913095Y16150324D01*
X2913095Y16150324D02*
X2960714Y16055086D01*
X2960714Y16055086D02*
X3008333Y15864610D01*
X3008333Y15864610D02*
X3008333Y15721753D01*
X3008333Y15721753D02*
X2960714Y15531277D01*
X2960714Y15531277D02*
X2913095Y15436039D01*
X2913095Y15436039D02*
X2817857Y15340800D01*
X2817857Y15340800D02*
X2675000Y15293181D01*
X2675000Y15293181D02*
X2436905Y15293181D01*
X3865476Y15959848D02*
X3865476Y15293181D01*
X3627381Y16340800D02*
X3389286Y15626515D01*
X3389286Y15626515D02*
X4008333Y15626515D01*
X43442095Y18833181D02*
X44013523Y18833181D01*
X43727809Y17833181D02*
X43727809Y18833181D01*
X44346857Y17833181D02*
X44346857Y18833181D01*
X44346857Y18833181D02*
X44727809Y18833181D01*
X44727809Y18833181D02*
X44823047Y18785562D01*
X44823047Y18785562D02*
X44870666Y18737943D01*
X44870666Y18737943D02*
X44918285Y18642705D01*
X44918285Y18642705D02*
X44918285Y18499848D01*
X44918285Y18499848D02*
X44870666Y18404610D01*
X44870666Y18404610D02*
X44823047Y18356991D01*
X44823047Y18356991D02*
X44727809Y18309372D01*
X44727809Y18309372D02*
X44346857Y18309372D01*
X45870666Y17833181D02*
X45299238Y17833181D01*
X45584952Y17833181D02*
X45584952Y18833181D01*
X45584952Y18833181D02*
X45489714Y18690324D01*
X45489714Y18690324D02*
X45394476Y18595086D01*
X45394476Y18595086D02*
X45299238Y18547467D01*
X4913333Y22373420D02*
X4865714Y22325800D01*
X4865714Y22325800D02*
X4722857Y22278181D01*
X4722857Y22278181D02*
X4627619Y22278181D01*
X4627619Y22278181D02*
X4484762Y22325800D01*
X4484762Y22325800D02*
X4389524Y22421039D01*
X4389524Y22421039D02*
X4341905Y22516277D01*
X4341905Y22516277D02*
X4294286Y22706753D01*
X4294286Y22706753D02*
X4294286Y22849610D01*
X4294286Y22849610D02*
X4341905Y23040086D01*
X4341905Y23040086D02*
X4389524Y23135324D01*
X4389524Y23135324D02*
X4484762Y23230562D01*
X4484762Y23230562D02*
X4627619Y23278181D01*
X4627619Y23278181D02*
X4722857Y23278181D01*
X4722857Y23278181D02*
X4865714Y23230562D01*
X4865714Y23230562D02*
X4913333Y23182943D01*
X5818095Y23278181D02*
X5341905Y23278181D01*
X5341905Y23278181D02*
X5294286Y22801991D01*
X5294286Y22801991D02*
X5341905Y22849610D01*
X5341905Y22849610D02*
X5437143Y22897229D01*
X5437143Y22897229D02*
X5675238Y22897229D01*
X5675238Y22897229D02*
X5770476Y22849610D01*
X5770476Y22849610D02*
X5818095Y22801991D01*
X5818095Y22801991D02*
X5865714Y22706753D01*
X5865714Y22706753D02*
X5865714Y22468658D01*
X5865714Y22468658D02*
X5818095Y22373420D01*
X5818095Y22373420D02*
X5770476Y22325800D01*
X5770476Y22325800D02*
X5675238Y22278181D01*
X5675238Y22278181D02*
X5437143Y22278181D01*
X5437143Y22278181D02*
X5341905Y22325800D01*
X5341905Y22325800D02*
X5294286Y22373420D01*
X10042200Y11081758D02*
X9999343Y11038900D01*
X9999343Y11038900D02*
X9870771Y10996043D01*
X9870771Y10996043D02*
X9785057Y10996043D01*
X9785057Y10996043D02*
X9656486Y11038900D01*
X9656486Y11038900D02*
X9570771Y11124615D01*
X9570771Y11124615D02*
X9527914Y11210329D01*
X9527914Y11210329D02*
X9485057Y11381758D01*
X9485057Y11381758D02*
X9485057Y11510329D01*
X9485057Y11510329D02*
X9527914Y11681758D01*
X9527914Y11681758D02*
X9570771Y11767472D01*
X9570771Y11767472D02*
X9656486Y11853186D01*
X9656486Y11853186D02*
X9785057Y11896043D01*
X9785057Y11896043D02*
X9870771Y11896043D01*
X9870771Y11896043D02*
X9999343Y11853186D01*
X9999343Y11853186D02*
X10042200Y11810329D01*
X10813629Y11896043D02*
X10642200Y11896043D01*
X10642200Y11896043D02*
X10556486Y11853186D01*
X10556486Y11853186D02*
X10513629Y11810329D01*
X10513629Y11810329D02*
X10427914Y11681758D01*
X10427914Y11681758D02*
X10385057Y11510329D01*
X10385057Y11510329D02*
X10385057Y11167472D01*
X10385057Y11167472D02*
X10427914Y11081758D01*
X10427914Y11081758D02*
X10470771Y11038900D01*
X10470771Y11038900D02*
X10556486Y10996043D01*
X10556486Y10996043D02*
X10727914Y10996043D01*
X10727914Y10996043D02*
X10813629Y11038900D01*
X10813629Y11038900D02*
X10856486Y11081758D01*
X10856486Y11081758D02*
X10899343Y11167472D01*
X10899343Y11167472D02*
X10899343Y11381758D01*
X10899343Y11381758D02*
X10856486Y11467472D01*
X10856486Y11467472D02*
X10813629Y11510329D01*
X10813629Y11510329D02*
X10727914Y11553186D01*
X10727914Y11553186D02*
X10556486Y11553186D01*
X10556486Y11553186D02*
X10470771Y11510329D01*
X10470771Y11510329D02*
X10427914Y11467472D01*
X10427914Y11467472D02*
X10385057Y11381758D01*
X12176095Y12827181D02*
X12176095Y12017658D01*
X12176095Y12017658D02*
X12223714Y11922420D01*
X12223714Y11922420D02*
X12271333Y11874800D01*
X12271333Y11874800D02*
X12366571Y11827181D01*
X12366571Y11827181D02*
X12557047Y11827181D01*
X12557047Y11827181D02*
X12652285Y11874800D01*
X12652285Y11874800D02*
X12699904Y11922420D01*
X12699904Y11922420D02*
X12747523Y12017658D01*
X12747523Y12017658D02*
X12747523Y12827181D01*
X13652285Y12493848D02*
X13652285Y11827181D01*
X13414190Y12874800D02*
X13176095Y12160515D01*
X13176095Y12160515D02*
X13795142Y12160515D01*
X39045095Y15404181D02*
X39045095Y14594658D01*
X39045095Y14594658D02*
X39092714Y14499420D01*
X39092714Y14499420D02*
X39140333Y14451800D01*
X39140333Y14451800D02*
X39235571Y14404181D01*
X39235571Y14404181D02*
X39426047Y14404181D01*
X39426047Y14404181D02*
X39521285Y14451800D01*
X39521285Y14451800D02*
X39568904Y14499420D01*
X39568904Y14499420D02*
X39616523Y14594658D01*
X39616523Y14594658D02*
X39616523Y15404181D01*
X40616523Y14404181D02*
X40045095Y14404181D01*
X40330809Y14404181D02*
X40330809Y15404181D01*
X40330809Y15404181D02*
X40235571Y15261324D01*
X40235571Y15261324D02*
X40140333Y15166086D01*
X40140333Y15166086D02*
X40045095Y15118467D01*
X44310333Y21897181D02*
X43977000Y22373372D01*
X43738905Y21897181D02*
X43738905Y22897181D01*
X43738905Y22897181D02*
X44119857Y22897181D01*
X44119857Y22897181D02*
X44215095Y22849562D01*
X44215095Y22849562D02*
X44262714Y22801943D01*
X44262714Y22801943D02*
X44310333Y22706705D01*
X44310333Y22706705D02*
X44310333Y22563848D01*
X44310333Y22563848D02*
X44262714Y22468610D01*
X44262714Y22468610D02*
X44215095Y22420991D01*
X44215095Y22420991D02*
X44119857Y22373372D01*
X44119857Y22373372D02*
X43738905Y22373372D01*
X45262714Y21897181D02*
X44691286Y21897181D01*
X44977000Y21897181D02*
X44977000Y22897181D01*
X44977000Y22897181D02*
X44881762Y22754324D01*
X44881762Y22754324D02*
X44786524Y22659086D01*
X44786524Y22659086D02*
X44691286Y22611467D01*
X44310333Y19357181D02*
X43977000Y19833372D01*
X43738905Y19357181D02*
X43738905Y20357181D01*
X43738905Y20357181D02*
X44119857Y20357181D01*
X44119857Y20357181D02*
X44215095Y20309562D01*
X44215095Y20309562D02*
X44262714Y20261943D01*
X44262714Y20261943D02*
X44310333Y20166705D01*
X44310333Y20166705D02*
X44310333Y20023848D01*
X44310333Y20023848D02*
X44262714Y19928610D01*
X44262714Y19928610D02*
X44215095Y19880991D01*
X44215095Y19880991D02*
X44119857Y19833372D01*
X44119857Y19833372D02*
X43738905Y19833372D01*
X44643667Y20357181D02*
X45262714Y20357181D01*
X45262714Y20357181D02*
X44929381Y19976229D01*
X44929381Y19976229D02*
X45072238Y19976229D01*
X45072238Y19976229D02*
X45167476Y19928610D01*
X45167476Y19928610D02*
X45215095Y19880991D01*
X45215095Y19880991D02*
X45262714Y19785753D01*
X45262714Y19785753D02*
X45262714Y19547658D01*
X45262714Y19547658D02*
X45215095Y19452420D01*
X45215095Y19452420D02*
X45167476Y19404800D01*
X45167476Y19404800D02*
X45072238Y19357181D01*
X45072238Y19357181D02*
X44786524Y19357181D01*
X44786524Y19357181D02*
X44691286Y19404800D01*
X44691286Y19404800D02*
X44643667Y19452420D01*
X38608095Y3085181D02*
X38608095Y2275658D01*
X38608095Y2275658D02*
X38655714Y2180420D01*
X38655714Y2180420D02*
X38703333Y2132800D01*
X38703333Y2132800D02*
X38798571Y2085181D01*
X38798571Y2085181D02*
X38989047Y2085181D01*
X38989047Y2085181D02*
X39084285Y2132800D01*
X39084285Y2132800D02*
X39131904Y2180420D01*
X39131904Y2180420D02*
X39179523Y2275658D01*
X39179523Y2275658D02*
X39179523Y3085181D01*
X39608095Y2989943D02*
X39655714Y3037562D01*
X39655714Y3037562D02*
X39750952Y3085181D01*
X39750952Y3085181D02*
X39989047Y3085181D01*
X39989047Y3085181D02*
X40084285Y3037562D01*
X40084285Y3037562D02*
X40131904Y2989943D01*
X40131904Y2989943D02*
X40179523Y2894705D01*
X40179523Y2894705D02*
X40179523Y2799467D01*
X40179523Y2799467D02*
X40131904Y2656610D01*
X40131904Y2656610D02*
X39560476Y2085181D01*
X39560476Y2085181D02*
X40179523Y2085181D01*
X28272800Y6357858D02*
X28225180Y6229286D01*
X28225180Y6229286D02*
X28225180Y6015001D01*
X28225180Y6015001D02*
X28272800Y5929286D01*
X28272800Y5929286D02*
X28320419Y5886429D01*
X28320419Y5886429D02*
X28415657Y5843572D01*
X28415657Y5843572D02*
X28510895Y5843572D01*
X28510895Y5843572D02*
X28606133Y5886429D01*
X28606133Y5886429D02*
X28653752Y5929286D01*
X28653752Y5929286D02*
X28701371Y6015001D01*
X28701371Y6015001D02*
X28748990Y6186429D01*
X28748990Y6186429D02*
X28796609Y6272144D01*
X28796609Y6272144D02*
X28844228Y6315001D01*
X28844228Y6315001D02*
X28939466Y6357858D01*
X28939466Y6357858D02*
X29034704Y6357858D01*
X29034704Y6357858D02*
X29129942Y6315001D01*
X29129942Y6315001D02*
X29177561Y6272144D01*
X29177561Y6272144D02*
X29225180Y6186429D01*
X29225180Y6186429D02*
X29225180Y5972144D01*
X29225180Y5972144D02*
X29177561Y5843572D01*
X28225180Y5457858D02*
X29225180Y5457858D01*
X29225180Y5457858D02*
X29225180Y5243572D01*
X29225180Y5243572D02*
X29177561Y5115001D01*
X29177561Y5115001D02*
X29082323Y5029286D01*
X29082323Y5029286D02*
X28987085Y4986429D01*
X28987085Y4986429D02*
X28796609Y4943572D01*
X28796609Y4943572D02*
X28653752Y4943572D01*
X28653752Y4943572D02*
X28463276Y4986429D01*
X28463276Y4986429D02*
X28368038Y5029286D01*
X28368038Y5029286D02*
X28272800Y5115001D01*
X28272800Y5115001D02*
X28225180Y5243572D01*
X28225180Y5243572D02*
X28225180Y5457858D01*
X28510895Y4600715D02*
X28510895Y4172143D01*
X28225180Y4686429D02*
X29225180Y4386429D01*
X29225180Y4386429D02*
X28225180Y4086429D01*
X36797561Y5950714D02*
X36845180Y6036428D01*
X36845180Y6036428D02*
X36845180Y6165000D01*
X36845180Y6165000D02*
X36797561Y6293571D01*
X36797561Y6293571D02*
X36702323Y6379286D01*
X36702323Y6379286D02*
X36607085Y6422143D01*
X36607085Y6422143D02*
X36416609Y6465000D01*
X36416609Y6465000D02*
X36273752Y6465000D01*
X36273752Y6465000D02*
X36083276Y6422143D01*
X36083276Y6422143D02*
X35988038Y6379286D01*
X35988038Y6379286D02*
X35892800Y6293571D01*
X35892800Y6293571D02*
X35845180Y6165000D01*
X35845180Y6165000D02*
X35845180Y6079286D01*
X35845180Y6079286D02*
X35892800Y5950714D01*
X35892800Y5950714D02*
X35940419Y5907857D01*
X35940419Y5907857D02*
X36273752Y5907857D01*
X36273752Y5907857D02*
X36273752Y6079286D01*
X35845180Y5522143D02*
X36845180Y5522143D01*
X36845180Y5522143D02*
X35845180Y5007857D01*
X35845180Y5007857D02*
X36845180Y5007857D01*
X35845180Y4579286D02*
X36845180Y4579286D01*
X36845180Y4579286D02*
X36845180Y4365000D01*
X36845180Y4365000D02*
X36797561Y4236429D01*
X36797561Y4236429D02*
X36702323Y4150714D01*
X36702323Y4150714D02*
X36607085Y4107857D01*
X36607085Y4107857D02*
X36416609Y4065000D01*
X36416609Y4065000D02*
X36273752Y4065000D01*
X36273752Y4065000D02*
X36083276Y4107857D01*
X36083276Y4107857D02*
X35988038Y4150714D01*
X35988038Y4150714D02*
X35892800Y4236429D01*
X35892800Y4236429D02*
X35845180Y4365000D01*
X35845180Y4365000D02*
X35845180Y4579286D01*
X30812800Y6336429D02*
X30765180Y6207857D01*
X30765180Y6207857D02*
X30765180Y5993572D01*
X30765180Y5993572D02*
X30812800Y5907857D01*
X30812800Y5907857D02*
X30860419Y5865000D01*
X30860419Y5865000D02*
X30955657Y5822143D01*
X30955657Y5822143D02*
X31050895Y5822143D01*
X31050895Y5822143D02*
X31146133Y5865000D01*
X31146133Y5865000D02*
X31193752Y5907857D01*
X31193752Y5907857D02*
X31241371Y5993572D01*
X31241371Y5993572D02*
X31288990Y6165000D01*
X31288990Y6165000D02*
X31336609Y6250715D01*
X31336609Y6250715D02*
X31384228Y6293572D01*
X31384228Y6293572D02*
X31479466Y6336429D01*
X31479466Y6336429D02*
X31574704Y6336429D01*
X31574704Y6336429D02*
X31669942Y6293572D01*
X31669942Y6293572D02*
X31717561Y6250715D01*
X31717561Y6250715D02*
X31765180Y6165000D01*
X31765180Y6165000D02*
X31765180Y5950715D01*
X31765180Y5950715D02*
X31717561Y5822143D01*
X30860419Y4922143D02*
X30812800Y4965000D01*
X30812800Y4965000D02*
X30765180Y5093572D01*
X30765180Y5093572D02*
X30765180Y5179286D01*
X30765180Y5179286D02*
X30812800Y5307857D01*
X30812800Y5307857D02*
X30908038Y5393572D01*
X30908038Y5393572D02*
X31003276Y5436429D01*
X31003276Y5436429D02*
X31193752Y5479286D01*
X31193752Y5479286D02*
X31336609Y5479286D01*
X31336609Y5479286D02*
X31527085Y5436429D01*
X31527085Y5436429D02*
X31622323Y5393572D01*
X31622323Y5393572D02*
X31717561Y5307857D01*
X31717561Y5307857D02*
X31765180Y5179286D01*
X31765180Y5179286D02*
X31765180Y5093572D01*
X31765180Y5093572D02*
X31717561Y4965000D01*
X31717561Y4965000D02*
X31669942Y4922143D01*
X30765180Y4107857D02*
X30765180Y4536429D01*
X30765180Y4536429D02*
X31765180Y4536429D01*
X34305180Y6336429D02*
X33305180Y6036429D01*
X33305180Y6036429D02*
X34305180Y5736429D01*
X33352800Y5050714D02*
X33305180Y5136429D01*
X33305180Y5136429D02*
X33305180Y5307857D01*
X33305180Y5307857D02*
X33352800Y5393572D01*
X33352800Y5393572D02*
X33400419Y5436429D01*
X33400419Y5436429D02*
X33495657Y5479286D01*
X33495657Y5479286D02*
X33781371Y5479286D01*
X33781371Y5479286D02*
X33876609Y5436429D01*
X33876609Y5436429D02*
X33924228Y5393572D01*
X33924228Y5393572D02*
X33971847Y5307857D01*
X33971847Y5307857D02*
X33971847Y5136429D01*
X33971847Y5136429D02*
X33924228Y5050714D01*
X33352800Y4279285D02*
X33305180Y4365000D01*
X33305180Y4365000D02*
X33305180Y4536428D01*
X33305180Y4536428D02*
X33352800Y4622143D01*
X33352800Y4622143D02*
X33400419Y4665000D01*
X33400419Y4665000D02*
X33495657Y4707857D01*
X33495657Y4707857D02*
X33781371Y4707857D01*
X33781371Y4707857D02*
X33876609Y4665000D01*
X33876609Y4665000D02*
X33924228Y4622143D01*
X33924228Y4622143D02*
X33971847Y4536428D01*
X33971847Y4536428D02*
X33971847Y4365000D01*
X33971847Y4365000D02*
X33924228Y4279285D01*
D10*
X13070000Y22503641D02*
X13070000Y22196359D01*
X13830000Y22503641D02*
X13830000Y22196359D01*
X5664859Y14731000D02*
X5972141Y14731000D01*
X5664859Y13971000D02*
X5972141Y13971000D01*
X23908652Y17702200D02*
X23386148Y17702200D01*
X23908652Y16232200D02*
X23386148Y16232200D01*
X32640000Y17290641D02*
X32640000Y16983359D01*
X33400000Y17290641D02*
X33400000Y16983359D01*
X5664859Y20573000D02*
X5972141Y20573000D01*
X5664859Y19813000D02*
X5972141Y19813000D01*
X41872000Y16956000D02*
X43272000Y16956000D01*
X41872000Y15556000D02*
X41872000Y16956000D01*
X43272000Y16956000D02*
X43272000Y15556000D01*
X43272000Y15556000D02*
X41872000Y15556000D01*
X52410000Y21717000D02*
X53680000Y21717000D01*
X52410000Y20447000D02*
X52410000Y21717000D01*
X54757358Y18337000D02*
X55070000Y18337000D01*
X54757358Y17477000D02*
X55070000Y17477000D01*
X54757358Y15797000D02*
X55070000Y15797000D01*
X54757358Y14937000D02*
X55070000Y14937000D01*
X54757358Y13257000D02*
X55070000Y13257000D01*
X54757358Y12397000D02*
X55070000Y12397000D01*
X54840000Y20877000D02*
X55070000Y20877000D01*
X54840000Y20017000D02*
X55070000Y20017000D01*
X55070000Y21827000D02*
X55070000Y11447000D01*
X55070000Y19177000D02*
X57830000Y19177000D01*
X55070000Y16637000D02*
X57830000Y16637000D01*
X55070000Y14097000D02*
X57830000Y14097000D01*
X55070000Y11447000D02*
X57830000Y11447000D01*
X57830000Y21827000D02*
X55070000Y21827000D01*
X57830000Y18337000D02*
X63830000Y18337000D01*
X57830000Y15797000D02*
X63830000Y15797000D01*
X57830000Y13257000D02*
X63830000Y13257000D01*
X57830000Y11447000D02*
X57830000Y21827000D01*
X63830000Y18337000D02*
X63830000Y17477000D01*
X63830000Y17477000D02*
X57830000Y17477000D01*
X63830000Y15797000D02*
X63830000Y14937000D01*
X63830000Y14937000D02*
X57830000Y14937000D01*
X63830000Y13257000D02*
X63830000Y12397000D01*
X63830000Y12397000D02*
X57830000Y12397000D01*
X57830000Y20877000D02*
X63830000Y20877000D01*
X63830000Y20017000D01*
X57830000Y20017000D01*
X57830000Y20877000D01*
G36*
X57830000Y20877000D02*
G01*
X63830000Y20877000D01*
X63830000Y20017000D01*
X57830000Y20017000D01*
X57830000Y20877000D01*
G37*
X12797236Y17304000D02*
X12581564Y17304000D01*
X12797236Y16584000D02*
X12581564Y16584000D01*
X44548359Y6095000D02*
X44855641Y6095000D01*
X44548359Y5335000D02*
X44855641Y5335000D01*
X46509000Y3186800D02*
X46509000Y901800D01*
X47979000Y3186800D02*
X46509000Y3186800D01*
X47979000Y901800D02*
X47979000Y3186800D01*
X29691841Y18541000D02*
X29384559Y18541000D01*
X29691841Y17781000D02*
X29384559Y17781000D01*
X2375000Y19458000D02*
X4660000Y19458000D01*
X4660000Y20928000D02*
X2375000Y20928000D01*
X4660000Y19458000D02*
X4660000Y20928000D01*
X2375000Y16545000D02*
X4660000Y16545000D01*
X4660000Y18015000D02*
X2375000Y18015000D01*
X4660000Y16545000D02*
X4660000Y18015000D01*
X5664859Y17660000D02*
X5972141Y17660000D01*
X5664859Y16900000D02*
X5972141Y16900000D01*
X20614180Y15496000D02*
X20333020Y15496000D01*
X20614180Y14476000D02*
X20333020Y14476000D01*
X8150000Y3775000D02*
X8150000Y5475000D01*
X17490000Y3775000D02*
X17490000Y5475000D01*
X10669000Y10212041D02*
X10669000Y9904759D01*
X11429000Y10212041D02*
X11429000Y9904759D01*
X56643000Y5358641D02*
X56643000Y5051359D01*
X57403000Y5358641D02*
X57403000Y5051359D01*
X6530148Y12673000D02*
X7052652Y12673000D01*
X6530148Y11203000D02*
X7052652Y11203000D01*
X15233641Y10037000D02*
X14926359Y10037000D01*
X15233641Y9277000D02*
X14926359Y9277000D01*
X31610641Y18541000D02*
X31303359Y18541000D01*
X31610641Y17781000D02*
X31303359Y17781000D01*
X43245000Y9271000D02*
G75*
G02*
X41845000Y9271000I-700000J0D01*
G01*
X41845000Y9271000D02*
G75*
G02*
X43245000Y9271000I700000J0D01*
G01*
X56643000Y7341359D02*
X56643000Y7648641D01*
X57403000Y7341359D02*
X57403000Y7648641D01*
X37005000Y21979836D02*
X37005000Y21764164D01*
X37725000Y21979836D02*
X37725000Y21764164D01*
X32640000Y15417041D02*
X32640000Y15109759D01*
X33400000Y15417041D02*
X33400000Y15109759D01*
X44385000Y11876000D02*
X45785000Y11876000D01*
X44385000Y10476000D02*
X44385000Y11876000D01*
X45785000Y11876000D02*
X45785000Y10476000D01*
X45785000Y10476000D02*
X44385000Y10476000D01*
X23396348Y15721000D02*
X23918852Y15721000D01*
X23396348Y14251000D02*
X23918852Y14251000D01*
X44385000Y13908000D02*
X45785000Y13908000D01*
X44385000Y12508000D02*
X44385000Y13908000D01*
X45785000Y13908000D02*
X45785000Y12508000D01*
X45785000Y12508000D02*
X44385000Y12508000D01*
X17045000Y11986252D02*
X17045000Y11463748D01*
X18515000Y11986252D02*
X18515000Y11463748D01*
X10530000Y22503641D02*
X10530000Y22196359D01*
X11290000Y22503641D02*
X11290000Y22196359D01*
X7483321Y10035000D02*
X7808879Y10035000D01*
X7483321Y9015000D02*
X7808879Y9015000D01*
X50645000Y8910000D02*
X54765000Y8910000D01*
X50645000Y8815000D02*
X50645000Y8910000D01*
X50645000Y3790000D02*
X50645000Y3885000D01*
X54765000Y8910000D02*
X54765000Y8815000D01*
X54765000Y3885000D02*
X54765000Y3790000D01*
X54765000Y3790000D02*
X50645000Y3790000D01*
X50105000Y8820000D02*
X49865000Y9150000D01*
X50345000Y9150000D01*
X50105000Y8820000D01*
G36*
X50105000Y8820000D02*
G01*
X49865000Y9150000D01*
X50345000Y9150000D01*
X50105000Y8820000D01*
G37*
X45404000Y8150000D02*
G75*
G02*
X44004000Y8150000I-700000J0D01*
G01*
X44004000Y8150000D02*
G75*
G02*
X45404000Y8150000I700000J0D01*
G01*
X48800000Y19177000D02*
X48800000Y11497000D01*
X48800000Y19177000D02*
X51460000Y19177000D01*
X48800000Y11497000D02*
X51460000Y11497000D01*
X50130000Y21777000D02*
X51460000Y21777000D01*
X51460000Y21777000D02*
X51460000Y20447000D01*
X51460000Y19177000D02*
X51460000Y11497000D01*
X57659000Y7648641D02*
X57659000Y7341359D01*
X58419000Y7648641D02*
X58419000Y7341359D01*
X54907836Y9885000D02*
X54692164Y9885000D01*
X54907836Y9165000D02*
X54692164Y9165000D01*
X42727641Y21462000D02*
X42420359Y21462000D01*
X42727641Y20702000D02*
X42420359Y20702000D01*
X32533000Y11274164D02*
X32533000Y11489836D01*
X33253000Y11274164D02*
X33253000Y11489836D01*
X29012000Y16074500D02*
X29187000Y16074500D01*
X29012000Y11454500D02*
X29012000Y16074500D01*
X29187000Y11454500D02*
X29012000Y11454500D01*
X32057000Y16074500D02*
X32232000Y16074500D01*
X32232000Y16074500D02*
X32232000Y11454500D01*
X32232000Y11454500D02*
X32057000Y11454500D01*
X32392000Y16394500D02*
X32062000Y16634500D01*
X32392000Y16874500D01*
X32392000Y16394500D01*
G36*
X32392000Y16394500D02*
G01*
X32062000Y16634500D01*
X32392000Y16874500D01*
X32392000Y16394500D01*
G37*
X57659000Y5362641D02*
X57659000Y5055359D01*
X58419000Y5362641D02*
X58419000Y5055359D01*
X19297600Y11375000D02*
X19297600Y7615000D01*
X19297600Y7615000D02*
X20557600Y7615000D01*
X26117600Y11375000D02*
X26117600Y7615000D01*
X26117600Y7615000D02*
X24857600Y7615000D01*
X26347600Y12415000D02*
X26017600Y12655000D01*
X26347600Y12895000D01*
X26347600Y12415000D01*
G36*
X26347600Y12415000D02*
G01*
X26017600Y12655000D01*
X26347600Y12895000D01*
X26347600Y12415000D01*
G37*
X2375000Y13616000D02*
X4660000Y13616000D01*
X4660000Y15086000D02*
X2375000Y15086000D01*
X4660000Y13616000D02*
X4660000Y15086000D01*
X41872000Y18988000D02*
X43272000Y18988000D01*
X41872000Y17588000D02*
X41872000Y18988000D01*
X43272000Y18988000D02*
X43272000Y17588000D01*
X43272000Y17588000D02*
X41872000Y17588000D01*
X7365420Y23243000D02*
X7646580Y23243000D01*
X7365420Y22223000D02*
X7646580Y22223000D01*
X10084364Y12833600D02*
X10300036Y12833600D01*
X10084364Y12113600D02*
X10300036Y12113600D01*
X11328000Y16342000D02*
X14548000Y16342000D01*
X11328000Y16167000D02*
X11328000Y16342000D01*
X11328000Y13122000D02*
X11328000Y13297000D01*
X14548000Y16342000D02*
X14548000Y16167000D01*
X14548000Y13297000D02*
X14548000Y13122000D01*
X14548000Y13122000D02*
X11328000Y13122000D01*
X15338000Y12962000D02*
X14858000Y12962000D01*
X15098000Y13292000D01*
X15338000Y12962000D01*
G36*
X15338000Y12962000D02*
G01*
X14858000Y12962000D01*
X15098000Y13292000D01*
X15338000Y12962000D01*
G37*
X38197000Y21799500D02*
X38372000Y21799500D01*
X38197000Y17179500D02*
X38197000Y21799500D01*
X38372000Y17179500D02*
X38197000Y17179500D01*
X41242000Y21799500D02*
X41417000Y21799500D01*
X41417000Y21799500D02*
X41417000Y17179500D01*
X41417000Y17179500D02*
X41242000Y17179500D01*
X38367000Y16619500D02*
X38037000Y16379500D01*
X38037000Y16859500D01*
X38367000Y16619500D01*
G36*
X38367000Y16619500D02*
G01*
X38037000Y16379500D01*
X38037000Y16859500D01*
X38367000Y16619500D01*
G37*
X42725641Y22732000D02*
X42418359Y22732000D01*
X42725641Y21972000D02*
X42418359Y21972000D01*
X42727641Y20192000D02*
X42420359Y20192000D01*
X42727641Y19432000D02*
X42420359Y19432000D01*
D13*
X18840000Y1000000D02*
X18840000Y2100000D01*
X18840000Y2500000D02*
X18840000Y3600000D01*
X18840000Y4000000D02*
X18840000Y5100000D01*
X18840000Y5500000D02*
X18840000Y6600000D01*
X18840000Y7000000D02*
X18840000Y8100000D01*
X18840000Y8500000D02*
X18840000Y9600000D01*
X18840000Y10000000D02*
X18840000Y11100000D01*
X18840000Y11500000D02*
X18840000Y12600000D01*
X18840000Y13000000D02*
X18840000Y14100000D01*
X18840000Y14500000D02*
X18840000Y15600000D01*
X18840000Y16000000D02*
X18840000Y17100000D01*
X18840000Y17500000D02*
X18840000Y18600000D01*
X18840000Y19000000D02*
X18840000Y20100000D01*
X18840000Y20500000D02*
X18840000Y21600000D01*
X18840000Y22000000D02*
X18840000Y23100000D01*
X18840000Y23500000D02*
X18840000Y23500000D01*
X27330000Y1150000D02*
X27330000Y3850000D01*
X37650000Y3850000D02*
X27330000Y3850000D01*
X37650000Y1150000D02*
X27330000Y1150000D01*
X37650000Y1150000D02*
X37650000Y3850000D01*
X46140000Y23500000D02*
X45040000Y23500000D01*
X44640000Y23500000D02*
X43540000Y23500000D01*
X43140000Y23500000D02*
X42040000Y23500000D01*
X41640000Y23500000D02*
X40540000Y23500000D01*
X40140000Y23500000D02*
X39040000Y23500000D01*
X38640000Y23500000D02*
X37540000Y23500000D01*
X37140000Y23500000D02*
X36040000Y23500000D01*
X35640000Y23500000D02*
X34540000Y23500000D01*
X34140000Y23500000D02*
X33040000Y23500000D01*
X32640000Y23500000D02*
X31540000Y23500000D01*
X31140000Y23500000D02*
X30040000Y23500000D01*
X29640000Y23500000D02*
X28540000Y23500000D01*
X28140000Y23500000D02*
X27040000Y23500000D01*
X26640000Y23500000D02*
X25540000Y23500000D01*
X25140000Y23500000D02*
X24040000Y23500000D01*
X23640000Y23500000D02*
X22540000Y23500000D01*
X22140000Y23500000D02*
X21040000Y23500000D01*
X20640000Y23500000D02*
X19540000Y23500000D01*
X19140000Y23500000D02*
X18840000Y23500000D01*
X46140000Y1000000D02*
X45040000Y1000000D01*
X44640000Y1000000D02*
X43540000Y1000000D01*
X43140000Y1000000D02*
X42040000Y1000000D01*
X41640000Y1000000D02*
X40540000Y1000000D01*
X40140000Y1000000D02*
X39040000Y1000000D01*
X38640000Y1000000D02*
X37540000Y1000000D01*
X37140000Y1000000D02*
X36040000Y1000000D01*
X35640000Y1000000D02*
X34540000Y1000000D01*
X34140000Y1000000D02*
X33040000Y1000000D01*
X32640000Y1000000D02*
X31540000Y1000000D01*
X31140000Y1000000D02*
X30040000Y1000000D01*
X29640000Y1000000D02*
X28540000Y1000000D01*
X28140000Y1000000D02*
X27040000Y1000000D01*
X26640000Y1000000D02*
X25540000Y1000000D01*
X25140000Y1000000D02*
X24040000Y1000000D01*
X23640000Y1000000D02*
X22540000Y1000000D01*
X22140000Y1000000D02*
X21040000Y1000000D01*
X20640000Y1000000D02*
X19540000Y1000000D01*
X19140000Y1000000D02*
X18840000Y1000000D01*
X46140000Y1000000D02*
X46140000Y2100000D01*
X46140000Y2500000D02*
X46140000Y3600000D01*
X46140000Y4000000D02*
X46140000Y5100000D01*
X46140000Y5500000D02*
X46140000Y6600000D01*
X46140000Y7000000D02*
X46140000Y8100000D01*
X46140000Y8500000D02*
X46140000Y9600000D01*
X46140000Y10000000D02*
X46140000Y11100000D01*
X46140000Y11500000D02*
X46140000Y12600000D01*
X46140000Y13000000D02*
X46140000Y14100000D01*
X46140000Y14500000D02*
X46140000Y15600000D01*
X46140000Y16000000D02*
X46140000Y17100000D01*
X46140000Y17500000D02*
X46140000Y18600000D01*
X46140000Y19000000D02*
X46140000Y20100000D01*
X46140000Y20500000D02*
X46140000Y21600000D01*
X46140000Y22000000D02*
X46140000Y23100000D01*
X46140000Y23500000D02*
X46140000Y23500000D01*
M02*
