G04 #@! TF.GenerationSoftware,KiCad,Pcbnew,9.0.6-9.0.6~ubuntu22.04.1*
G04 #@! TF.CreationDate,2025-12-28T21:54:21+02:00*
G04 #@! TF.ProjectId,rpi_i2c_board,7270695f-6932-4635-9f62-6f6172642e6b,1.0*
G04 #@! TF.SameCoordinates,PX5f5e100PY5f5e100*
G04 #@! TF.FileFunction,Legend,Bot*
G04 #@! TF.FilePolarity,Positive*
%FSLAX46Y46*%
G04 Gerber Fmt 4.6, Leading zero omitted, Abs format (unit mm)*
G04 Created by KiCad (PCBNEW 9.0.6-9.0.6~ubuntu22.04.1) date 2025-12-28 21:54:21*
%MOMM*%
%LPD*%
G01*
G04 APERTURE LIST*
%ADD10C,0.150000*%
%ADD11C,0.120000*%
G04 APERTURE END LIST*
D10*
X39785714Y21928788D02*
X40285714Y22643074D01*
X40642857Y21928788D02*
X40642857Y23428788D01*
X40642857Y23428788D02*
X40071428Y23428788D01*
X40071428Y23428788D02*
X39928571Y23357359D01*
X39928571Y23357359D02*
X39857142Y23285931D01*
X39857142Y23285931D02*
X39785714Y23143074D01*
X39785714Y23143074D02*
X39785714Y22928788D01*
X39785714Y22928788D02*
X39857142Y22785931D01*
X39857142Y22785931D02*
X39928571Y22714502D01*
X39928571Y22714502D02*
X40071428Y22643074D01*
X40071428Y22643074D02*
X40642857Y22643074D01*
X39142857Y21928788D02*
X39142857Y23428788D01*
X39142857Y23428788D02*
X38571428Y23428788D01*
X38571428Y23428788D02*
X38428571Y23357359D01*
X38428571Y23357359D02*
X38357142Y23285931D01*
X38357142Y23285931D02*
X38285714Y23143074D01*
X38285714Y23143074D02*
X38285714Y22928788D01*
X38285714Y22928788D02*
X38357142Y22785931D01*
X38357142Y22785931D02*
X38428571Y22714502D01*
X38428571Y22714502D02*
X38571428Y22643074D01*
X38571428Y22643074D02*
X39142857Y22643074D01*
X37642857Y21928788D02*
X37642857Y22928788D01*
X37642857Y23428788D02*
X37714285Y23357359D01*
X37714285Y23357359D02*
X37642857Y23285931D01*
X37642857Y23285931D02*
X37571428Y23357359D01*
X37571428Y23357359D02*
X37642857Y23428788D01*
X37642857Y23428788D02*
X37642857Y23285931D01*
X35785714Y21928788D02*
X35785714Y23428788D01*
X35142856Y23285931D02*
X35071428Y23357359D01*
X35071428Y23357359D02*
X34928571Y23428788D01*
X34928571Y23428788D02*
X34571428Y23428788D01*
X34571428Y23428788D02*
X34428571Y23357359D01*
X34428571Y23357359D02*
X34357142Y23285931D01*
X34357142Y23285931D02*
X34285713Y23143074D01*
X34285713Y23143074D02*
X34285713Y23000216D01*
X34285713Y23000216D02*
X34357142Y22785931D01*
X34357142Y22785931D02*
X35214285Y21928788D01*
X35214285Y21928788D02*
X34285713Y21928788D01*
X32785714Y22071645D02*
X32857142Y22000216D01*
X32857142Y22000216D02*
X33071428Y21928788D01*
X33071428Y21928788D02*
X33214285Y21928788D01*
X33214285Y21928788D02*
X33428571Y22000216D01*
X33428571Y22000216D02*
X33571428Y22143074D01*
X33571428Y22143074D02*
X33642857Y22285931D01*
X33642857Y22285931D02*
X33714285Y22571645D01*
X33714285Y22571645D02*
X33714285Y22785931D01*
X33714285Y22785931D02*
X33642857Y23071645D01*
X33642857Y23071645D02*
X33571428Y23214502D01*
X33571428Y23214502D02*
X33428571Y23357359D01*
X33428571Y23357359D02*
X33214285Y23428788D01*
X33214285Y23428788D02*
X33071428Y23428788D01*
X33071428Y23428788D02*
X32857142Y23357359D01*
X32857142Y23357359D02*
X32785714Y23285931D01*
X30500000Y22714502D02*
X30285714Y22643074D01*
X30285714Y22643074D02*
X30214285Y22571645D01*
X30214285Y22571645D02*
X30142857Y22428788D01*
X30142857Y22428788D02*
X30142857Y22214502D01*
X30142857Y22214502D02*
X30214285Y22071645D01*
X30214285Y22071645D02*
X30285714Y22000216D01*
X30285714Y22000216D02*
X30428571Y21928788D01*
X30428571Y21928788D02*
X31000000Y21928788D01*
X31000000Y21928788D02*
X31000000Y23428788D01*
X31000000Y23428788D02*
X30500000Y23428788D01*
X30500000Y23428788D02*
X30357143Y23357359D01*
X30357143Y23357359D02*
X30285714Y23285931D01*
X30285714Y23285931D02*
X30214285Y23143074D01*
X30214285Y23143074D02*
X30214285Y23000216D01*
X30214285Y23000216D02*
X30285714Y22857359D01*
X30285714Y22857359D02*
X30357143Y22785931D01*
X30357143Y22785931D02*
X30500000Y22714502D01*
X30500000Y22714502D02*
X31000000Y22714502D01*
X29214285Y23428788D02*
X28928571Y23428788D01*
X28928571Y23428788D02*
X28785714Y23357359D01*
X28785714Y23357359D02*
X28642857Y23214502D01*
X28642857Y23214502D02*
X28571428Y22928788D01*
X28571428Y22928788D02*
X28571428Y22428788D01*
X28571428Y22428788D02*
X28642857Y22143074D01*
X28642857Y22143074D02*
X28785714Y22000216D01*
X28785714Y22000216D02*
X28928571Y21928788D01*
X28928571Y21928788D02*
X29214285Y21928788D01*
X29214285Y21928788D02*
X29357143Y22000216D01*
X29357143Y22000216D02*
X29500000Y22143074D01*
X29500000Y22143074D02*
X29571428Y22428788D01*
X29571428Y22428788D02*
X29571428Y22928788D01*
X29571428Y22928788D02*
X29500000Y23214502D01*
X29500000Y23214502D02*
X29357143Y23357359D01*
X29357143Y23357359D02*
X29214285Y23428788D01*
X27999999Y22357359D02*
X27285714Y22357359D01*
X28142856Y21928788D02*
X27642856Y23428788D01*
X27642856Y23428788D02*
X27142856Y21928788D01*
X25785714Y21928788D02*
X26285714Y22643074D01*
X26642857Y21928788D02*
X26642857Y23428788D01*
X26642857Y23428788D02*
X26071428Y23428788D01*
X26071428Y23428788D02*
X25928571Y23357359D01*
X25928571Y23357359D02*
X25857142Y23285931D01*
X25857142Y23285931D02*
X25785714Y23143074D01*
X25785714Y23143074D02*
X25785714Y22928788D01*
X25785714Y22928788D02*
X25857142Y22785931D01*
X25857142Y22785931D02*
X25928571Y22714502D01*
X25928571Y22714502D02*
X26071428Y22643074D01*
X26071428Y22643074D02*
X26642857Y22643074D01*
X25142857Y21928788D02*
X25142857Y23428788D01*
X25142857Y23428788D02*
X24785714Y23428788D01*
X24785714Y23428788D02*
X24571428Y23357359D01*
X24571428Y23357359D02*
X24428571Y23214502D01*
X24428571Y23214502D02*
X24357142Y23071645D01*
X24357142Y23071645D02*
X24285714Y22785931D01*
X24285714Y22785931D02*
X24285714Y22571645D01*
X24285714Y22571645D02*
X24357142Y22285931D01*
X24357142Y22285931D02*
X24428571Y22143074D01*
X24428571Y22143074D02*
X24571428Y22000216D01*
X24571428Y22000216D02*
X24785714Y21928788D01*
X24785714Y21928788D02*
X25142857Y21928788D01*
X43678571Y19513872D02*
X43678571Y21013872D01*
X43678571Y21013872D02*
X43321428Y21013872D01*
X43321428Y21013872D02*
X43107142Y20942443D01*
X43107142Y20942443D02*
X42964285Y20799586D01*
X42964285Y20799586D02*
X42892856Y20656729D01*
X42892856Y20656729D02*
X42821428Y20371015D01*
X42821428Y20371015D02*
X42821428Y20156729D01*
X42821428Y20156729D02*
X42892856Y19871015D01*
X42892856Y19871015D02*
X42964285Y19728158D01*
X42964285Y19728158D02*
X43107142Y19585300D01*
X43107142Y19585300D02*
X43321428Y19513872D01*
X43321428Y19513872D02*
X43678571Y19513872D01*
X42178571Y19513872D02*
X42178571Y20513872D01*
X42178571Y20371015D02*
X42107142Y20442443D01*
X42107142Y20442443D02*
X41964285Y20513872D01*
X41964285Y20513872D02*
X41749999Y20513872D01*
X41749999Y20513872D02*
X41607142Y20442443D01*
X41607142Y20442443D02*
X41535714Y20299586D01*
X41535714Y20299586D02*
X41535714Y19513872D01*
X41535714Y20299586D02*
X41464285Y20442443D01*
X41464285Y20442443D02*
X41321428Y20513872D01*
X41321428Y20513872D02*
X41107142Y20513872D01*
X41107142Y20513872D02*
X40964285Y20442443D01*
X40964285Y20442443D02*
X40892856Y20299586D01*
X40892856Y20299586D02*
X40892856Y19513872D01*
X40178571Y19513872D02*
X40178571Y20513872D01*
X40178571Y21013872D02*
X40249999Y20942443D01*
X40249999Y20942443D02*
X40178571Y20871015D01*
X40178571Y20871015D02*
X40107142Y20942443D01*
X40107142Y20942443D02*
X40178571Y21013872D01*
X40178571Y21013872D02*
X40178571Y20871015D01*
X39678570Y20513872D02*
X39107142Y20513872D01*
X39464285Y21013872D02*
X39464285Y19728158D01*
X39464285Y19728158D02*
X39392856Y19585300D01*
X39392856Y19585300D02*
X39249999Y19513872D01*
X39249999Y19513872D02*
X39107142Y19513872D01*
X38607142Y19513872D02*
X38607142Y20513872D01*
X38607142Y20228158D02*
X38535713Y20371015D01*
X38535713Y20371015D02*
X38464285Y20442443D01*
X38464285Y20442443D02*
X38321427Y20513872D01*
X38321427Y20513872D02*
X38178570Y20513872D01*
X37821428Y20513872D02*
X37464285Y19513872D01*
X37107142Y20513872D02*
X37464285Y19513872D01*
X37464285Y19513872D02*
X37607142Y19156729D01*
X37607142Y19156729D02*
X37678571Y19085300D01*
X37678571Y19085300D02*
X37821428Y19013872D01*
X35392857Y19513872D02*
X35392857Y21013872D01*
X35392857Y21013872D02*
X34892857Y19942443D01*
X34892857Y19942443D02*
X34392857Y21013872D01*
X34392857Y21013872D02*
X34392857Y19513872D01*
X33107142Y19585300D02*
X33249999Y19513872D01*
X33249999Y19513872D02*
X33535714Y19513872D01*
X33535714Y19513872D02*
X33678571Y19585300D01*
X33678571Y19585300D02*
X33749999Y19728158D01*
X33749999Y19728158D02*
X33749999Y20299586D01*
X33749999Y20299586D02*
X33678571Y20442443D01*
X33678571Y20442443D02*
X33535714Y20513872D01*
X33535714Y20513872D02*
X33249999Y20513872D01*
X33249999Y20513872D02*
X33107142Y20442443D01*
X33107142Y20442443D02*
X33035714Y20299586D01*
X33035714Y20299586D02*
X33035714Y20156729D01*
X33035714Y20156729D02*
X33749999Y20013872D01*
X32178571Y19513872D02*
X32321428Y19585300D01*
X32321428Y19585300D02*
X32392857Y19728158D01*
X32392857Y19728158D02*
X32392857Y21013872D01*
X31607143Y20513872D02*
X31607143Y19513872D01*
X31607143Y20371015D02*
X31535714Y20442443D01*
X31535714Y20442443D02*
X31392857Y20513872D01*
X31392857Y20513872D02*
X31178571Y20513872D01*
X31178571Y20513872D02*
X31035714Y20442443D01*
X31035714Y20442443D02*
X30964286Y20299586D01*
X30964286Y20299586D02*
X30964286Y19513872D01*
X30250000Y19513872D02*
X30250000Y20513872D01*
X30250000Y21013872D02*
X30321428Y20942443D01*
X30321428Y20942443D02*
X30250000Y20871015D01*
X30250000Y20871015D02*
X30178571Y20942443D01*
X30178571Y20942443D02*
X30250000Y21013872D01*
X30250000Y21013872D02*
X30250000Y20871015D01*
X28892857Y19585300D02*
X29035714Y19513872D01*
X29035714Y19513872D02*
X29321428Y19513872D01*
X29321428Y19513872D02*
X29464285Y19585300D01*
X29464285Y19585300D02*
X29535714Y19656729D01*
X29535714Y19656729D02*
X29607142Y19799586D01*
X29607142Y19799586D02*
X29607142Y20228158D01*
X29607142Y20228158D02*
X29535714Y20371015D01*
X29535714Y20371015D02*
X29464285Y20442443D01*
X29464285Y20442443D02*
X29321428Y20513872D01*
X29321428Y20513872D02*
X29035714Y20513872D01*
X29035714Y20513872D02*
X28892857Y20442443D01*
X28250000Y19513872D02*
X28250000Y21013872D01*
X27607143Y19513872D02*
X27607143Y20299586D01*
X27607143Y20299586D02*
X27678571Y20442443D01*
X27678571Y20442443D02*
X27821428Y20513872D01*
X27821428Y20513872D02*
X28035714Y20513872D01*
X28035714Y20513872D02*
X28178571Y20442443D01*
X28178571Y20442443D02*
X28250000Y20371015D01*
X26250000Y19513872D02*
X26250000Y20299586D01*
X26250000Y20299586D02*
X26321428Y20442443D01*
X26321428Y20442443D02*
X26464285Y20513872D01*
X26464285Y20513872D02*
X26750000Y20513872D01*
X26750000Y20513872D02*
X26892857Y20442443D01*
X26250000Y19585300D02*
X26392857Y19513872D01*
X26392857Y19513872D02*
X26750000Y19513872D01*
X26750000Y19513872D02*
X26892857Y19585300D01*
X26892857Y19585300D02*
X26964285Y19728158D01*
X26964285Y19728158D02*
X26964285Y19871015D01*
X26964285Y19871015D02*
X26892857Y20013872D01*
X26892857Y20013872D02*
X26750000Y20085300D01*
X26750000Y20085300D02*
X26392857Y20085300D01*
X26392857Y20085300D02*
X26250000Y20156729D01*
X25535714Y20513872D02*
X25535714Y19513872D01*
X25535714Y20371015D02*
X25464285Y20442443D01*
X25464285Y20442443D02*
X25321428Y20513872D01*
X25321428Y20513872D02*
X25107142Y20513872D01*
X25107142Y20513872D02*
X24964285Y20442443D01*
X24964285Y20442443D02*
X24892857Y20299586D01*
X24892857Y20299586D02*
X24892857Y19513872D01*
X24249999Y19585300D02*
X24107142Y19513872D01*
X24107142Y19513872D02*
X23821428Y19513872D01*
X23821428Y19513872D02*
X23678571Y19585300D01*
X23678571Y19585300D02*
X23607142Y19728158D01*
X23607142Y19728158D02*
X23607142Y19799586D01*
X23607142Y19799586D02*
X23678571Y19942443D01*
X23678571Y19942443D02*
X23821428Y20013872D01*
X23821428Y20013872D02*
X24035714Y20013872D01*
X24035714Y20013872D02*
X24178571Y20085300D01*
X24178571Y20085300D02*
X24249999Y20228158D01*
X24249999Y20228158D02*
X24249999Y20299586D01*
X24249999Y20299586D02*
X24178571Y20442443D01*
X24178571Y20442443D02*
X24035714Y20513872D01*
X24035714Y20513872D02*
X23821428Y20513872D01*
X23821428Y20513872D02*
X23678571Y20442443D01*
X22964285Y19513872D02*
X22964285Y21013872D01*
X22821428Y20085300D02*
X22392856Y19513872D01*
X22392856Y20513872D02*
X22964285Y19942443D01*
X21892856Y20513872D02*
X21535713Y19513872D01*
X21178570Y20513872D02*
X21535713Y19513872D01*
X21535713Y19513872D02*
X21678570Y19156729D01*
X21678570Y19156729D02*
X21749999Y19085300D01*
X21749999Y19085300D02*
X21892856Y19013872D01*
X35249999Y18098956D02*
X35249999Y17098956D01*
X35607141Y18670384D02*
X35964284Y17598956D01*
X35964284Y17598956D02*
X35035713Y17598956D01*
X34607142Y18598956D02*
X33607142Y17098956D01*
X33607142Y18598956D02*
X34607142Y17098956D01*
X32249999Y17098956D02*
X33107142Y17098956D01*
X32678571Y17098956D02*
X32678571Y18598956D01*
X32678571Y18598956D02*
X32821428Y18384670D01*
X32821428Y18384670D02*
X32964285Y18241813D01*
X32964285Y18241813D02*
X33107142Y18170384D01*
X31607143Y17098956D02*
X31607143Y18598956D01*
X31607143Y18598956D02*
X31107143Y17527527D01*
X31107143Y17527527D02*
X30607143Y18598956D01*
X30607143Y18598956D02*
X30607143Y17098956D01*
X29892857Y17098956D02*
X29892857Y18598956D01*
X29892857Y18598956D02*
X29535714Y18598956D01*
X29535714Y18598956D02*
X29321428Y18527527D01*
X29321428Y18527527D02*
X29178571Y18384670D01*
X29178571Y18384670D02*
X29107142Y18241813D01*
X29107142Y18241813D02*
X29035714Y17956099D01*
X29035714Y17956099D02*
X29035714Y17741813D01*
X29035714Y17741813D02*
X29107142Y17456099D01*
X29107142Y17456099D02*
X29178571Y17313242D01*
X29178571Y17313242D02*
X29321428Y17170384D01*
X29321428Y17170384D02*
X29535714Y17098956D01*
X29535714Y17098956D02*
X29892857Y17098956D01*
X46064287Y14083265D02*
X46064287Y15433265D01*
X45485716Y14083265D02*
X45485716Y14790408D01*
X45485716Y14790408D02*
X45550001Y14918979D01*
X45550001Y14918979D02*
X45678573Y14983265D01*
X45678573Y14983265D02*
X45871430Y14983265D01*
X45871430Y14983265D02*
X46000001Y14918979D01*
X46000001Y14918979D02*
X46064287Y14854693D01*
X45035715Y14983265D02*
X44521429Y14983265D01*
X44842858Y15433265D02*
X44842858Y14276122D01*
X44842858Y14276122D02*
X44778572Y14147550D01*
X44778572Y14147550D02*
X44650001Y14083265D01*
X44650001Y14083265D02*
X44521429Y14083265D01*
X44264286Y14983265D02*
X43750000Y14983265D01*
X44071429Y15433265D02*
X44071429Y14276122D01*
X44071429Y14276122D02*
X44007143Y14147550D01*
X44007143Y14147550D02*
X43878572Y14083265D01*
X43878572Y14083265D02*
X43750000Y14083265D01*
X43300000Y14983265D02*
X43300000Y13633265D01*
X43300000Y14918979D02*
X43171429Y14983265D01*
X43171429Y14983265D02*
X42914286Y14983265D01*
X42914286Y14983265D02*
X42785714Y14918979D01*
X42785714Y14918979D02*
X42721429Y14854693D01*
X42721429Y14854693D02*
X42657143Y14726122D01*
X42657143Y14726122D02*
X42657143Y14340408D01*
X42657143Y14340408D02*
X42721429Y14211836D01*
X42721429Y14211836D02*
X42785714Y14147550D01*
X42785714Y14147550D02*
X42914286Y14083265D01*
X42914286Y14083265D02*
X43171429Y14083265D01*
X43171429Y14083265D02*
X43300000Y14147550D01*
X42142857Y14147550D02*
X42014285Y14083265D01*
X42014285Y14083265D02*
X41757142Y14083265D01*
X41757142Y14083265D02*
X41628571Y14147550D01*
X41628571Y14147550D02*
X41564285Y14276122D01*
X41564285Y14276122D02*
X41564285Y14340408D01*
X41564285Y14340408D02*
X41628571Y14468979D01*
X41628571Y14468979D02*
X41757142Y14533265D01*
X41757142Y14533265D02*
X41950000Y14533265D01*
X41950000Y14533265D02*
X42078571Y14597550D01*
X42078571Y14597550D02*
X42142857Y14726122D01*
X42142857Y14726122D02*
X42142857Y14790408D01*
X42142857Y14790408D02*
X42078571Y14918979D01*
X42078571Y14918979D02*
X41950000Y14983265D01*
X41950000Y14983265D02*
X41757142Y14983265D01*
X41757142Y14983265D02*
X41628571Y14918979D01*
X40985714Y14211836D02*
X40921428Y14147550D01*
X40921428Y14147550D02*
X40985714Y14083265D01*
X40985714Y14083265D02*
X41050000Y14147550D01*
X41050000Y14147550D02*
X40985714Y14211836D01*
X40985714Y14211836D02*
X40985714Y14083265D01*
X40985714Y14918979D02*
X40921428Y14854693D01*
X40921428Y14854693D02*
X40985714Y14790408D01*
X40985714Y14790408D02*
X41050000Y14854693D01*
X41050000Y14854693D02*
X40985714Y14918979D01*
X40985714Y14918979D02*
X40985714Y14790408D01*
X39378571Y15497550D02*
X40535714Y13761836D01*
X37964285Y15497550D02*
X39121428Y13761836D01*
X36935714Y14983265D02*
X36935714Y13890408D01*
X36935714Y13890408D02*
X36999999Y13761836D01*
X36999999Y13761836D02*
X37064285Y13697550D01*
X37064285Y13697550D02*
X37192856Y13633265D01*
X37192856Y13633265D02*
X37385714Y13633265D01*
X37385714Y13633265D02*
X37514285Y13697550D01*
X36935714Y14147550D02*
X37064285Y14083265D01*
X37064285Y14083265D02*
X37321428Y14083265D01*
X37321428Y14083265D02*
X37449999Y14147550D01*
X37449999Y14147550D02*
X37514285Y14211836D01*
X37514285Y14211836D02*
X37578571Y14340408D01*
X37578571Y14340408D02*
X37578571Y14726122D01*
X37578571Y14726122D02*
X37514285Y14854693D01*
X37514285Y14854693D02*
X37449999Y14918979D01*
X37449999Y14918979D02*
X37321428Y14983265D01*
X37321428Y14983265D02*
X37064285Y14983265D01*
X37064285Y14983265D02*
X36935714Y14918979D01*
X36292856Y14083265D02*
X36292856Y14983265D01*
X36292856Y15433265D02*
X36357142Y15368979D01*
X36357142Y15368979D02*
X36292856Y15304693D01*
X36292856Y15304693D02*
X36228570Y15368979D01*
X36228570Y15368979D02*
X36292856Y15433265D01*
X36292856Y15433265D02*
X36292856Y15304693D01*
X35842856Y14983265D02*
X35328570Y14983265D01*
X35649999Y15433265D02*
X35649999Y14276122D01*
X35649999Y14276122D02*
X35585713Y14147550D01*
X35585713Y14147550D02*
X35457142Y14083265D01*
X35457142Y14083265D02*
X35328570Y14083265D01*
X34878570Y14083265D02*
X34878570Y15433265D01*
X34299999Y14083265D02*
X34299999Y14790408D01*
X34299999Y14790408D02*
X34364284Y14918979D01*
X34364284Y14918979D02*
X34492856Y14983265D01*
X34492856Y14983265D02*
X34685713Y14983265D01*
X34685713Y14983265D02*
X34814284Y14918979D01*
X34814284Y14918979D02*
X34878570Y14854693D01*
X33078570Y14983265D02*
X33078570Y14083265D01*
X33657141Y14983265D02*
X33657141Y14276122D01*
X33657141Y14276122D02*
X33592855Y14147550D01*
X33592855Y14147550D02*
X33464284Y14083265D01*
X33464284Y14083265D02*
X33271427Y14083265D01*
X33271427Y14083265D02*
X33142855Y14147550D01*
X33142855Y14147550D02*
X33078570Y14211836D01*
X32435712Y14083265D02*
X32435712Y15433265D01*
X32435712Y14918979D02*
X32307141Y14983265D01*
X32307141Y14983265D02*
X32049998Y14983265D01*
X32049998Y14983265D02*
X31921426Y14918979D01*
X31921426Y14918979D02*
X31857141Y14854693D01*
X31857141Y14854693D02*
X31792855Y14726122D01*
X31792855Y14726122D02*
X31792855Y14340408D01*
X31792855Y14340408D02*
X31857141Y14211836D01*
X31857141Y14211836D02*
X31921426Y14147550D01*
X31921426Y14147550D02*
X32049998Y14083265D01*
X32049998Y14083265D02*
X32307141Y14083265D01*
X32307141Y14083265D02*
X32435712Y14147550D01*
X31214283Y14211836D02*
X31149997Y14147550D01*
X31149997Y14147550D02*
X31214283Y14083265D01*
X31214283Y14083265D02*
X31278569Y14147550D01*
X31278569Y14147550D02*
X31214283Y14211836D01*
X31214283Y14211836D02*
X31214283Y14083265D01*
X29992855Y14147550D02*
X30121426Y14083265D01*
X30121426Y14083265D02*
X30378569Y14083265D01*
X30378569Y14083265D02*
X30507140Y14147550D01*
X30507140Y14147550D02*
X30571426Y14211836D01*
X30571426Y14211836D02*
X30635712Y14340408D01*
X30635712Y14340408D02*
X30635712Y14726122D01*
X30635712Y14726122D02*
X30571426Y14854693D01*
X30571426Y14854693D02*
X30507140Y14918979D01*
X30507140Y14918979D02*
X30378569Y14983265D01*
X30378569Y14983265D02*
X30121426Y14983265D01*
X30121426Y14983265D02*
X29992855Y14918979D01*
X29221426Y14083265D02*
X29349997Y14147550D01*
X29349997Y14147550D02*
X29414283Y14211836D01*
X29414283Y14211836D02*
X29478569Y14340408D01*
X29478569Y14340408D02*
X29478569Y14726122D01*
X29478569Y14726122D02*
X29414283Y14854693D01*
X29414283Y14854693D02*
X29349997Y14918979D01*
X29349997Y14918979D02*
X29221426Y14983265D01*
X29221426Y14983265D02*
X29028569Y14983265D01*
X29028569Y14983265D02*
X28899997Y14918979D01*
X28899997Y14918979D02*
X28835712Y14854693D01*
X28835712Y14854693D02*
X28771426Y14726122D01*
X28771426Y14726122D02*
X28771426Y14340408D01*
X28771426Y14340408D02*
X28835712Y14211836D01*
X28835712Y14211836D02*
X28899997Y14147550D01*
X28899997Y14147550D02*
X29028569Y14083265D01*
X29028569Y14083265D02*
X29221426Y14083265D01*
X28192854Y14083265D02*
X28192854Y14983265D01*
X28192854Y14854693D02*
X28128568Y14918979D01*
X28128568Y14918979D02*
X27999997Y14983265D01*
X27999997Y14983265D02*
X27807140Y14983265D01*
X27807140Y14983265D02*
X27678568Y14918979D01*
X27678568Y14918979D02*
X27614283Y14790408D01*
X27614283Y14790408D02*
X27614283Y14083265D01*
X27614283Y14790408D02*
X27549997Y14918979D01*
X27549997Y14918979D02*
X27421425Y14983265D01*
X27421425Y14983265D02*
X27228568Y14983265D01*
X27228568Y14983265D02*
X27099997Y14918979D01*
X27099997Y14918979D02*
X27035711Y14790408D01*
X27035711Y14790408D02*
X27035711Y14083265D01*
X25428568Y15497550D02*
X26585711Y13761836D01*
X24399997Y14983265D02*
X24399997Y14083265D01*
X24721425Y15497550D02*
X25042854Y14533265D01*
X25042854Y14533265D02*
X24207139Y14533265D01*
X23821425Y14083265D02*
X23114283Y14983265D01*
X23821425Y14983265D02*
X23114283Y14083265D01*
X21892854Y14083265D02*
X22664283Y14083265D01*
X22278568Y14083265D02*
X22278568Y15433265D01*
X22278568Y15433265D02*
X22407140Y15240408D01*
X22407140Y15240408D02*
X22535711Y15111836D01*
X22535711Y15111836D02*
X22664283Y15047550D01*
X21314283Y14083265D02*
X21314283Y14983265D01*
X21314283Y14854693D02*
X21249997Y14918979D01*
X21249997Y14918979D02*
X21121426Y14983265D01*
X21121426Y14983265D02*
X20928569Y14983265D01*
X20928569Y14983265D02*
X20799997Y14918979D01*
X20799997Y14918979D02*
X20735712Y14790408D01*
X20735712Y14790408D02*
X20735712Y14083265D01*
X20735712Y14790408D02*
X20671426Y14918979D01*
X20671426Y14918979D02*
X20542854Y14983265D01*
X20542854Y14983265D02*
X20349997Y14983265D01*
X20349997Y14983265D02*
X20221426Y14918979D01*
X20221426Y14918979D02*
X20157140Y14790408D01*
X20157140Y14790408D02*
X20157140Y14083265D01*
X18935712Y14083265D02*
X18935712Y15433265D01*
X18935712Y14147550D02*
X19064283Y14083265D01*
X19064283Y14083265D02*
X19321426Y14083265D01*
X19321426Y14083265D02*
X19449997Y14147550D01*
X19449997Y14147550D02*
X19514283Y14211836D01*
X19514283Y14211836D02*
X19578569Y14340408D01*
X19578569Y14340408D02*
X19578569Y14726122D01*
X19578569Y14726122D02*
X19514283Y14854693D01*
X19514283Y14854693D02*
X19449997Y14918979D01*
X19449997Y14918979D02*
X19321426Y14983265D01*
X19321426Y14983265D02*
X19064283Y14983265D01*
X19064283Y14983265D02*
X18935712Y14918979D01*
X8703333Y23275181D02*
X8703333Y22560896D01*
X8703333Y22560896D02*
X8750952Y22418039D01*
X8750952Y22418039D02*
X8846190Y22322800D01*
X8846190Y22322800D02*
X8989047Y22275181D01*
X8989047Y22275181D02*
X9084285Y22275181D01*
X7703333Y22275181D02*
X8274761Y22275181D01*
X7989047Y22275181D02*
X7989047Y23275181D01*
X7989047Y23275181D02*
X8084285Y23132324D01*
X8084285Y23132324D02*
X8179523Y23037086D01*
X8179523Y23037086D02*
X8274761Y22989467D01*
D11*
X7040000Y29100000D02*
X7040000Y26500000D01*
X7040000Y29100000D02*
X57960000Y29100000D01*
X7040000Y26500000D02*
X9640000Y26500000D01*
X7040000Y25230000D02*
X7040000Y23900000D01*
X7040000Y23900000D02*
X8370000Y23900000D01*
X9640000Y26500000D02*
X9640000Y23900000D01*
X9640000Y23900000D02*
X57960000Y23900000D01*
X57960000Y29100000D02*
X57960000Y23900000D01*
M02*
