G04 #@! TF.GenerationSoftware,KiCad,Pcbnew,9.0.6-9.0.6~ubuntu22.04.1*
G04 #@! TF.CreationDate,2025-12-28T21:54:21+02:00*
G04 #@! TF.ProjectId,rpi_i2c_board,7270695f-6932-4635-9f62-6f6172642e6b,1.0*
G04 #@! TF.SameCoordinates,PX5f5e100PY5f5e100*
G04 #@! TF.FileFunction,Soldermask,Top*
G04 #@! TF.FilePolarity,Negative*
%FSLAX46Y46*%
G04 Gerber Fmt 4.6, Leading zero omitted, Abs format (unit mm)*
G04 Created by KiCad (PCBNEW 9.0.6-9.0.6~ubuntu22.04.1) date 2025-12-28 21:54:21*
%MOMM*%
%LPD*%
G01*
G04 APERTURE LIST*
G04 Aperture macros list*
%AMRoundRect*
0 Rectangle with rounded corners*
0 $1 Rounding radius*
0 $2 $3 $4 $5 $6 $7 $8 $9 X,Y pos of 4 corners*
0 Add a 4 corners polygon primitive as box body*
4,1,4,$2,$3,$4,$5,$6,$7,$8,$9,$2,$3,0*
0 Add four circle primitives for the rounded corners*
1,1,$1+$1,$2,$3*
1,1,$1+$1,$4,$5*
1,1,$1+$1,$6,$7*
1,1,$1+$1,$8,$9*
0 Add four rect primitives between the rounded corners*
20,1,$1+$1,$2,$3,$4,$5,0*
20,1,$1+$1,$4,$5,$6,$7,0*
20,1,$1+$1,$6,$7,$8,$9,0*
20,1,$1+$1,$8,$9,$2,$3,0*%
G04 Aperture macros list end*
%ADD10C,0.000000*%
%ADD11RoundRect,0.135000X-0.185000X0.135000X-0.185000X-0.135000X0.185000X-0.135000X0.185000X0.135000X0*%
%ADD12RoundRect,0.135000X-0.135000X-0.185000X0.135000X-0.185000X0.135000X0.185000X-0.135000X0.185000X0*%
%ADD13RoundRect,0.250000X0.250000X0.475000X-0.250000X0.475000X-0.250000X-0.475000X0.250000X-0.475000X0*%
%ADD14C,5.400000*%
%ADD15R,1.000000X1.000000*%
%ADD16R,1.700000X1.700000*%
%ADD17C,1.700000*%
%ADD18RoundRect,0.140000X0.140000X0.170000X-0.140000X0.170000X-0.140000X-0.170000X0.140000X-0.170000X0*%
%ADD19RoundRect,0.218750X-0.256250X0.218750X-0.256250X-0.218750X0.256250X-0.218750X0.256250X0.218750X0*%
%ADD20RoundRect,0.135000X0.135000X0.185000X-0.135000X0.185000X-0.135000X-0.185000X0.135000X-0.185000X0*%
%ADD21RoundRect,0.218750X0.218750X0.256250X-0.218750X0.256250X-0.218750X-0.256250X0.218750X-0.256250X0*%
%ADD22RoundRect,0.225000X0.225000X0.250000X-0.225000X0.250000X-0.225000X-0.250000X0.225000X-0.250000X0*%
%ADD23C,0.650000*%
%ADD24RoundRect,0.150000X-0.150000X-0.425000X0.150000X-0.425000X0.150000X0.425000X-0.150000X0.425000X0*%
%ADD25RoundRect,0.075000X-0.075000X-0.500000X0.075000X-0.500000X0.075000X0.500000X-0.075000X0.500000X0*%
%ADD26O,1.000000X2.100000*%
%ADD27O,1.000000X1.800000*%
%ADD28RoundRect,0.250000X-0.250000X-0.475000X0.250000X-0.475000X0.250000X0.475000X-0.250000X0.475000X0*%
%ADD29C,1.000000*%
%ADD30RoundRect,0.135000X0.185000X-0.135000X0.185000X0.135000X-0.185000X0.135000X-0.185000X-0.135000X0*%
%ADD31RoundRect,0.140000X-0.170000X0.140000X-0.170000X-0.140000X0.170000X-0.140000X0.170000X0.140000X0*%
%ADD32RoundRect,0.250000X-0.475000X0.250000X-0.475000X-0.250000X0.475000X-0.250000X0.475000X0.250000X0*%
%ADD33RoundRect,0.218750X-0.218750X-0.256250X0.218750X-0.256250X0.218750X0.256250X-0.218750X0.256250X0*%
%ADD34RoundRect,0.150000X-0.725000X-0.150000X0.725000X-0.150000X0.725000X0.150000X-0.725000X0.150000X0*%
%ADD35RoundRect,0.140000X0.170000X-0.140000X0.170000X0.140000X-0.170000X0.140000X-0.170000X-0.140000X0*%
%ADD36RoundRect,0.100000X-0.100000X0.637500X-0.100000X-0.637500X0.100000X-0.637500X0.100000X0.637500X0*%
%ADD37RoundRect,0.375000X-0.375000X0.625000X-0.375000X-0.625000X0.375000X-0.625000X0.375000X0.625000X0*%
%ADD38RoundRect,0.500000X-1.400000X0.500000X-1.400000X-0.500000X1.400000X-0.500000X1.400000X0.500000X0*%
%ADD39RoundRect,0.225000X-0.225000X-0.250000X0.225000X-0.250000X0.225000X0.250000X-0.225000X0.250000X0*%
%ADD40RoundRect,0.140000X-0.140000X-0.170000X0.140000X-0.170000X0.140000X0.170000X-0.140000X0.170000X0*%
%ADD41RoundRect,0.087500X0.725000X0.087500X-0.725000X0.087500X-0.725000X-0.087500X0.725000X-0.087500X0*%
%ADD42RoundRect,0.100000X0.100000X-0.637500X0.100000X0.637500X-0.100000X0.637500X-0.100000X-0.637500X0*%
%ADD43C,3.500000*%
%ADD44R,1.800000X1.800000*%
%ADD45C,1.800000*%
G04 APERTURE END LIST*
D10*
G36*
X53848000Y8483600D02*
G01*
X53848000Y3937000D01*
X51562000Y3937000D01*
X51562000Y8483600D01*
X51714400Y8636000D01*
X53695600Y8636000D01*
X53848000Y8483600D01*
G37*
G36*
X57593800Y254000D02*
G01*
X48181200Y254000D01*
X48181200Y3479800D01*
X57593800Y3479800D01*
X57593800Y254000D01*
G37*
D11*
X13450000Y22860000D03*
X13450000Y21840000D03*
D12*
X5308500Y14351000D03*
X6328500Y14351000D03*
D13*
X24597400Y16967200D03*
X22697400Y16967200D03*
D14*
X61500000Y26500000D03*
D11*
X33020000Y17647000D03*
X33020000Y16627000D03*
D12*
X5308500Y20193000D03*
X6328500Y20193000D03*
D15*
X42572000Y16256000D03*
D16*
X53680000Y20447000D03*
D17*
X53680000Y17907000D03*
X53680000Y15367000D03*
X53680000Y12827000D03*
D18*
X13169400Y16944000D03*
X12209400Y16944000D03*
D12*
X44192000Y5715000D03*
X45212000Y5715000D03*
D19*
X47244000Y2489300D03*
X47244000Y914300D03*
D20*
X30048200Y18161000D03*
X29028200Y18161000D03*
D21*
X3962500Y20193000D03*
X2387500Y20193000D03*
X3962500Y17280000D03*
X2387500Y17280000D03*
D12*
X5308500Y17280000D03*
X6328500Y17280000D03*
D22*
X21248600Y14986000D03*
X19698600Y14986000D03*
D23*
X9930000Y6280000D03*
X15710000Y6280000D03*
D24*
X9620000Y7355000D03*
X10420000Y7355000D03*
D25*
X11570000Y7355000D03*
X12570000Y7355000D03*
X13070000Y7355000D03*
X14070000Y7355000D03*
D24*
X15220000Y7355000D03*
X16020000Y7355000D03*
X16020000Y7355000D03*
X15220000Y7355000D03*
D25*
X14570000Y7355000D03*
X13570000Y7355000D03*
X12070000Y7355000D03*
X11070000Y7355000D03*
D24*
X10420000Y7355000D03*
X9620000Y7355000D03*
D26*
X8500000Y6780000D03*
D27*
X8500000Y2600000D03*
D26*
X17140000Y6780000D03*
D27*
X17140000Y2600000D03*
D11*
X11049000Y10568400D03*
X11049000Y9548400D03*
X57023000Y5715000D03*
X57023000Y4695000D03*
D28*
X5841400Y11938000D03*
X7741400Y11938000D03*
D20*
X15590000Y9657000D03*
X14570000Y9657000D03*
X31967000Y18161000D03*
X30947000Y18161000D03*
D29*
X42545000Y9271000D03*
D30*
X57023000Y6985000D03*
X57023000Y8005000D03*
D31*
X37365000Y22352000D03*
X37365000Y21392000D03*
D11*
X33020000Y15773400D03*
X33020000Y14753400D03*
D15*
X45085000Y11176000D03*
D28*
X22707600Y14986000D03*
X24607600Y14986000D03*
D15*
X45085000Y13208000D03*
D32*
X17780000Y12675000D03*
X17780000Y10775000D03*
D14*
X3500000Y3500000D03*
D11*
X10910000Y22860000D03*
X10910000Y21840000D03*
D33*
X6858600Y9525000D03*
X8433600Y9525000D03*
D14*
X3500000Y26500000D03*
D34*
X50130000Y8255000D03*
X50130000Y6985000D03*
X50130000Y5715000D03*
X50130000Y4445000D03*
X55280000Y4445000D03*
X55280000Y5715000D03*
X55280000Y6985000D03*
X55280000Y8255000D03*
D29*
X44704000Y8150000D03*
D16*
X50130000Y20447000D03*
D17*
X50130000Y17907000D03*
X50130000Y15367000D03*
X50130000Y12827000D03*
D11*
X58039000Y8005000D03*
X58039000Y6985000D03*
D18*
X55280000Y9525000D03*
X54320000Y9525000D03*
D20*
X43084000Y21082000D03*
X42064000Y21082000D03*
D35*
X32893000Y10902000D03*
X32893000Y11862000D03*
D14*
X61500000Y3500000D03*
D36*
X31597000Y16627000D03*
X30947000Y16627000D03*
X30297000Y16627000D03*
X29647000Y16627000D03*
X29647000Y10902000D03*
X30297000Y10902000D03*
X30947000Y10902000D03*
X31597000Y10902000D03*
D11*
X58039000Y5719000D03*
X58039000Y4699000D03*
D37*
X25007600Y12675000D03*
X22707600Y12675000D03*
D38*
X22707600Y6375000D03*
D37*
X20407600Y12675000D03*
D21*
X3962500Y14351000D03*
X2387500Y14351000D03*
D15*
X42572000Y18288000D03*
D39*
X6731000Y22733000D03*
X8281000Y22733000D03*
D40*
X9712200Y12473600D03*
X10672200Y12473600D03*
D41*
X15050500Y13732000D03*
X15050500Y14232000D03*
X15050500Y14732000D03*
X15050500Y15232000D03*
X15050500Y15732000D03*
X10825500Y15732000D03*
X10825500Y15232000D03*
X10825500Y14732000D03*
X10825500Y14232000D03*
X10825500Y13732000D03*
D42*
X38832000Y16627000D03*
X39482000Y16627000D03*
X40132000Y16627000D03*
X40782000Y16627000D03*
X40782000Y22352000D03*
X40132000Y22352000D03*
X39482000Y22352000D03*
X38832000Y22352000D03*
D20*
X43082000Y22352000D03*
X42062000Y22352000D03*
X43084000Y19812000D03*
X42064000Y19812000D03*
D43*
X44140000Y3000000D03*
X20840000Y3000000D03*
D44*
X36300000Y2500000D03*
D45*
X33760000Y2500000D03*
X31220000Y2500000D03*
X28680000Y2500000D03*
D16*
X8370000Y25230000D03*
D17*
X8370000Y27770000D03*
X10910000Y25230000D03*
X10910000Y27770000D03*
X13450000Y25230000D03*
X13450000Y27770000D03*
X15990000Y25230000D03*
X15990000Y27770000D03*
X18530000Y25230000D03*
X18530000Y27770000D03*
X21070000Y25230000D03*
X21070000Y27770000D03*
X23610000Y25230000D03*
X23610000Y27770000D03*
X26150000Y25230000D03*
X26150000Y27770000D03*
X28690000Y25230000D03*
X28690000Y27770000D03*
X31230000Y25230000D03*
X31230000Y27770000D03*
X33770000Y25230000D03*
X33770000Y27770000D03*
X36310000Y25230000D03*
X36310000Y27770000D03*
X38850000Y25230000D03*
X38850000Y27770000D03*
X41390000Y25230000D03*
X41390000Y27770000D03*
X43930000Y25230000D03*
X43930000Y27770000D03*
X46470000Y25230000D03*
X46470000Y27770000D03*
X49010000Y25230000D03*
X49010000Y27770000D03*
X51550000Y25230000D03*
X51550000Y27770000D03*
X54090000Y25230000D03*
X54090000Y27770000D03*
X56630000Y25230000D03*
X56630000Y27770000D03*
M02*
