G04 #@! TF.GenerationSoftware,KiCad,Pcbnew,9.0.6-9.0.6~ubuntu22.04.1*
G04 #@! TF.CreationDate,2025-12-28T21:54:20+02:00*
G04 #@! TF.ProjectId,rpi_i2c_board,7270695f-6932-4635-9f62-6f6172642e6b,1.0*
G04 #@! TF.SameCoordinates,PX5f5e100PY5f5e100*
G04 #@! TF.FileFunction,Copper,L2,Bot*
G04 #@! TF.FilePolarity,Positive*
%FSLAX46Y46*%
G04 Gerber Fmt 4.6, Leading zero omitted, Abs format (unit mm)*
G04 Created by KiCad (PCBNEW 9.0.6-9.0.6~ubuntu22.04.1) date 2025-12-28 21:54:20*
%MOMM*%
%LPD*%
G01*
G04 APERTURE LIST*
G04 #@! TA.AperFunction,ComponentPad*
%ADD10R,1.000000X1.000000*%
G04 #@! TD*
G04 #@! TA.AperFunction,ComponentPad*
%ADD11R,1.700000X1.700000*%
G04 #@! TD*
G04 #@! TA.AperFunction,ComponentPad*
%ADD12C,1.700000*%
G04 #@! TD*
G04 #@! TA.AperFunction,HeatsinkPad*
%ADD13O,1.000000X2.100000*%
G04 #@! TD*
G04 #@! TA.AperFunction,HeatsinkPad*
%ADD14O,1.000000X1.800000*%
G04 #@! TD*
G04 #@! TA.AperFunction,ComponentPad*
%ADD15R,1.800000X1.800000*%
G04 #@! TD*
G04 #@! TA.AperFunction,ComponentPad*
%ADD16C,1.800000*%
G04 #@! TD*
G04 #@! TA.AperFunction,ViaPad*
%ADD17C,0.900000*%
G04 #@! TD*
G04 #@! TA.AperFunction,ViaPad*
%ADD18C,0.800000*%
G04 #@! TD*
G04 #@! TA.AperFunction,Conductor*
%ADD19C,0.250000*%
G04 #@! TD*
G04 #@! TA.AperFunction,Conductor*
%ADD20C,0.500000*%
G04 #@! TD*
G04 #@! TA.AperFunction,Conductor*
%ADD21C,0.300000*%
G04 #@! TD*
G04 #@! TA.AperFunction,Conductor*
%ADD22C,0.200000*%
G04 #@! TD*
G04 APERTURE END LIST*
D10*
X42572000Y16256000D03*
D11*
X53680000Y20447000D03*
D12*
X53680000Y17907000D03*
X53680000Y15367000D03*
X53680000Y12827000D03*
D13*
X8500000Y6780000D03*
D14*
X8500000Y2600000D03*
D13*
X17140000Y6780000D03*
D14*
X17140000Y2600000D03*
D10*
X45085000Y11176000D03*
X45085000Y13208000D03*
D11*
X50130000Y20447000D03*
D12*
X50130000Y17907000D03*
X50130000Y15367000D03*
X50130000Y12827000D03*
D10*
X42572000Y18288000D03*
D15*
X36300000Y2500000D03*
D16*
X33760000Y2500000D03*
X31220000Y2500000D03*
X28680000Y2500000D03*
D11*
X8370000Y25230000D03*
D12*
X8370000Y27770000D03*
X10910000Y25230000D03*
X10910000Y27770000D03*
X13450000Y25230000D03*
X13450000Y27770000D03*
X15990000Y25230000D03*
X15990000Y27770000D03*
X18530000Y25230000D03*
X18530000Y27770000D03*
X21070000Y25230000D03*
X21070000Y27770000D03*
X23610000Y25230000D03*
X23610000Y27770000D03*
X26150000Y25230000D03*
X26150000Y27770000D03*
X28690000Y25230000D03*
X28690000Y27770000D03*
X31230000Y25230000D03*
X31230000Y27770000D03*
X33770000Y25230000D03*
X33770000Y27770000D03*
X36310000Y25230000D03*
X36310000Y27770000D03*
X38850000Y25230000D03*
X38850000Y27770000D03*
X41390000Y25230000D03*
X41390000Y27770000D03*
X43930000Y25230000D03*
X43930000Y27770000D03*
X46470000Y25230000D03*
X46470000Y27770000D03*
X49010000Y25230000D03*
X49010000Y27770000D03*
X51550000Y25230000D03*
X51550000Y27770000D03*
X54090000Y25230000D03*
X54090000Y27770000D03*
X56630000Y25230000D03*
X56630000Y27770000D03*
D17*
X53340000Y5715000D03*
X53340000Y1270000D03*
D18*
X32893000Y12750800D03*
X57023000Y8890000D03*
X9322400Y22733000D03*
D17*
X55880000Y2540000D03*
D18*
X9620000Y8509000D03*
X13065000Y14732000D03*
X37365000Y20402000D03*
D17*
X54610000Y2540000D03*
X53340000Y8255000D03*
D18*
X11430000Y12473600D03*
D17*
X54610000Y1270000D03*
X53340000Y6985000D03*
X52070000Y6985000D03*
X26390600Y12675000D03*
D18*
X14086400Y16944000D03*
X8737600Y11938000D03*
D17*
X50800000Y2540000D03*
D18*
X30297000Y15316200D03*
X40782000Y18000000D03*
X16383000Y9657000D03*
D17*
X52070000Y8255000D03*
D18*
X16020000Y8509000D03*
D17*
X49530000Y2540000D03*
X52070000Y4445000D03*
X49530000Y1270000D03*
D18*
X11049000Y11430000D03*
D17*
X52070000Y5715000D03*
D18*
X7366000Y14351000D03*
D17*
X53340000Y4445000D03*
D18*
X33020000Y13868400D03*
D17*
X52070000Y1270000D03*
X55880000Y1270000D03*
X52070000Y2540000D03*
X19177000Y10775000D03*
D18*
X31292800Y12395200D03*
X19698600Y16001400D03*
D17*
X50800000Y1270000D03*
X25007600Y11049000D03*
X53340000Y2540000D03*
X21590000Y16941800D03*
X25755600Y14986000D03*
D18*
X7620000Y17280000D03*
X14720000Y21840000D03*
X17260000Y21840000D03*
X9398000Y17907000D03*
D17*
X9779000Y10541000D03*
D18*
X6731000Y21463000D03*
D17*
X5841400Y13309600D03*
D18*
X12217400Y10541000D03*
D17*
X14570000Y11049000D03*
D18*
X51943000Y11049000D03*
D17*
X25755600Y16967200D03*
X34264600Y16967200D03*
X33760000Y5715000D03*
X26898600Y6375400D03*
D18*
X48133000Y6985000D03*
X48133000Y9652000D03*
X28680000Y8131000D03*
X32004000Y9271000D03*
X44100000Y21082000D03*
X38832000Y21082000D03*
D19*
X12819000Y19939000D02*
X9271000Y19939000D01*
X14720000Y21840000D02*
X12819000Y19939000D01*
X7620000Y17280000D02*
X7620000Y18288000D01*
X7620000Y18288000D02*
X9271000Y19939000D01*
X9910000Y18419000D02*
X9398000Y17907000D01*
X13839000Y18419000D02*
X9910000Y18419000D01*
X17260000Y21840000D02*
X13839000Y18419000D01*
D20*
X5841400Y13309600D02*
X5841400Y20573400D01*
X5841400Y20573400D02*
X6731000Y21463000D01*
X9779000Y10541000D02*
X14062000Y10541000D01*
X14062000Y10541000D02*
X14570000Y11049000D01*
D21*
X45093000Y13200000D02*
X46300000Y13200000D01*
D20*
X27559000Y5715000D02*
X26898600Y6375400D01*
D21*
X45085000Y13208000D02*
X45093000Y13200000D01*
X46300000Y13200000D02*
X48451000Y11049000D01*
D20*
X25527000Y16967200D02*
X34264600Y16967200D01*
X33760000Y5715000D02*
X27559000Y5715000D01*
D21*
X48451000Y11049000D02*
X51943000Y11049000D01*
D19*
X48133000Y6985000D02*
X48133000Y9652000D01*
X29820000Y9271000D02*
X28680000Y8131000D01*
X32004000Y9271000D02*
X29820000Y9271000D01*
D22*
X44100000Y21082000D02*
X38832000Y21082000D01*
G04 #@! TA.AperFunction,Conductor*
G36*
X62003472Y29799305D02*
G01*
X62306503Y29782287D01*
X62320301Y29780733D01*
X62616080Y29730478D01*
X62629636Y29727384D01*
X62917927Y29644328D01*
X62931051Y29639735D01*
X63208222Y29524928D01*
X63220744Y29518899D01*
X63423184Y29407014D01*
X63483328Y29373773D01*
X63495102Y29366375D01*
X63739789Y29192761D01*
X63750657Y29184093D01*
X63974352Y28984185D01*
X63984184Y28974353D01*
X64184092Y28750658D01*
X64192762Y28739787D01*
X64216959Y28705685D01*
X64366374Y28495103D01*
X64373772Y28483329D01*
X64518894Y28220752D01*
X64524927Y28208223D01*
X64639734Y27931052D01*
X64644327Y27917928D01*
X64727383Y27629637D01*
X64730477Y27616080D01*
X64780730Y27320312D01*
X64782287Y27306494D01*
X64799305Y27003473D01*
X64799500Y26996520D01*
X64799500Y3003481D01*
X64799305Y2996528D01*
X64782287Y2693507D01*
X64780730Y2679689D01*
X64730477Y2383921D01*
X64727383Y2370364D01*
X64644327Y2082073D01*
X64639734Y2068949D01*
X64524927Y1791778D01*
X64518894Y1779249D01*
X64373772Y1516672D01*
X64366374Y1504898D01*
X64192763Y1260215D01*
X64184092Y1249343D01*
X63984184Y1025648D01*
X63974352Y1015816D01*
X63750657Y815908D01*
X63739785Y807237D01*
X63495102Y633626D01*
X63483328Y626228D01*
X63220751Y481106D01*
X63208222Y475073D01*
X62931051Y360266D01*
X62917927Y355673D01*
X62629636Y272617D01*
X62616079Y269523D01*
X62320311Y219270D01*
X62306493Y217713D01*
X62003472Y200695D01*
X61996519Y200500D01*
X3003481Y200500D01*
X2996528Y200695D01*
X2693506Y217713D01*
X2679688Y219270D01*
X2383920Y269523D01*
X2370363Y272617D01*
X2082072Y355673D01*
X2068948Y360266D01*
X1791777Y475073D01*
X1779248Y481106D01*
X1516671Y626228D01*
X1504897Y633626D01*
X1260214Y807237D01*
X1249342Y815908D01*
X1025647Y1015816D01*
X1015815Y1025648D01*
X825659Y1238431D01*
X815904Y1249347D01*
X807236Y1260215D01*
X633625Y1504898D01*
X626227Y1516672D01*
X546688Y1660586D01*
X481101Y1779256D01*
X475072Y1791778D01*
X360265Y2068949D01*
X355672Y2082073D01*
X272616Y2370364D01*
X269522Y2383921D01*
X219267Y2679699D01*
X217713Y2693497D01*
X200695Y2996528D01*
X200500Y3003481D01*
X200500Y3620453D01*
X1969500Y3620453D01*
X1969500Y3379547D01*
X1991593Y3240060D01*
X2007186Y3141607D01*
X2081631Y2912488D01*
X2190999Y2697843D01*
X2332600Y2502946D01*
X2502946Y2332600D01*
X2697843Y2190999D01*
X2757693Y2160504D01*
X2912487Y2081632D01*
X2912489Y2081632D01*
X2912492Y2081630D01*
X3141607Y2007186D01*
X3379547Y1969500D01*
X3379548Y1969500D01*
X3620452Y1969500D01*
X3620453Y1969500D01*
X3858393Y2007186D01*
X4087508Y2081630D01*
X4088378Y2082073D01*
X4126521Y2101508D01*
X4302157Y2190999D01*
X4497054Y2332600D01*
X4667400Y2502946D01*
X4809001Y2697843D01*
X4918370Y2912492D01*
X4978806Y3098496D01*
X7500000Y3098496D01*
X7500000Y2850000D01*
X8200000Y2850000D01*
X8200000Y2350000D01*
X7500000Y2350000D01*
X7500000Y2101505D01*
X7538427Y1908319D01*
X7538430Y1908307D01*
X7613807Y1726329D01*
X7613814Y1726316D01*
X7723248Y1562538D01*
X7723251Y1562534D01*
X7862533Y1423252D01*
X7862537Y1423249D01*
X8026315Y1313815D01*
X8026328Y1313808D01*
X8208308Y1238431D01*
X8250000Y1230138D01*
X8250000Y2033012D01*
X8259940Y2015795D01*
X8315795Y1959940D01*
X8384204Y1920444D01*
X8460504Y1900000D01*
X8539496Y1900000D01*
X8615796Y1920444D01*
X8684205Y1959940D01*
X8740060Y2015795D01*
X8750000Y2033012D01*
X8750000Y1230138D01*
X8791690Y1238431D01*
X8791692Y1238431D01*
X8973671Y1313808D01*
X8973684Y1313815D01*
X9137462Y1423249D01*
X9137466Y1423252D01*
X9276748Y1562534D01*
X9276751Y1562538D01*
X9386185Y1726316D01*
X9386192Y1726329D01*
X9461569Y1908307D01*
X9461572Y1908319D01*
X9499999Y2101505D01*
X9500000Y2101508D01*
X9500000Y2350000D01*
X8800000Y2350000D01*
X8800000Y2850000D01*
X9500000Y2850000D01*
X9500000Y3098492D01*
X9499999Y3098496D01*
X16140000Y3098496D01*
X16140000Y2850000D01*
X16840000Y2850000D01*
X16840000Y2350000D01*
X16140000Y2350000D01*
X16140000Y2101505D01*
X16178427Y1908319D01*
X16178430Y1908307D01*
X16253807Y1726329D01*
X16253814Y1726316D01*
X16363248Y1562538D01*
X16363251Y1562534D01*
X16502533Y1423252D01*
X16502537Y1423249D01*
X16666315Y1313815D01*
X16666328Y1313808D01*
X16848308Y1238431D01*
X16890000Y1230138D01*
X16890000Y2033012D01*
X16899940Y2015795D01*
X16955795Y1959940D01*
X17024204Y1920444D01*
X17100504Y1900000D01*
X17179496Y1900000D01*
X17255796Y1920444D01*
X17324205Y1959940D01*
X17380060Y2015795D01*
X17390000Y2033012D01*
X17390000Y1230138D01*
X17431690Y1238431D01*
X17431692Y1238431D01*
X17613671Y1313808D01*
X17613684Y1313815D01*
X17777462Y1423249D01*
X17777466Y1423252D01*
X17916748Y1562534D01*
X17916751Y1562538D01*
X18026185Y1726316D01*
X18026192Y1726329D01*
X18101569Y1908307D01*
X18101572Y1908319D01*
X18139999Y2101505D01*
X18140000Y2101508D01*
X18140000Y2350000D01*
X17440000Y2350000D01*
X17440000Y2850000D01*
X18140000Y2850000D01*
X18140000Y3092907D01*
X19659500Y3092907D01*
X19659500Y2907094D01*
X19688568Y2723565D01*
X19688568Y2723562D01*
X19745986Y2546848D01*
X19803397Y2434174D01*
X19830346Y2381283D01*
X19939565Y2230956D01*
X20070956Y2099565D01*
X20221283Y1990346D01*
X20382270Y1908319D01*
X20386847Y1905987D01*
X20563562Y1848569D01*
X20563563Y1848569D01*
X20563566Y1848568D01*
X20747093Y1819500D01*
X20747094Y1819500D01*
X20932906Y1819500D01*
X20932907Y1819500D01*
X21116434Y1848568D01*
X21116437Y1848569D01*
X21116438Y1848569D01*
X21293152Y1905987D01*
X21293152Y1905988D01*
X21293155Y1905988D01*
X21458717Y1990346D01*
X21609044Y2099565D01*
X21740435Y2230956D01*
X21849654Y2381283D01*
X21934012Y2546845D01*
X21934013Y2546848D01*
X21946933Y2586611D01*
X27579500Y2586611D01*
X27579500Y2413389D01*
X27606598Y2242299D01*
X27660127Y2077555D01*
X27738768Y1923212D01*
X27840586Y1783072D01*
X27963072Y1660586D01*
X28103212Y1558768D01*
X28257555Y1480127D01*
X28422299Y1426598D01*
X28593389Y1399500D01*
X28593390Y1399500D01*
X28766610Y1399500D01*
X28766611Y1399500D01*
X28937701Y1426598D01*
X29102445Y1480127D01*
X29256788Y1558768D01*
X29396928Y1660586D01*
X29519414Y1783072D01*
X29621232Y1923212D01*
X29699873Y2077555D01*
X29753402Y2242299D01*
X29780500Y2413389D01*
X29780500Y2586611D01*
X30119500Y2586611D01*
X30119500Y2413389D01*
X30146598Y2242299D01*
X30200127Y2077555D01*
X30278768Y1923212D01*
X30380586Y1783072D01*
X30503072Y1660586D01*
X30643212Y1558768D01*
X30797555Y1480127D01*
X30962299Y1426598D01*
X31133389Y1399500D01*
X31133390Y1399500D01*
X31306610Y1399500D01*
X31306611Y1399500D01*
X31477701Y1426598D01*
X31642445Y1480127D01*
X31796788Y1558768D01*
X31936928Y1660586D01*
X32059414Y1783072D01*
X32161232Y1923212D01*
X32239873Y2077555D01*
X32293402Y2242299D01*
X32320500Y2413389D01*
X32320500Y2586611D01*
X32317830Y2603470D01*
X32709500Y2603470D01*
X32709500Y2396531D01*
X32749868Y2193588D01*
X32749870Y2193580D01*
X32818078Y2028911D01*
X32829059Y2002402D01*
X32851043Y1969500D01*
X32944024Y1830343D01*
X33090342Y1684025D01*
X33090345Y1684023D01*
X33262402Y1569059D01*
X33453580Y1489870D01*
X33656530Y1449501D01*
X33656534Y1449500D01*
X33656535Y1449500D01*
X33863466Y1449500D01*
X33863467Y1449501D01*
X34066420Y1489870D01*
X34257598Y1569059D01*
X34429655Y1684023D01*
X34575977Y1830345D01*
X34672898Y1975400D01*
X34726509Y2020204D01*
X34795834Y2028911D01*
X34858862Y1998757D01*
X34895582Y1939314D01*
X34900000Y1906508D01*
X34900000Y1552156D01*
X34906401Y1492628D01*
X34906403Y1492621D01*
X34956645Y1357914D01*
X34956649Y1357907D01*
X35042809Y1242813D01*
X35042812Y1242810D01*
X35157906Y1156650D01*
X35157913Y1156646D01*
X35292620Y1106404D01*
X35292627Y1106402D01*
X35352155Y1100001D01*
X35352172Y1100000D01*
X36050000Y1100000D01*
X36050000Y2066988D01*
X36107007Y2034075D01*
X36234174Y2000000D01*
X36365826Y2000000D01*
X36492993Y2034075D01*
X36550000Y2066988D01*
X36550000Y1100000D01*
X37247828Y1100000D01*
X37247844Y1100001D01*
X37307372Y1106402D01*
X37307379Y1106404D01*
X37442086Y1156646D01*
X37442093Y1156650D01*
X37557187Y1242810D01*
X37557190Y1242813D01*
X37643350Y1357907D01*
X37643354Y1357914D01*
X37693596Y1492621D01*
X37693598Y1492628D01*
X37699999Y1552156D01*
X37700000Y1552173D01*
X37700000Y2250000D01*
X36733012Y2250000D01*
X36765925Y2307007D01*
X36800000Y2434174D01*
X36800000Y2565826D01*
X36765925Y2692993D01*
X36733012Y2750000D01*
X37700000Y2750000D01*
X37700000Y3092907D01*
X42959500Y3092907D01*
X42959500Y2907094D01*
X42988568Y2723565D01*
X42988568Y2723562D01*
X43045986Y2546848D01*
X43103397Y2434174D01*
X43130346Y2381283D01*
X43239565Y2230956D01*
X43370956Y2099565D01*
X43521283Y1990346D01*
X43682270Y1908319D01*
X43686847Y1905987D01*
X43863562Y1848569D01*
X43863563Y1848569D01*
X43863566Y1848568D01*
X44047093Y1819500D01*
X44047094Y1819500D01*
X44232906Y1819500D01*
X44232907Y1819500D01*
X44416434Y1848568D01*
X44416437Y1848569D01*
X44416438Y1848569D01*
X44593152Y1905987D01*
X44593152Y1905988D01*
X44593155Y1905988D01*
X44758717Y1990346D01*
X44909044Y2099565D01*
X45040435Y2230956D01*
X45149654Y2381283D01*
X45234012Y2546845D01*
X45277176Y2679689D01*
X45291431Y2723562D01*
X45291431Y2723563D01*
X45291432Y2723566D01*
X45320500Y2907093D01*
X45320500Y3092907D01*
X45291432Y3276434D01*
X45291431Y3276438D01*
X45291431Y3276439D01*
X45234013Y3453153D01*
X45174971Y3569030D01*
X45149653Y3618718D01*
X45148392Y3620453D01*
X59969500Y3620453D01*
X59969500Y3379547D01*
X59991593Y3240060D01*
X60007186Y3141607D01*
X60081631Y2912488D01*
X60190999Y2697843D01*
X60332600Y2502946D01*
X60502946Y2332600D01*
X60697843Y2190999D01*
X60757693Y2160504D01*
X60912487Y2081632D01*
X60912489Y2081632D01*
X60912492Y2081630D01*
X61141607Y2007186D01*
X61379547Y1969500D01*
X61379548Y1969500D01*
X61620452Y1969500D01*
X61620453Y1969500D01*
X61858393Y2007186D01*
X62087508Y2081630D01*
X62088378Y2082073D01*
X62126521Y2101508D01*
X62302157Y2190999D01*
X62497054Y2332600D01*
X62667400Y2502946D01*
X62809001Y2697843D01*
X62918370Y2912492D01*
X62992814Y3141607D01*
X63030500Y3379547D01*
X63030500Y3620453D01*
X62992814Y3858393D01*
X62918370Y4087508D01*
X62918368Y4087511D01*
X62918368Y4087513D01*
X62809000Y4302158D01*
X62667400Y4497054D01*
X62497054Y4667400D01*
X62302157Y4809001D01*
X62087512Y4918369D01*
X61858393Y4992814D01*
X61620453Y5030500D01*
X61379547Y5030500D01*
X61260577Y5011657D01*
X61141606Y4992814D01*
X60912487Y4918369D01*
X60697842Y4809001D01*
X60502943Y4667398D01*
X60332602Y4497057D01*
X60190999Y4302158D01*
X60081631Y4087513D01*
X60007186Y3858394D01*
X59991157Y3757191D01*
X59969500Y3620453D01*
X45148392Y3620453D01*
X45040435Y3769044D01*
X44909044Y3900435D01*
X44758717Y4009654D01*
X44593152Y4094014D01*
X44416437Y4151432D01*
X44278788Y4173233D01*
X44232907Y4180500D01*
X44047093Y4180500D01*
X43985917Y4170811D01*
X43863564Y4151432D01*
X43863561Y4151432D01*
X43686847Y4094014D01*
X43521282Y4009654D01*
X43455105Y3961573D01*
X43370956Y3900435D01*
X43370954Y3900433D01*
X43370953Y3900433D01*
X43239567Y3769047D01*
X43239567Y3769046D01*
X43239565Y3769044D01*
X43192659Y3704485D01*
X43130346Y3618718D01*
X43045986Y3453153D01*
X42988568Y3276439D01*
X42988568Y3276436D01*
X42959500Y3092907D01*
X37700000Y3092907D01*
X37700000Y3447828D01*
X37699999Y3447845D01*
X37693598Y3507373D01*
X37693596Y3507380D01*
X37643354Y3642087D01*
X37643350Y3642094D01*
X37557190Y3757188D01*
X37557187Y3757191D01*
X37442093Y3843351D01*
X37442086Y3843355D01*
X37307379Y3893597D01*
X37307372Y3893599D01*
X37247844Y3900000D01*
X36550000Y3900000D01*
X36550000Y2933012D01*
X36492993Y2965925D01*
X36365826Y3000000D01*
X36234174Y3000000D01*
X36107007Y2965925D01*
X36050000Y2933012D01*
X36050000Y3900000D01*
X35352155Y3900000D01*
X35292627Y3893599D01*
X35292620Y3893597D01*
X35157913Y3843355D01*
X35157906Y3843351D01*
X35042812Y3757191D01*
X35042809Y3757188D01*
X34956649Y3642094D01*
X34956645Y3642087D01*
X34906403Y3507380D01*
X34906401Y3507373D01*
X34900000Y3447845D01*
X34900000Y3093493D01*
X34880315Y3026454D01*
X34827511Y2980699D01*
X34758353Y2970755D01*
X34694797Y2999780D01*
X34672898Y3024603D01*
X34575980Y3169651D01*
X34575974Y3169659D01*
X34429657Y3315976D01*
X34334514Y3379548D01*
X34257598Y3430941D01*
X34232753Y3441232D01*
X34066420Y3510130D01*
X34066412Y3510132D01*
X33863469Y3550500D01*
X33863465Y3550500D01*
X33656535Y3550500D01*
X33656530Y3550500D01*
X33453587Y3510132D01*
X33453579Y3510130D01*
X33262403Y3430942D01*
X33090342Y3315976D01*
X32944024Y3169658D01*
X32829058Y2997597D01*
X32749870Y2806421D01*
X32749868Y2806413D01*
X32709500Y2603470D01*
X32317830Y2603470D01*
X32293402Y2757701D01*
X32239873Y2922445D01*
X32161232Y3076788D01*
X32059414Y3216928D01*
X31936928Y3339414D01*
X31796788Y3441232D01*
X31642445Y3519873D01*
X31477701Y3573402D01*
X31477699Y3573403D01*
X31477698Y3573403D01*
X31346271Y3594219D01*
X31306611Y3600500D01*
X31133389Y3600500D01*
X31093728Y3594219D01*
X30962302Y3573403D01*
X30797552Y3519872D01*
X30643211Y3441232D01*
X30563256Y3383141D01*
X30503072Y3339414D01*
X30503070Y3339412D01*
X30503069Y3339412D01*
X30380588Y3216931D01*
X30380588Y3216930D01*
X30380586Y3216928D01*
X30346243Y3169659D01*
X30278768Y3076789D01*
X30200128Y2922448D01*
X30146597Y2757698D01*
X30122170Y2603470D01*
X30119500Y2586611D01*
X29780500Y2586611D01*
X29753402Y2757701D01*
X29699873Y2922445D01*
X29621232Y3076788D01*
X29519414Y3216928D01*
X29396928Y3339414D01*
X29256788Y3441232D01*
X29102445Y3519873D01*
X28937701Y3573402D01*
X28937699Y3573403D01*
X28937698Y3573403D01*
X28806271Y3594219D01*
X28766611Y3600500D01*
X28593389Y3600500D01*
X28553728Y3594219D01*
X28422302Y3573403D01*
X28257552Y3519872D01*
X28103211Y3441232D01*
X28023256Y3383141D01*
X27963072Y3339414D01*
X27963070Y3339412D01*
X27963069Y3339412D01*
X27840588Y3216931D01*
X27840588Y3216930D01*
X27840586Y3216928D01*
X27806243Y3169659D01*
X27738768Y3076789D01*
X27660128Y2922448D01*
X27606597Y2757698D01*
X27582170Y2603470D01*
X27579500Y2586611D01*
X21946933Y2586611D01*
X21960967Y2629801D01*
X21991431Y2723562D01*
X21991431Y2723563D01*
X21991432Y2723566D01*
X22020500Y2907093D01*
X22020500Y3092907D01*
X21991432Y3276434D01*
X21991431Y3276438D01*
X21991431Y3276439D01*
X21934013Y3453153D01*
X21923551Y3473685D01*
X21849654Y3618717D01*
X21740435Y3769044D01*
X21609044Y3900435D01*
X21458717Y4009654D01*
X21293152Y4094014D01*
X21116437Y4151432D01*
X20978788Y4173233D01*
X20932907Y4180500D01*
X20747093Y4180500D01*
X20685917Y4170811D01*
X20563564Y4151432D01*
X20563561Y4151432D01*
X20386847Y4094014D01*
X20221282Y4009654D01*
X20155105Y3961573D01*
X20070956Y3900435D01*
X20070954Y3900433D01*
X20070953Y3900433D01*
X19939567Y3769047D01*
X19939567Y3769046D01*
X19939565Y3769044D01*
X19892659Y3704485D01*
X19830346Y3618718D01*
X19745986Y3453153D01*
X19688568Y3276439D01*
X19688568Y3276436D01*
X19659500Y3092907D01*
X18140000Y3092907D01*
X18140000Y3098492D01*
X18139999Y3098496D01*
X18101572Y3291682D01*
X18101569Y3291694D01*
X18026192Y3473672D01*
X18026185Y3473685D01*
X17916751Y3637463D01*
X17916748Y3637467D01*
X17777466Y3776749D01*
X17777462Y3776752D01*
X17613684Y3886186D01*
X17613671Y3886193D01*
X17431691Y3961571D01*
X17431683Y3961573D01*
X17390000Y3969865D01*
X17390000Y3166989D01*
X17380060Y3184205D01*
X17324205Y3240060D01*
X17255796Y3279556D01*
X17179496Y3300000D01*
X17100504Y3300000D01*
X17024204Y3279556D01*
X16955795Y3240060D01*
X16899940Y3184205D01*
X16890000Y3166989D01*
X16890000Y3969864D01*
X16889999Y3969865D01*
X16848316Y3961573D01*
X16848308Y3961571D01*
X16666328Y3886193D01*
X16666315Y3886186D01*
X16502537Y3776752D01*
X16502533Y3776749D01*
X16363251Y3637467D01*
X16363248Y3637463D01*
X16253814Y3473685D01*
X16253807Y3473672D01*
X16178430Y3291694D01*
X16178427Y3291682D01*
X16140000Y3098496D01*
X9499999Y3098496D01*
X9461572Y3291682D01*
X9461569Y3291694D01*
X9386192Y3473672D01*
X9386185Y3473685D01*
X9276751Y3637463D01*
X9276748Y3637467D01*
X9137466Y3776749D01*
X9137462Y3776752D01*
X8973684Y3886186D01*
X8973671Y3886193D01*
X8791691Y3961571D01*
X8791683Y3961573D01*
X8750000Y3969865D01*
X8750000Y3166989D01*
X8740060Y3184205D01*
X8684205Y3240060D01*
X8615796Y3279556D01*
X8539496Y3300000D01*
X8460504Y3300000D01*
X8384204Y3279556D01*
X8315795Y3240060D01*
X8259940Y3184205D01*
X8250000Y3166989D01*
X8250000Y3969864D01*
X8249999Y3969865D01*
X8208316Y3961573D01*
X8208308Y3961571D01*
X8026328Y3886193D01*
X8026315Y3886186D01*
X7862537Y3776752D01*
X7862533Y3776749D01*
X7723251Y3637467D01*
X7723248Y3637463D01*
X7613814Y3473685D01*
X7613807Y3473672D01*
X7538430Y3291694D01*
X7538427Y3291682D01*
X7500000Y3098496D01*
X4978806Y3098496D01*
X4992814Y3141607D01*
X5030500Y3379547D01*
X5030500Y3620453D01*
X4992814Y3858393D01*
X4918370Y4087508D01*
X4918368Y4087511D01*
X4918368Y4087513D01*
X4809000Y4302158D01*
X4667400Y4497054D01*
X4497054Y4667400D01*
X4302157Y4809001D01*
X4087512Y4918369D01*
X3858393Y4992814D01*
X3620453Y5030500D01*
X3379547Y5030500D01*
X3260577Y5011657D01*
X3141606Y4992814D01*
X2912487Y4918369D01*
X2697842Y4809001D01*
X2502943Y4667398D01*
X2332602Y4497057D01*
X2190999Y4302158D01*
X2081631Y4087513D01*
X2007186Y3858394D01*
X1991157Y3757191D01*
X1969500Y3620453D01*
X200500Y3620453D01*
X200500Y7428496D01*
X7500000Y7428496D01*
X7500000Y7030000D01*
X8200000Y7030000D01*
X8200000Y6530000D01*
X7500000Y6530000D01*
X7500000Y6131505D01*
X7538427Y5938319D01*
X7538430Y5938307D01*
X7613807Y5756329D01*
X7613814Y5756316D01*
X7723248Y5592538D01*
X7723251Y5592534D01*
X7862533Y5453252D01*
X7862537Y5453249D01*
X8026315Y5343815D01*
X8026328Y5343808D01*
X8208308Y5268431D01*
X8250000Y5260138D01*
X8250000Y6063012D01*
X8259940Y6045795D01*
X8315795Y5989940D01*
X8384204Y5950444D01*
X8460504Y5930000D01*
X8539496Y5930000D01*
X8615796Y5950444D01*
X8684205Y5989940D01*
X8740060Y6045795D01*
X8750000Y6063012D01*
X8750000Y5260138D01*
X8791690Y5268431D01*
X8791692Y5268431D01*
X8973671Y5343808D01*
X8973684Y5343815D01*
X9137462Y5453249D01*
X9137466Y5453252D01*
X9276748Y5592534D01*
X9276751Y5592538D01*
X9386185Y5756316D01*
X9386187Y5756320D01*
X9418445Y5834198D01*
X9462286Y5888602D01*
X9528580Y5910667D01*
X9596279Y5893388D01*
X9613083Y5880334D01*
X9613170Y5880446D01*
X9619610Y5875505D01*
X9619616Y5875499D01*
X9734884Y5808949D01*
X9863450Y5774500D01*
X9863452Y5774500D01*
X9996548Y5774500D01*
X9996550Y5774500D01*
X10125116Y5808949D01*
X10240384Y5875499D01*
X10334501Y5969616D01*
X10401051Y6084884D01*
X10435500Y6213450D01*
X10435500Y6346550D01*
X15204500Y6346550D01*
X15204500Y6213450D01*
X15238949Y6084884D01*
X15305499Y5969616D01*
X15399616Y5875499D01*
X15514884Y5808949D01*
X15643450Y5774500D01*
X15643452Y5774500D01*
X15776548Y5774500D01*
X15776550Y5774500D01*
X15905116Y5808949D01*
X16020384Y5875499D01*
X16020392Y5875508D01*
X16026830Y5880446D01*
X16027865Y5879096D01*
X16080621Y5907909D01*
X16150313Y5902932D01*
X16206251Y5861067D01*
X16221553Y5834199D01*
X16253809Y5756326D01*
X16253814Y5756316D01*
X16363248Y5592538D01*
X16363251Y5592534D01*
X16502533Y5453252D01*
X16502537Y5453249D01*
X16666315Y5343815D01*
X16666328Y5343808D01*
X16848308Y5268431D01*
X16890000Y5260138D01*
X16890000Y6063012D01*
X16899940Y6045795D01*
X16955795Y5989940D01*
X17024204Y5950444D01*
X17100504Y5930000D01*
X17179496Y5930000D01*
X17255796Y5950444D01*
X17324205Y5989940D01*
X17380060Y6045795D01*
X17390000Y6063012D01*
X17390000Y5260138D01*
X17431690Y5268431D01*
X17431692Y5268431D01*
X17613671Y5343808D01*
X17613684Y5343815D01*
X17777462Y5453249D01*
X17777466Y5453252D01*
X17916748Y5592534D01*
X17916751Y5592538D01*
X18026185Y5756316D01*
X18026192Y5756329D01*
X18101569Y5938307D01*
X18101572Y5938319D01*
X18139999Y6131505D01*
X18140000Y6131508D01*
X18140000Y6454457D01*
X26298100Y6454457D01*
X26298100Y6296343D01*
X26326460Y6190504D01*
X26339023Y6143617D01*
X26339026Y6143610D01*
X26418075Y6006691D01*
X26418079Y6006686D01*
X26418080Y6006684D01*
X26529884Y5894880D01*
X26529886Y5894879D01*
X26529890Y5894876D01*
X26634989Y5834198D01*
X26666816Y5815823D01*
X26819543Y5774900D01*
X26881345Y5774900D01*
X26948384Y5755215D01*
X26969026Y5738581D01*
X27238518Y5469090D01*
X27238520Y5469087D01*
X27313087Y5394520D01*
X27354667Y5370514D01*
X27404413Y5341793D01*
X27506273Y5314499D01*
X27506275Y5314499D01*
X27619323Y5314499D01*
X27619339Y5314500D01*
X33259902Y5314500D01*
X33326941Y5294815D01*
X33347583Y5278181D01*
X33391284Y5234480D01*
X33391286Y5234479D01*
X33391290Y5234476D01*
X33528209Y5155427D01*
X33528216Y5155423D01*
X33680943Y5114500D01*
X33680945Y5114500D01*
X33839055Y5114500D01*
X33839057Y5114500D01*
X33991784Y5155423D01*
X34128716Y5234480D01*
X34240520Y5346284D01*
X34319577Y5483216D01*
X34360500Y5635943D01*
X34360500Y5794057D01*
X34319577Y5946784D01*
X34284990Y6006691D01*
X34240524Y6083710D01*
X34240518Y6083718D01*
X34128717Y6195519D01*
X34128709Y6195525D01*
X33991790Y6274574D01*
X33991786Y6274576D01*
X33991784Y6274577D01*
X33839057Y6315500D01*
X33680943Y6315500D01*
X33528216Y6274577D01*
X33528209Y6274574D01*
X33391290Y6195525D01*
X33391282Y6195519D01*
X33347583Y6151819D01*
X33286260Y6118334D01*
X33259902Y6115500D01*
X27776254Y6115500D01*
X27746813Y6124145D01*
X27716827Y6130668D01*
X27711811Y6134423D01*
X27709215Y6135185D01*
X27688577Y6151815D01*
X27535416Y6304976D01*
X27501934Y6366297D01*
X27499100Y6392655D01*
X27499100Y6454455D01*
X27499100Y6454457D01*
X27458177Y6607184D01*
X27413540Y6684499D01*
X27379124Y6744110D01*
X27379118Y6744118D01*
X27267317Y6855919D01*
X27267309Y6855925D01*
X27130390Y6934974D01*
X27130386Y6934976D01*
X27130384Y6934977D01*
X26977657Y6975900D01*
X26819543Y6975900D01*
X26666816Y6934977D01*
X26666809Y6934974D01*
X26529890Y6855925D01*
X26529882Y6855919D01*
X26418081Y6744118D01*
X26418075Y6744110D01*
X26339026Y6607191D01*
X26339023Y6607184D01*
X26298100Y6454457D01*
X18140000Y6454457D01*
X18140000Y6530000D01*
X17440000Y6530000D01*
X17440000Y7030000D01*
X18140000Y7030000D01*
X18140000Y7428492D01*
X18139999Y7428496D01*
X18101572Y7621682D01*
X18101569Y7621694D01*
X18026192Y7803672D01*
X18026185Y7803685D01*
X17916751Y7967463D01*
X17916748Y7967467D01*
X17777465Y8106750D01*
X17764996Y8115081D01*
X17764995Y8115082D01*
X17622857Y8210057D01*
X28079500Y8210057D01*
X28079500Y8051943D01*
X28102137Y7967463D01*
X28120423Y7899217D01*
X28120426Y7899210D01*
X28199475Y7762291D01*
X28199479Y7762286D01*
X28199480Y7762284D01*
X28311284Y7650480D01*
X28311286Y7650479D01*
X28311290Y7650476D01*
X28382167Y7609556D01*
X28448216Y7571423D01*
X28600943Y7530500D01*
X28600945Y7530500D01*
X28759055Y7530500D01*
X28759057Y7530500D01*
X28911784Y7571423D01*
X29048716Y7650480D01*
X29160520Y7762284D01*
X29239577Y7899216D01*
X29280500Y8051943D01*
X29280500Y8210057D01*
X29280500Y8218185D01*
X29283680Y8218185D01*
X29292112Y8272421D01*
X29316626Y8307301D01*
X29918508Y8909181D01*
X29979831Y8942666D01*
X30006189Y8945500D01*
X31429170Y8945500D01*
X31496209Y8925815D01*
X31516679Y8906978D01*
X31517733Y8908031D01*
X31523480Y8902284D01*
X31635284Y8790480D01*
X31635286Y8790479D01*
X31635290Y8790476D01*
X31732860Y8734145D01*
X31772216Y8711423D01*
X31924943Y8670500D01*
X31924945Y8670500D01*
X32083055Y8670500D01*
X32083057Y8670500D01*
X32235784Y8711423D01*
X32372716Y8790480D01*
X32484520Y8902284D01*
X32563577Y9039216D01*
X32604500Y9191943D01*
X32604500Y9350057D01*
X32563577Y9502784D01*
X32523071Y9572943D01*
X32484524Y9639710D01*
X32484518Y9639718D01*
X32393179Y9731057D01*
X47532500Y9731057D01*
X47532500Y9572943D01*
X47543615Y9531464D01*
X47573423Y9420217D01*
X47573426Y9420210D01*
X47652475Y9283291D01*
X47652481Y9283283D01*
X47770031Y9165733D01*
X47767785Y9163488D01*
X47800179Y9119145D01*
X47807500Y9077170D01*
X47807500Y7559831D01*
X47787815Y7492792D01*
X47768982Y7472316D01*
X47770031Y7471267D01*
X47652481Y7353718D01*
X47652475Y7353710D01*
X47573426Y7216791D01*
X47573423Y7216784D01*
X47532500Y7064057D01*
X47532500Y6905943D01*
X47545903Y6855925D01*
X47573423Y6753217D01*
X47573426Y6753210D01*
X47652475Y6616291D01*
X47652479Y6616286D01*
X47652480Y6616284D01*
X47764284Y6504480D01*
X47764286Y6504479D01*
X47764290Y6504476D01*
X47901209Y6425427D01*
X47901216Y6425423D01*
X48053943Y6384500D01*
X48053945Y6384500D01*
X48212055Y6384500D01*
X48212057Y6384500D01*
X48364784Y6425423D01*
X48501716Y6504480D01*
X48613520Y6616284D01*
X48692577Y6753216D01*
X48733500Y6905943D01*
X48733500Y7064057D01*
X48692577Y7216784D01*
X48692573Y7216791D01*
X48613524Y7353710D01*
X48613518Y7353718D01*
X48495969Y7471267D01*
X48498207Y7473506D01*
X48465798Y7517920D01*
X48458500Y7559831D01*
X48458500Y9077170D01*
X48478185Y9144209D01*
X48497022Y9164680D01*
X48495969Y9165733D01*
X48522181Y9191945D01*
X48613520Y9283284D01*
X48692577Y9420216D01*
X48733500Y9572943D01*
X48733500Y9731057D01*
X48692577Y9883784D01*
X48692573Y9883791D01*
X48613524Y10020710D01*
X48613518Y10020718D01*
X48501717Y10132519D01*
X48501709Y10132525D01*
X48364790Y10211574D01*
X48364786Y10211576D01*
X48364784Y10211577D01*
X48212057Y10252500D01*
X48053943Y10252500D01*
X47901216Y10211577D01*
X47901209Y10211574D01*
X47764290Y10132525D01*
X47764282Y10132519D01*
X47652481Y10020718D01*
X47652475Y10020710D01*
X47573426Y9883791D01*
X47573423Y9883784D01*
X47532500Y9731057D01*
X32393179Y9731057D01*
X32372717Y9751519D01*
X32372709Y9751525D01*
X32235790Y9830574D01*
X32235786Y9830576D01*
X32235784Y9830577D01*
X32083057Y9871500D01*
X31924943Y9871500D01*
X31772216Y9830577D01*
X31772209Y9830574D01*
X31635290Y9751525D01*
X31635282Y9751519D01*
X31517733Y9633969D01*
X31515487Y9636215D01*
X31471145Y9603821D01*
X31429170Y9596500D01*
X29777147Y9596500D01*
X29694362Y9574318D01*
X29694355Y9574315D01*
X29620144Y9531470D01*
X29620136Y9531464D01*
X28856301Y8767630D01*
X28794978Y8734145D01*
X28767184Y8732986D01*
X28767184Y8731500D01*
X28600943Y8731500D01*
X28448216Y8690577D01*
X28448209Y8690574D01*
X28311290Y8611525D01*
X28311282Y8611519D01*
X28199481Y8499718D01*
X28199475Y8499710D01*
X28120426Y8362791D01*
X28120423Y8362784D01*
X28079500Y8210057D01*
X17622857Y8210057D01*
X17613684Y8216186D01*
X17613671Y8216193D01*
X17431691Y8291571D01*
X17431683Y8291573D01*
X17390000Y8299865D01*
X17390000Y7496989D01*
X17380060Y7514205D01*
X17324205Y7570060D01*
X17255796Y7609556D01*
X17179496Y7630000D01*
X17100504Y7630000D01*
X17024204Y7609556D01*
X16955795Y7570060D01*
X16899940Y7514205D01*
X16890000Y7496989D01*
X16890000Y8299864D01*
X16889999Y8299865D01*
X16848316Y8291573D01*
X16848308Y8291571D01*
X16666328Y8216193D01*
X16666315Y8216186D01*
X16502537Y8106752D01*
X16502533Y8106749D01*
X16363251Y7967467D01*
X16363248Y7967463D01*
X16253814Y7803685D01*
X16253807Y7803672D01*
X16178430Y7621694D01*
X16178427Y7621682D01*
X16140000Y7428496D01*
X16140000Y7030000D01*
X16840000Y7030000D01*
X16840000Y6530000D01*
X16220955Y6530000D01*
X16153916Y6549685D01*
X16120493Y6584737D01*
X16119449Y6583935D01*
X16114503Y6590381D01*
X16114501Y6590384D01*
X16020384Y6684501D01*
X15905116Y6751051D01*
X15776550Y6785500D01*
X15643450Y6785500D01*
X15514884Y6751051D01*
X15514881Y6751050D01*
X15399619Y6684503D01*
X15399613Y6684499D01*
X15305501Y6590387D01*
X15305497Y6590381D01*
X15238950Y6475119D01*
X15238949Y6475116D01*
X15204500Y6346550D01*
X10435500Y6346550D01*
X10401051Y6475116D01*
X10334501Y6590384D01*
X10240384Y6684501D01*
X10125116Y6751051D01*
X9996550Y6785500D01*
X9863450Y6785500D01*
X9734884Y6751051D01*
X9734881Y6751050D01*
X9619619Y6684503D01*
X9619613Y6684499D01*
X9525501Y6590387D01*
X9520551Y6583935D01*
X9519122Y6585031D01*
X9475865Y6543784D01*
X9419045Y6530000D01*
X8800000Y6530000D01*
X8800000Y7030000D01*
X9500000Y7030000D01*
X9500000Y7428492D01*
X9499999Y7428496D01*
X9461572Y7621682D01*
X9461569Y7621694D01*
X9386192Y7803672D01*
X9386185Y7803685D01*
X9276751Y7967463D01*
X9276748Y7967467D01*
X9137466Y8106749D01*
X9137462Y8106752D01*
X8973684Y8216186D01*
X8973671Y8216193D01*
X8791691Y8291571D01*
X8791683Y8291573D01*
X8750000Y8299865D01*
X8750000Y7496989D01*
X8740060Y7514205D01*
X8684205Y7570060D01*
X8615796Y7609556D01*
X8539496Y7630000D01*
X8460504Y7630000D01*
X8384204Y7609556D01*
X8315795Y7570060D01*
X8259940Y7514205D01*
X8250000Y7496989D01*
X8250000Y8299864D01*
X8249999Y8299865D01*
X8208316Y8291573D01*
X8208308Y8291571D01*
X8026328Y8216193D01*
X8026315Y8216186D01*
X7862537Y8106752D01*
X7862533Y8106749D01*
X7723251Y7967467D01*
X7723248Y7967463D01*
X7613814Y7803685D01*
X7613807Y7803672D01*
X7538430Y7621694D01*
X7538427Y7621682D01*
X7500000Y7428496D01*
X200500Y7428496D01*
X200500Y10620057D01*
X9178500Y10620057D01*
X9178500Y10461943D01*
X9216853Y10318810D01*
X9219423Y10309217D01*
X9219426Y10309210D01*
X9298475Y10172291D01*
X9298479Y10172286D01*
X9298480Y10172284D01*
X9410284Y10060480D01*
X9410286Y10060479D01*
X9410290Y10060476D01*
X9479168Y10020710D01*
X9547216Y9981423D01*
X9699943Y9940500D01*
X9699945Y9940500D01*
X9858055Y9940500D01*
X9858057Y9940500D01*
X10010784Y9981423D01*
X10147716Y10060480D01*
X10191417Y10104181D01*
X10252740Y10137666D01*
X10279098Y10140500D01*
X11788014Y10140500D01*
X11855053Y10120815D01*
X11875695Y10104181D01*
X11879385Y10100491D01*
X11879386Y10100490D01*
X11879388Y10100489D01*
X12004911Y10028018D01*
X12004912Y10028018D01*
X12004915Y10028016D01*
X12144925Y9990500D01*
X12144928Y9990500D01*
X12289872Y9990500D01*
X12289875Y9990500D01*
X12429885Y10028016D01*
X12555415Y10100491D01*
X12559105Y10104181D01*
X12620428Y10137666D01*
X12646786Y10140500D01*
X14114725Y10140500D01*
X14114727Y10140500D01*
X14216588Y10167793D01*
X14307913Y10220520D01*
X14499574Y10412181D01*
X14560897Y10445666D01*
X14587255Y10448500D01*
X14649055Y10448500D01*
X14649057Y10448500D01*
X14801784Y10489423D01*
X14938716Y10568480D01*
X14998392Y10628156D01*
X44085000Y10628156D01*
X44091401Y10568628D01*
X44091403Y10568621D01*
X44141645Y10433914D01*
X44141649Y10433907D01*
X44227809Y10318813D01*
X44227812Y10318810D01*
X44342906Y10232650D01*
X44342913Y10232646D01*
X44477620Y10182404D01*
X44477627Y10182402D01*
X44537155Y10176001D01*
X44537172Y10176000D01*
X44835000Y10176000D01*
X45335000Y10176000D01*
X45632828Y10176000D01*
X45632844Y10176001D01*
X45692372Y10182402D01*
X45692379Y10182404D01*
X45827086Y10232646D01*
X45827093Y10232650D01*
X45942187Y10318810D01*
X45942190Y10318813D01*
X46028350Y10433907D01*
X46028354Y10433914D01*
X46078596Y10568621D01*
X46078598Y10568628D01*
X46084999Y10628156D01*
X46085000Y10628173D01*
X46085000Y10926000D01*
X45335000Y10926000D01*
X45335000Y10176000D01*
X44835000Y10176000D01*
X44835000Y10926000D01*
X44085000Y10926000D01*
X44085000Y10628156D01*
X14998392Y10628156D01*
X15050520Y10680284D01*
X15129577Y10817216D01*
X15170500Y10969943D01*
X15170500Y11128057D01*
X15144329Y11225728D01*
X44835000Y11225728D01*
X44835000Y11126272D01*
X44873060Y11034386D01*
X44943386Y10964060D01*
X45035272Y10926000D01*
X45134728Y10926000D01*
X45226614Y10964060D01*
X45296940Y11034386D01*
X45335000Y11126272D01*
X45335000Y11225728D01*
X45296940Y11317614D01*
X45226614Y11387940D01*
X45134728Y11426000D01*
X45335000Y11426000D01*
X46085000Y11426000D01*
X46085000Y11723828D01*
X46084999Y11723845D01*
X46078598Y11783373D01*
X46078596Y11783380D01*
X46028354Y11918087D01*
X46028350Y11918094D01*
X45942190Y12033188D01*
X45942187Y12033191D01*
X45827093Y12119351D01*
X45827086Y12119355D01*
X45692379Y12169597D01*
X45692372Y12169599D01*
X45632844Y12176000D01*
X45335000Y12176000D01*
X45335000Y11426000D01*
X45134728Y11426000D01*
X45035272Y11426000D01*
X44943386Y11387940D01*
X44873060Y11317614D01*
X44835000Y11225728D01*
X15144329Y11225728D01*
X15129577Y11280784D01*
X15129573Y11280791D01*
X15050524Y11417710D01*
X15050518Y11417718D01*
X14938717Y11529519D01*
X14938709Y11529525D01*
X14801790Y11608574D01*
X14801786Y11608576D01*
X14801785Y11608577D01*
X14801784Y11608577D01*
X14649057Y11649500D01*
X14490943Y11649500D01*
X14338216Y11608577D01*
X14338209Y11608574D01*
X14201290Y11529525D01*
X14201282Y11529519D01*
X14089481Y11417718D01*
X14089475Y11417710D01*
X14010426Y11280791D01*
X14010423Y11280784D01*
X13969500Y11128057D01*
X13969500Y11066255D01*
X13960855Y11036815D01*
X13954332Y11006828D01*
X13950577Y11001813D01*
X13949815Y10999216D01*
X13933181Y10978574D01*
X13932426Y10977819D01*
X13871103Y10944334D01*
X13844745Y10941500D01*
X12646786Y10941500D01*
X12579747Y10961185D01*
X12559105Y10977819D01*
X12555417Y10981507D01*
X12555411Y10981512D01*
X12429888Y11053983D01*
X12429889Y11053983D01*
X12418406Y11057060D01*
X12289875Y11091500D01*
X12144925Y11091500D01*
X12016393Y11057060D01*
X12004911Y11053983D01*
X11879388Y10981512D01*
X11879382Y10981507D01*
X11875695Y10977819D01*
X11814372Y10944334D01*
X11788014Y10941500D01*
X10279098Y10941500D01*
X10212059Y10961185D01*
X10191417Y10977819D01*
X10147717Y11021519D01*
X10147709Y11021525D01*
X10010790Y11100574D01*
X10010786Y11100576D01*
X10010784Y11100577D01*
X9858057Y11141500D01*
X9699943Y11141500D01*
X9547216Y11100577D01*
X9547209Y11100574D01*
X9410290Y11021525D01*
X9410282Y11021519D01*
X9298481Y10909718D01*
X9298475Y10909710D01*
X9219426Y10772791D01*
X9219423Y10772784D01*
X9178500Y10620057D01*
X200500Y10620057D01*
X200500Y11723845D01*
X44085000Y11723845D01*
X44085000Y11426000D01*
X44835000Y11426000D01*
X44835000Y12176000D01*
X44537155Y12176000D01*
X44477627Y12169599D01*
X44477620Y12169597D01*
X44342913Y12119355D01*
X44342906Y12119351D01*
X44227812Y12033191D01*
X44227809Y12033188D01*
X44141649Y11918094D01*
X44141645Y11918087D01*
X44091403Y11783380D01*
X44091401Y11783373D01*
X44085000Y11723845D01*
X200500Y11723845D01*
X200500Y12693178D01*
X44434499Y12693178D01*
X44443231Y12649283D01*
X44443232Y12649279D01*
X44443233Y12649278D01*
X44476496Y12599496D01*
X44526278Y12566233D01*
X44526281Y12566233D01*
X44526282Y12566232D01*
X44570177Y12557500D01*
X44570180Y12557500D01*
X45599822Y12557500D01*
X45643717Y12566232D01*
X45643717Y12566233D01*
X45643722Y12566233D01*
X45693504Y12599496D01*
X45726767Y12649278D01*
X45735500Y12693180D01*
X45735500Y12775500D01*
X45755185Y12842539D01*
X45807989Y12888294D01*
X45859500Y12899500D01*
X46124167Y12899500D01*
X46191206Y12879815D01*
X46211848Y12863181D01*
X48210540Y10864489D01*
X48266489Y10808540D01*
X48266491Y10808539D01*
X48266495Y10808536D01*
X48335004Y10768983D01*
X48335011Y10768979D01*
X48411438Y10748500D01*
X51413614Y10748500D01*
X51480653Y10728815D01*
X51501295Y10712181D01*
X51502491Y10710985D01*
X51604985Y10608491D01*
X51604986Y10608490D01*
X51604988Y10608489D01*
X51730511Y10536018D01*
X51730512Y10536018D01*
X51730515Y10536016D01*
X51870525Y10498500D01*
X51870528Y10498500D01*
X52015472Y10498500D01*
X52015475Y10498500D01*
X52155485Y10536016D01*
X52281015Y10608491D01*
X52383509Y10710985D01*
X52455984Y10836515D01*
X52493500Y10976525D01*
X52493500Y11121475D01*
X52455984Y11261485D01*
X52405168Y11349500D01*
X52383511Y11387012D01*
X52383506Y11387018D01*
X52281017Y11489507D01*
X52281011Y11489512D01*
X52155488Y11561983D01*
X52155489Y11561983D01*
X52144006Y11565060D01*
X52015475Y11599500D01*
X51870525Y11599500D01*
X51741993Y11565060D01*
X51730511Y11561983D01*
X51604988Y11489512D01*
X51604982Y11489507D01*
X51501295Y11385819D01*
X51439972Y11352334D01*
X51413614Y11349500D01*
X48626833Y11349500D01*
X48559794Y11369185D01*
X48539152Y11385819D01*
X46994501Y12930470D01*
X49079500Y12930470D01*
X49079500Y12723531D01*
X49119868Y12520588D01*
X49119870Y12520580D01*
X49199058Y12329404D01*
X49314024Y12157343D01*
X49460342Y12011025D01*
X49460345Y12011023D01*
X49632402Y11896059D01*
X49823580Y11816870D01*
X49991947Y11783380D01*
X50026530Y11776501D01*
X50026534Y11776500D01*
X50026535Y11776500D01*
X50233466Y11776500D01*
X50233467Y11776501D01*
X50436420Y11816870D01*
X50627598Y11896059D01*
X50799655Y12011023D01*
X50945977Y12157345D01*
X51060941Y12329402D01*
X51140130Y12520580D01*
X51180500Y12723535D01*
X51180500Y12930465D01*
X51180499Y12930470D01*
X52629500Y12930470D01*
X52629500Y12723531D01*
X52669868Y12520588D01*
X52669870Y12520580D01*
X52749058Y12329404D01*
X52864024Y12157343D01*
X53010342Y12011025D01*
X53010345Y12011023D01*
X53182402Y11896059D01*
X53373580Y11816870D01*
X53541947Y11783380D01*
X53576530Y11776501D01*
X53576534Y11776500D01*
X53576535Y11776500D01*
X53783466Y11776500D01*
X53783467Y11776501D01*
X53986420Y11816870D01*
X54177598Y11896059D01*
X54349655Y12011023D01*
X54495977Y12157345D01*
X54610941Y12329402D01*
X54690130Y12520580D01*
X54730500Y12723535D01*
X54730500Y12930465D01*
X54690130Y13133420D01*
X54610941Y13324598D01*
X54495977Y13496655D01*
X54495975Y13496658D01*
X54349657Y13642976D01*
X54231362Y13722017D01*
X54177598Y13757941D01*
X54176644Y13758336D01*
X53986420Y13837130D01*
X53986412Y13837132D01*
X53783469Y13877500D01*
X53783465Y13877500D01*
X53576535Y13877500D01*
X53576530Y13877500D01*
X53373587Y13837132D01*
X53373579Y13837130D01*
X53182403Y13757942D01*
X53010342Y13642976D01*
X52864024Y13496658D01*
X52749058Y13324597D01*
X52669870Y13133421D01*
X52669868Y13133413D01*
X52629500Y12930470D01*
X51180499Y12930470D01*
X51140130Y13133420D01*
X51060941Y13324598D01*
X50945977Y13496655D01*
X50945975Y13496658D01*
X50799657Y13642976D01*
X50681362Y13722017D01*
X50627598Y13757941D01*
X50626644Y13758336D01*
X50436420Y13837130D01*
X50436412Y13837132D01*
X50233469Y13877500D01*
X50233465Y13877500D01*
X50026535Y13877500D01*
X50026530Y13877500D01*
X49823587Y13837132D01*
X49823579Y13837130D01*
X49632403Y13757942D01*
X49460342Y13642976D01*
X49314024Y13496658D01*
X49199058Y13324597D01*
X49119870Y13133421D01*
X49119868Y13133413D01*
X49079500Y12930470D01*
X46994501Y12930470D01*
X46484512Y13440459D01*
X46484507Y13440463D01*
X46471843Y13447774D01*
X46471841Y13447775D01*
X46415991Y13480020D01*
X46415990Y13480021D01*
X46390513Y13486848D01*
X46339562Y13500500D01*
X46339560Y13500500D01*
X45859500Y13500500D01*
X45792461Y13520185D01*
X45746706Y13572989D01*
X45735500Y13624500D01*
X45735500Y13722823D01*
X45726768Y13766718D01*
X45726767Y13766719D01*
X45726767Y13766722D01*
X45693504Y13816504D01*
X45662632Y13837132D01*
X45643724Y13849766D01*
X45643717Y13849769D01*
X45599822Y13858500D01*
X45599820Y13858500D01*
X44570180Y13858500D01*
X44570178Y13858500D01*
X44526282Y13849769D01*
X44526275Y13849766D01*
X44476496Y13816505D01*
X44476495Y13816504D01*
X44443234Y13766725D01*
X44443231Y13766718D01*
X44434500Y13722823D01*
X44434500Y13722820D01*
X44434500Y12693180D01*
X44434500Y12693178D01*
X44434499Y12693178D01*
X200500Y12693178D01*
X200500Y13388657D01*
X5240900Y13388657D01*
X5240900Y13230544D01*
X5281823Y13077817D01*
X5281826Y13077810D01*
X5360875Y12940891D01*
X5360879Y12940886D01*
X5360880Y12940884D01*
X5472684Y12829080D01*
X5472686Y12829079D01*
X5472690Y12829076D01*
X5565488Y12775500D01*
X5609616Y12750023D01*
X5762343Y12709100D01*
X5762345Y12709100D01*
X5920455Y12709100D01*
X5920457Y12709100D01*
X6073184Y12750023D01*
X6210116Y12829080D01*
X6321920Y12940884D01*
X6400977Y13077816D01*
X6441900Y13230543D01*
X6441900Y13388657D01*
X6400977Y13541384D01*
X6321920Y13678316D01*
X6275079Y13725157D01*
X6272181Y13728502D01*
X6259436Y13756416D01*
X6244734Y13783340D01*
X6243992Y13790240D01*
X6243161Y13792060D01*
X6243524Y13794588D01*
X6241900Y13809698D01*
X6241900Y15708156D01*
X41572000Y15708156D01*
X41578401Y15648628D01*
X41578403Y15648621D01*
X41628645Y15513914D01*
X41628649Y15513907D01*
X41714809Y15398813D01*
X41714812Y15398810D01*
X41829906Y15312650D01*
X41829913Y15312646D01*
X41964620Y15262404D01*
X41964627Y15262402D01*
X42024155Y15256001D01*
X42024172Y15256000D01*
X42322000Y15256000D01*
X42822000Y15256000D01*
X43119828Y15256000D01*
X43119844Y15256001D01*
X43179372Y15262402D01*
X43179379Y15262404D01*
X43314086Y15312646D01*
X43314093Y15312650D01*
X43429187Y15398810D01*
X43429190Y15398813D01*
X43515350Y15513907D01*
X43515353Y15513913D01*
X43517582Y15519887D01*
X43517582Y15519888D01*
X43517583Y15519890D01*
X43565596Y15648621D01*
X43565598Y15648628D01*
X43571999Y15708156D01*
X43572000Y15708173D01*
X43572000Y16006000D01*
X42822000Y16006000D01*
X42822000Y15256000D01*
X42322000Y15256000D01*
X42322000Y16006000D01*
X41572000Y16006000D01*
X41572000Y15708156D01*
X6241900Y15708156D01*
X6241900Y16305728D01*
X42322000Y16305728D01*
X42322000Y16206272D01*
X42360060Y16114386D01*
X42430386Y16044060D01*
X42522272Y16006000D01*
X42621728Y16006000D01*
X42713614Y16044060D01*
X42783940Y16114386D01*
X42822000Y16206272D01*
X42822000Y16305728D01*
X42783940Y16397614D01*
X42713614Y16467940D01*
X42621728Y16506000D01*
X42822000Y16506000D01*
X43572000Y16506000D01*
X43572000Y16803828D01*
X43571999Y16803845D01*
X43565598Y16863373D01*
X43565596Y16863380D01*
X43515354Y16998087D01*
X43515350Y16998094D01*
X43429190Y17113188D01*
X43429187Y17113191D01*
X43314093Y17199351D01*
X43314086Y17199355D01*
X43179379Y17249597D01*
X43179372Y17249599D01*
X43119844Y17256000D01*
X42822000Y17256000D01*
X42822000Y16506000D01*
X42621728Y16506000D01*
X42522272Y16506000D01*
X42430386Y16467940D01*
X42360060Y16397614D01*
X42322000Y16305728D01*
X6241900Y16305728D01*
X6241900Y17352475D01*
X7069500Y17352475D01*
X7069500Y17207525D01*
X7073815Y17191423D01*
X7107017Y17067512D01*
X7179488Y16941989D01*
X7179490Y16941987D01*
X7179491Y16941985D01*
X7281985Y16839491D01*
X7281986Y16839490D01*
X7281988Y16839489D01*
X7407511Y16767018D01*
X7407512Y16767018D01*
X7407515Y16767016D01*
X7547525Y16729500D01*
X7547528Y16729500D01*
X7692472Y16729500D01*
X7692475Y16729500D01*
X7832485Y16767016D01*
X7958015Y16839491D01*
X8060509Y16941985D01*
X8105509Y17019927D01*
X25126500Y17019927D01*
X25126500Y16914473D01*
X25146658Y16839244D01*
X25153793Y16812614D01*
X25153795Y16812609D01*
X25186021Y16756790D01*
X25193194Y16742246D01*
X25196025Y16735411D01*
X25275077Y16598488D01*
X25275079Y16598485D01*
X25275080Y16598484D01*
X25386884Y16486680D01*
X25386886Y16486679D01*
X25386890Y16486676D01*
X25491960Y16426015D01*
X25523816Y16407623D01*
X25676543Y16366700D01*
X25676545Y16366700D01*
X25834655Y16366700D01*
X25834657Y16366700D01*
X25987384Y16407623D01*
X26124316Y16486680D01*
X26168017Y16530381D01*
X26229340Y16563866D01*
X26255698Y16566700D01*
X33764502Y16566700D01*
X33831541Y16547015D01*
X33852183Y16530381D01*
X33895884Y16486680D01*
X33895886Y16486679D01*
X33895890Y16486676D01*
X34000960Y16426015D01*
X34032816Y16407623D01*
X34185543Y16366700D01*
X34185545Y16366700D01*
X34343655Y16366700D01*
X34343657Y16366700D01*
X34496384Y16407623D01*
X34633316Y16486680D01*
X34745120Y16598484D01*
X34824177Y16735416D01*
X34842512Y16803845D01*
X41572000Y16803845D01*
X41572000Y16506000D01*
X42322000Y16506000D01*
X42322000Y17256000D01*
X42024155Y17256000D01*
X41964627Y17249599D01*
X41964620Y17249597D01*
X41829913Y17199355D01*
X41829906Y17199351D01*
X41714812Y17113191D01*
X41714809Y17113188D01*
X41628649Y16998094D01*
X41628645Y16998087D01*
X41578403Y16863380D01*
X41578401Y16863373D01*
X41572000Y16803845D01*
X34842512Y16803845D01*
X34865100Y16888143D01*
X34865100Y17046257D01*
X34824177Y17198984D01*
X34791259Y17256000D01*
X34745124Y17335910D01*
X34745118Y17335918D01*
X34633317Y17447719D01*
X34633309Y17447725D01*
X34496390Y17526774D01*
X34496386Y17526776D01*
X34496384Y17526777D01*
X34343657Y17567700D01*
X34185543Y17567700D01*
X34032816Y17526777D01*
X34032809Y17526774D01*
X33895890Y17447725D01*
X33895882Y17447719D01*
X33852183Y17404019D01*
X33790860Y17370534D01*
X33764502Y17367700D01*
X26255698Y17367700D01*
X26188659Y17387385D01*
X26168017Y17404019D01*
X26124317Y17447719D01*
X26124309Y17447725D01*
X25987390Y17526774D01*
X25987386Y17526776D01*
X25987384Y17526777D01*
X25834657Y17567700D01*
X25676543Y17567700D01*
X25523816Y17526777D01*
X25523809Y17526774D01*
X25386890Y17447725D01*
X25386882Y17447719D01*
X25275081Y17335918D01*
X25275077Y17335913D01*
X25196022Y17198983D01*
X25194315Y17194865D01*
X25191554Y17187194D01*
X25153793Y17121787D01*
X25126500Y17019927D01*
X8105509Y17019927D01*
X8132984Y17067515D01*
X8170500Y17207525D01*
X8170500Y17352475D01*
X8132984Y17492485D01*
X8113185Y17526777D01*
X8060511Y17618012D01*
X8060510Y17618013D01*
X8060509Y17618015D01*
X7958015Y17720509D01*
X7958014Y17720510D01*
X7958013Y17720511D01*
X7957493Y17720811D01*
X7957140Y17721181D01*
X7951570Y17725455D01*
X7952236Y17726325D01*
X7949213Y17729496D01*
X7938297Y17734481D01*
X7925549Y17754318D01*
X7909280Y17771382D01*
X7906065Y17784635D01*
X7900523Y17793259D01*
X7895500Y17828194D01*
X7895500Y17979475D01*
X8847500Y17979475D01*
X8847500Y17834525D01*
X8878051Y17720509D01*
X8885017Y17694512D01*
X8957488Y17568989D01*
X8957490Y17568987D01*
X8957491Y17568985D01*
X9059985Y17466491D01*
X9059986Y17466490D01*
X9059988Y17466489D01*
X9185511Y17394018D01*
X9185512Y17394018D01*
X9185515Y17394016D01*
X9325525Y17356500D01*
X9325528Y17356500D01*
X9470472Y17356500D01*
X9470475Y17356500D01*
X9610485Y17394016D01*
X9736015Y17466491D01*
X9838509Y17568985D01*
X9910984Y17694515D01*
X9932062Y17773178D01*
X41921499Y17773178D01*
X41930231Y17729283D01*
X41930234Y17729276D01*
X41963495Y17679497D01*
X41963496Y17679496D01*
X42013278Y17646233D01*
X42013281Y17646233D01*
X42013282Y17646232D01*
X42057177Y17637500D01*
X42057180Y17637500D01*
X43086822Y17637500D01*
X43130717Y17646232D01*
X43130717Y17646233D01*
X43130722Y17646233D01*
X43180504Y17679496D01*
X43213767Y17729278D01*
X43218748Y17754318D01*
X43222500Y17773178D01*
X43222500Y18013247D01*
X48780000Y18013247D01*
X48780000Y17800754D01*
X48813242Y17590873D01*
X48813242Y17590870D01*
X48878904Y17388783D01*
X48975375Y17199450D01*
X49014728Y17145284D01*
X49647037Y17777592D01*
X49664075Y17714007D01*
X49729901Y17599993D01*
X49822993Y17506901D01*
X49937007Y17441075D01*
X50000590Y17424038D01*
X49368282Y16791731D01*
X49368282Y16791730D01*
X49422449Y16752376D01*
X49611782Y16655905D01*
X49787973Y16598657D01*
X49845648Y16559220D01*
X49872847Y16494861D01*
X49860932Y16426015D01*
X49813688Y16374539D01*
X49797108Y16366165D01*
X49632403Y16297943D01*
X49460342Y16182976D01*
X49314024Y16036658D01*
X49199058Y15864597D01*
X49119870Y15673421D01*
X49119868Y15673413D01*
X49079500Y15470470D01*
X49079500Y15263531D01*
X49119868Y15060588D01*
X49119870Y15060580D01*
X49199058Y14869404D01*
X49314024Y14697343D01*
X49460342Y14551025D01*
X49460345Y14551023D01*
X49632402Y14436059D01*
X49823580Y14356870D01*
X50026530Y14316501D01*
X50026534Y14316500D01*
X50026535Y14316500D01*
X50233466Y14316500D01*
X50233467Y14316501D01*
X50436420Y14356870D01*
X50627598Y14436059D01*
X50799655Y14551023D01*
X50945977Y14697345D01*
X51060941Y14869402D01*
X51140130Y15060580D01*
X51180500Y15263535D01*
X51180500Y15470465D01*
X51140130Y15673420D01*
X51060941Y15864598D01*
X50945977Y16036655D01*
X50945975Y16036658D01*
X50799657Y16182976D01*
X50713626Y16240459D01*
X50627598Y16297941D01*
X50627593Y16297943D01*
X50565891Y16323501D01*
X50462890Y16366166D01*
X50408488Y16410006D01*
X50386423Y16476300D01*
X50403702Y16543999D01*
X50454839Y16591610D01*
X50472026Y16598657D01*
X50648217Y16655905D01*
X50837554Y16752378D01*
X50891716Y16791730D01*
X50891717Y16791730D01*
X50259408Y17424038D01*
X50322993Y17441075D01*
X50437007Y17506901D01*
X50530099Y17599993D01*
X50595925Y17714007D01*
X50612962Y17777592D01*
X51245270Y17145283D01*
X51245270Y17145284D01*
X51284622Y17199446D01*
X51381095Y17388783D01*
X51446757Y17590870D01*
X51446757Y17590873D01*
X51480000Y17800754D01*
X51480000Y18013247D01*
X52330000Y18013247D01*
X52330000Y17800754D01*
X52363242Y17590873D01*
X52363242Y17590870D01*
X52428904Y17388783D01*
X52525375Y17199450D01*
X52564728Y17145284D01*
X53197037Y17777592D01*
X53214075Y17714007D01*
X53279901Y17599993D01*
X53372993Y17506901D01*
X53487007Y17441075D01*
X53550590Y17424038D01*
X52918282Y16791731D01*
X52918282Y16791730D01*
X52972449Y16752376D01*
X53161782Y16655905D01*
X53337973Y16598657D01*
X53395648Y16559220D01*
X53422847Y16494861D01*
X53410932Y16426015D01*
X53363688Y16374539D01*
X53347108Y16366165D01*
X53182403Y16297943D01*
X53010342Y16182976D01*
X52864024Y16036658D01*
X52749058Y15864597D01*
X52669870Y15673421D01*
X52669868Y15673413D01*
X52629500Y15470470D01*
X52629500Y15263531D01*
X52669868Y15060588D01*
X52669870Y15060580D01*
X52749058Y14869404D01*
X52864024Y14697343D01*
X53010342Y14551025D01*
X53010345Y14551023D01*
X53182402Y14436059D01*
X53373580Y14356870D01*
X53576530Y14316501D01*
X53576534Y14316500D01*
X53576535Y14316500D01*
X53783466Y14316500D01*
X53783467Y14316501D01*
X53986420Y14356870D01*
X54177598Y14436059D01*
X54349655Y14551023D01*
X54495977Y14697345D01*
X54610941Y14869402D01*
X54690130Y15060580D01*
X54730500Y15263535D01*
X54730500Y15470465D01*
X54690130Y15673420D01*
X54610941Y15864598D01*
X54495977Y16036655D01*
X54495975Y16036658D01*
X54349657Y16182976D01*
X54263626Y16240459D01*
X54177598Y16297941D01*
X54177593Y16297943D01*
X54115891Y16323501D01*
X54012890Y16366166D01*
X53958488Y16410006D01*
X53936423Y16476300D01*
X53953702Y16543999D01*
X54004839Y16591610D01*
X54022026Y16598657D01*
X54198217Y16655905D01*
X54387554Y16752378D01*
X54441716Y16791730D01*
X54441717Y16791730D01*
X53809408Y17424038D01*
X53872993Y17441075D01*
X53987007Y17506901D01*
X54080099Y17599993D01*
X54145925Y17714007D01*
X54162962Y17777592D01*
X54795270Y17145283D01*
X54795270Y17145284D01*
X54834622Y17199446D01*
X54931095Y17388783D01*
X54996757Y17590870D01*
X54996757Y17590873D01*
X55030000Y17800754D01*
X55030000Y18013247D01*
X54996757Y18223128D01*
X54996757Y18223131D01*
X54931095Y18425218D01*
X54834624Y18614551D01*
X54795270Y18668718D01*
X54795269Y18668718D01*
X54162962Y18036410D01*
X54145925Y18099993D01*
X54080099Y18214007D01*
X53987007Y18307099D01*
X53872993Y18372925D01*
X53809409Y18389963D01*
X54441716Y19022272D01*
X54387550Y19061625D01*
X54198217Y19158096D01*
X54055186Y19204569D01*
X53997511Y19244006D01*
X53970312Y19308365D01*
X53982227Y19377211D01*
X54029471Y19428687D01*
X54093504Y19446500D01*
X54544822Y19446500D01*
X54588717Y19455232D01*
X54588717Y19455233D01*
X54588722Y19455233D01*
X54638504Y19488496D01*
X54671767Y19538278D01*
X54680500Y19582180D01*
X54680500Y21311820D01*
X54680500Y21311823D01*
X54671768Y21355718D01*
X54671767Y21355719D01*
X54671767Y21355722D01*
X54638504Y21405504D01*
X54638503Y21405505D01*
X54588724Y21438766D01*
X54588717Y21438769D01*
X54544822Y21447500D01*
X54544820Y21447500D01*
X52815180Y21447500D01*
X52815178Y21447500D01*
X52771282Y21438769D01*
X52771275Y21438766D01*
X52721496Y21405505D01*
X52721495Y21405504D01*
X52688234Y21355725D01*
X52688231Y21355718D01*
X52679500Y21311823D01*
X52679500Y21311820D01*
X52679500Y19582180D01*
X52679500Y19582178D01*
X52679499Y19582178D01*
X52688231Y19538283D01*
X52688232Y19538279D01*
X52688233Y19538278D01*
X52721496Y19488496D01*
X52771278Y19455233D01*
X52771281Y19455233D01*
X52771282Y19455232D01*
X52815177Y19446500D01*
X53266496Y19446500D01*
X53333535Y19426815D01*
X53379290Y19374011D01*
X53389234Y19304853D01*
X53360209Y19241297D01*
X53304814Y19204569D01*
X53161782Y19158096D01*
X52972439Y19061620D01*
X52918282Y19022273D01*
X52918282Y19022272D01*
X53550591Y18389963D01*
X53487007Y18372925D01*
X53372993Y18307099D01*
X53279901Y18214007D01*
X53214075Y18099993D01*
X53197037Y18036409D01*
X52564728Y18668718D01*
X52564727Y18668718D01*
X52525380Y18614561D01*
X52428904Y18425218D01*
X52363242Y18223131D01*
X52363242Y18223128D01*
X52330000Y18013247D01*
X51480000Y18013247D01*
X51446757Y18223128D01*
X51446757Y18223131D01*
X51381095Y18425218D01*
X51284624Y18614551D01*
X51245270Y18668718D01*
X51245269Y18668718D01*
X50612962Y18036410D01*
X50595925Y18099993D01*
X50530099Y18214007D01*
X50437007Y18307099D01*
X50322993Y18372925D01*
X50259409Y18389963D01*
X50891716Y19022272D01*
X50837550Y19061625D01*
X50648217Y19158096D01*
X50505186Y19204569D01*
X50447511Y19244006D01*
X50420312Y19308365D01*
X50432227Y19377211D01*
X50479471Y19428687D01*
X50543504Y19446500D01*
X50994822Y19446500D01*
X51038717Y19455232D01*
X51038717Y19455233D01*
X51038722Y19455233D01*
X51088504Y19488496D01*
X51121767Y19538278D01*
X51130500Y19582180D01*
X51130500Y21311820D01*
X51130500Y21311823D01*
X51121768Y21355718D01*
X51121767Y21355719D01*
X51121767Y21355722D01*
X51088504Y21405504D01*
X51088503Y21405505D01*
X51038724Y21438766D01*
X51038717Y21438769D01*
X50994822Y21447500D01*
X50994820Y21447500D01*
X49265180Y21447500D01*
X49265178Y21447500D01*
X49221282Y21438769D01*
X49221275Y21438766D01*
X49171496Y21405505D01*
X49171495Y21405504D01*
X49138234Y21355725D01*
X49138231Y21355718D01*
X49129500Y21311823D01*
X49129500Y21311820D01*
X49129500Y19582180D01*
X49129500Y19582178D01*
X49129499Y19582178D01*
X49138231Y19538283D01*
X49138232Y19538279D01*
X49138233Y19538278D01*
X49171496Y19488496D01*
X49221278Y19455233D01*
X49221281Y19455233D01*
X49221282Y19455232D01*
X49265177Y19446500D01*
X49716496Y19446500D01*
X49783535Y19426815D01*
X49829290Y19374011D01*
X49839234Y19304853D01*
X49810209Y19241297D01*
X49754814Y19204569D01*
X49611782Y19158096D01*
X49422439Y19061620D01*
X49368282Y19022273D01*
X49368282Y19022272D01*
X50000591Y18389963D01*
X49937007Y18372925D01*
X49822993Y18307099D01*
X49729901Y18214007D01*
X49664075Y18099993D01*
X49647037Y18036409D01*
X49014728Y18668718D01*
X49014727Y18668718D01*
X48975380Y18614561D01*
X48878904Y18425218D01*
X48813242Y18223131D01*
X48813242Y18223128D01*
X48780000Y18013247D01*
X43222500Y18013247D01*
X43222500Y18802823D01*
X43213768Y18846718D01*
X43213767Y18846719D01*
X43213767Y18846722D01*
X43180504Y18896504D01*
X43180371Y18896593D01*
X43130724Y18929766D01*
X43130717Y18929769D01*
X43086822Y18938500D01*
X43086820Y18938500D01*
X42057180Y18938500D01*
X42057178Y18938500D01*
X42013282Y18929769D01*
X42013275Y18929766D01*
X41963496Y18896505D01*
X41963495Y18896504D01*
X41930234Y18846725D01*
X41930231Y18846718D01*
X41921500Y18802823D01*
X41921500Y18802820D01*
X41921500Y17773180D01*
X41921500Y17773178D01*
X41921499Y17773178D01*
X9932062Y17773178D01*
X9948500Y17834525D01*
X9948500Y17979475D01*
X9948347Y17980046D01*
X9948358Y17980546D01*
X9947439Y17987532D01*
X9948528Y17987676D01*
X9948632Y17992051D01*
X9944435Y18003306D01*
X9949446Y18026336D01*
X9950006Y18049893D01*
X9957108Y18061546D01*
X9959292Y18071578D01*
X9980441Y18099827D01*
X9987802Y18107188D01*
X10049127Y18140668D01*
X10075477Y18143500D01*
X13893799Y18143500D01*
X13893800Y18143500D01*
X13995058Y18185443D01*
X14072557Y18262942D01*
X14072556Y18262942D01*
X14131125Y18321511D01*
X14131124Y18321511D01*
X16964089Y21154475D01*
X38281500Y21154475D01*
X38281500Y21009525D01*
X38317230Y20876181D01*
X38319017Y20869512D01*
X38391488Y20743989D01*
X38391490Y20743987D01*
X38391491Y20743985D01*
X38493985Y20641491D01*
X38493986Y20641490D01*
X38493988Y20641489D01*
X38619511Y20569018D01*
X38619512Y20569018D01*
X38619515Y20569016D01*
X38759525Y20531500D01*
X38759528Y20531500D01*
X38904472Y20531500D01*
X38904475Y20531500D01*
X39044485Y20569016D01*
X39170015Y20641491D01*
X39272509Y20743985D01*
X39287240Y20769501D01*
X39337807Y20817716D01*
X39394627Y20831500D01*
X43537373Y20831500D01*
X43604412Y20811815D01*
X43644759Y20769501D01*
X43659491Y20743985D01*
X43761985Y20641491D01*
X43761986Y20641490D01*
X43761988Y20641489D01*
X43887511Y20569018D01*
X43887512Y20569018D01*
X43887515Y20569016D01*
X44027525Y20531500D01*
X44027528Y20531500D01*
X44172472Y20531500D01*
X44172475Y20531500D01*
X44312485Y20569016D01*
X44438015Y20641491D01*
X44540509Y20743985D01*
X44612984Y20869515D01*
X44650500Y21009525D01*
X44650500Y21154475D01*
X44614278Y21289654D01*
X44612984Y21294484D01*
X44612982Y21294489D01*
X44540511Y21420012D01*
X44540506Y21420018D01*
X44438017Y21522507D01*
X44438011Y21522512D01*
X44312488Y21594983D01*
X44312489Y21594983D01*
X44301006Y21598060D01*
X44172475Y21632500D01*
X44027525Y21632500D01*
X43898993Y21598060D01*
X43887511Y21594983D01*
X43761988Y21522512D01*
X43761982Y21522507D01*
X43659493Y21420018D01*
X43659489Y21420012D01*
X43644760Y21394500D01*
X43594193Y21346284D01*
X43537373Y21332500D01*
X39394627Y21332500D01*
X39327588Y21352185D01*
X39287240Y21394500D01*
X39272509Y21420015D01*
X39170015Y21522509D01*
X39170013Y21522510D01*
X39170011Y21522512D01*
X39044488Y21594983D01*
X39044489Y21594983D01*
X39033006Y21598060D01*
X38904475Y21632500D01*
X38759525Y21632500D01*
X38630993Y21598060D01*
X38619511Y21594983D01*
X38493988Y21522512D01*
X38493982Y21522507D01*
X38391493Y21420018D01*
X38391488Y21420012D01*
X38319017Y21294489D01*
X38317721Y21289653D01*
X38281500Y21154475D01*
X16964089Y21154475D01*
X17067177Y21257563D01*
X17128498Y21291046D01*
X17179372Y21289834D01*
X17179468Y21290561D01*
X17186232Y21289671D01*
X17186953Y21289654D01*
X17187525Y21289500D01*
X17187528Y21289500D01*
X17332472Y21289500D01*
X17332475Y21289500D01*
X17472485Y21327016D01*
X17598015Y21399491D01*
X17700509Y21501985D01*
X17772984Y21627515D01*
X17810500Y21767525D01*
X17810500Y21912475D01*
X17772984Y22052485D01*
X17700509Y22178015D01*
X17598015Y22280509D01*
X17598013Y22280510D01*
X17598011Y22280512D01*
X17472488Y22352983D01*
X17472489Y22352983D01*
X17461006Y22356060D01*
X17332475Y22390500D01*
X17187525Y22390500D01*
X17058993Y22356060D01*
X17047511Y22352983D01*
X16921988Y22280512D01*
X16921982Y22280507D01*
X16819493Y22178018D01*
X16819488Y22178012D01*
X16747017Y22052489D01*
X16747016Y22052485D01*
X16709500Y21912475D01*
X16709500Y21767525D01*
X16709653Y21766951D01*
X16709641Y21766449D01*
X16710561Y21759469D01*
X16709472Y21759326D01*
X16707991Y21697104D01*
X16677560Y21647178D01*
X13761204Y18730819D01*
X13699881Y18697334D01*
X13673523Y18694500D01*
X9855198Y18694500D01*
X9783599Y18664842D01*
X9753939Y18652557D01*
X9753938Y18652556D01*
X9590823Y18489440D01*
X9529500Y18455955D01*
X9478626Y18457165D01*
X9478531Y18456439D01*
X9471782Y18457328D01*
X9471053Y18457345D01*
X9470475Y18457500D01*
X9325525Y18457500D01*
X9196993Y18423060D01*
X9185511Y18419983D01*
X9059988Y18347512D01*
X9059982Y18347507D01*
X8957493Y18245018D01*
X8957488Y18245012D01*
X8885017Y18119489D01*
X8885016Y18119485D01*
X8847500Y17979475D01*
X7895500Y17979475D01*
X7895500Y18122523D01*
X7915185Y18189562D01*
X7931819Y18210204D01*
X9348797Y19627181D01*
X9410120Y19660666D01*
X9436478Y19663500D01*
X12873799Y19663500D01*
X12873800Y19663500D01*
X12975058Y19705443D01*
X13052557Y19782942D01*
X14527176Y21257563D01*
X14588497Y21291046D01*
X14639372Y21289835D01*
X14639468Y21290561D01*
X14646224Y21289672D01*
X14646950Y21289655D01*
X14647525Y21289500D01*
X14647527Y21289500D01*
X14792472Y21289500D01*
X14792475Y21289500D01*
X14932485Y21327016D01*
X15058015Y21399491D01*
X15160509Y21501985D01*
X15232984Y21627515D01*
X15270500Y21767525D01*
X15270500Y21912475D01*
X15232984Y22052485D01*
X15160509Y22178015D01*
X15058015Y22280509D01*
X15058013Y22280510D01*
X15058011Y22280512D01*
X14932488Y22352983D01*
X14932489Y22352983D01*
X14921006Y22356060D01*
X14792475Y22390500D01*
X14647525Y22390500D01*
X14518993Y22356060D01*
X14507511Y22352983D01*
X14381988Y22280512D01*
X14381982Y22280507D01*
X14279493Y22178018D01*
X14279488Y22178012D01*
X14207017Y22052489D01*
X14207016Y22052485D01*
X14169500Y21912475D01*
X14169500Y21767525D01*
X14169654Y21766947D01*
X14169642Y21766442D01*
X14170561Y21759469D01*
X14169473Y21759326D01*
X14167990Y21697099D01*
X14137560Y21647177D01*
X12741204Y20250819D01*
X12679881Y20217334D01*
X12653523Y20214500D01*
X9325800Y20214500D01*
X9216200Y20214500D01*
X9216198Y20214500D01*
X9216196Y20214499D01*
X9114944Y20172561D01*
X9114942Y20172559D01*
X7463942Y18521557D01*
X7386444Y18444060D01*
X7344500Y18342801D01*
X7344500Y17828194D01*
X7324815Y17761155D01*
X7287985Y17726035D01*
X7288430Y17725455D01*
X7283040Y17721320D01*
X7282507Y17720811D01*
X7281986Y17720511D01*
X7179490Y17618014D01*
X7179488Y17618012D01*
X7107017Y17492489D01*
X7107016Y17492485D01*
X7069500Y17352475D01*
X6241900Y17352475D01*
X6241900Y20356145D01*
X6261585Y20423184D01*
X6278219Y20443826D01*
X6710574Y20876181D01*
X6771897Y20909666D01*
X6798255Y20912500D01*
X6803472Y20912500D01*
X6803475Y20912500D01*
X6943485Y20950016D01*
X7069015Y21022491D01*
X7171509Y21124985D01*
X7243984Y21250515D01*
X7281500Y21390525D01*
X7281500Y21535475D01*
X7243984Y21675485D01*
X7231502Y21697104D01*
X7171511Y21801012D01*
X7171506Y21801018D01*
X7069017Y21903507D01*
X7069011Y21903512D01*
X6943488Y21975983D01*
X6943489Y21975983D01*
X6932006Y21979060D01*
X6803475Y22013500D01*
X6658525Y22013500D01*
X6529993Y21979060D01*
X6518511Y21975983D01*
X6392988Y21903512D01*
X6392982Y21903507D01*
X6290493Y21801018D01*
X6290488Y21801012D01*
X6218017Y21675489D01*
X6218016Y21675485D01*
X6180500Y21535475D01*
X6180500Y21535473D01*
X6180500Y21530255D01*
X6160815Y21463216D01*
X6144181Y21442574D01*
X5520922Y20819316D01*
X5520918Y20819310D01*
X5468192Y20727988D01*
X5468193Y20727987D01*
X5440900Y20626127D01*
X5440900Y13809698D01*
X5421215Y13742659D01*
X5404581Y13722017D01*
X5360881Y13678318D01*
X5360875Y13678310D01*
X5281826Y13541391D01*
X5281823Y13541384D01*
X5240900Y13388657D01*
X200500Y13388657D01*
X200500Y24365178D01*
X7369499Y24365178D01*
X7378231Y24321283D01*
X7378234Y24321276D01*
X7408118Y24276551D01*
X7411496Y24271496D01*
X7461278Y24238233D01*
X7461281Y24238233D01*
X7461282Y24238232D01*
X7505177Y24229500D01*
X7505180Y24229500D01*
X9234822Y24229500D01*
X9278717Y24238232D01*
X9278717Y24238233D01*
X9278722Y24238233D01*
X9328504Y24271496D01*
X9361767Y24321278D01*
X9370500Y24365180D01*
X9370500Y25333470D01*
X9859500Y25333470D01*
X9859500Y25126531D01*
X9899868Y24923588D01*
X9899870Y24923580D01*
X9979058Y24732404D01*
X10094024Y24560343D01*
X10240342Y24414025D01*
X10240345Y24414023D01*
X10412402Y24299059D01*
X10603580Y24219870D01*
X10806530Y24179501D01*
X10806534Y24179500D01*
X10806535Y24179500D01*
X11013466Y24179500D01*
X11013467Y24179501D01*
X11216420Y24219870D01*
X11407598Y24299059D01*
X11579655Y24414023D01*
X11725977Y24560345D01*
X11840941Y24732402D01*
X11920130Y24923580D01*
X11960500Y25126535D01*
X11960500Y25333465D01*
X11920130Y25536420D01*
X11840941Y25727598D01*
X11725977Y25899655D01*
X11725975Y25899658D01*
X11579657Y26045976D01*
X11473916Y26116629D01*
X11407598Y26160941D01*
X11407593Y26160943D01*
X11216420Y26240130D01*
X11216412Y26240132D01*
X11013469Y26280500D01*
X11013465Y26280500D01*
X10806535Y26280500D01*
X10806530Y26280500D01*
X10603587Y26240132D01*
X10603579Y26240130D01*
X10412403Y26160942D01*
X10240342Y26045976D01*
X10094024Y25899658D01*
X9979058Y25727597D01*
X9899870Y25536421D01*
X9899868Y25536413D01*
X9859500Y25333470D01*
X9370500Y25333470D01*
X9370500Y26094820D01*
X9370500Y26094823D01*
X9361768Y26138718D01*
X9361767Y26138719D01*
X9361767Y26138722D01*
X9328504Y26188504D01*
X9323197Y26192050D01*
X9278724Y26221766D01*
X9278717Y26221769D01*
X9234822Y26230500D01*
X9234820Y26230500D01*
X7505180Y26230500D01*
X7505178Y26230500D01*
X7461282Y26221769D01*
X7461275Y26221766D01*
X7411496Y26188505D01*
X7411495Y26188504D01*
X7378234Y26138725D01*
X7378231Y26138718D01*
X7369500Y26094823D01*
X7369500Y26094820D01*
X7369500Y24365180D01*
X7369500Y24365178D01*
X7369499Y24365178D01*
X200500Y24365178D01*
X200500Y26620453D01*
X1969500Y26620453D01*
X1969500Y26379547D01*
X1991992Y26237539D01*
X2007186Y26141607D01*
X2081631Y25912488D01*
X2187902Y25703921D01*
X2190999Y25697843D01*
X2332600Y25502946D01*
X2502946Y25332600D01*
X2697843Y25190999D01*
X2799256Y25139327D01*
X2912487Y25081632D01*
X2912489Y25081632D01*
X2912492Y25081630D01*
X3141607Y25007186D01*
X3379547Y24969500D01*
X3379548Y24969500D01*
X3620452Y24969500D01*
X3620453Y24969500D01*
X3858393Y25007186D01*
X4087508Y25081630D01*
X4302157Y25190999D01*
X4497054Y25332600D01*
X4667400Y25502946D01*
X4809001Y25697843D01*
X4918370Y25912492D01*
X4984699Y26116632D01*
X4992042Y26139230D01*
X4992043Y26139232D01*
X4992044Y26139235D01*
X4992812Y26141601D01*
X4992811Y26141601D01*
X4992814Y26141607D01*
X5030500Y26379547D01*
X5030500Y26620453D01*
X4992814Y26858393D01*
X4918370Y27087508D01*
X4918368Y27087511D01*
X4918368Y27087513D01*
X4834668Y27251783D01*
X4809001Y27302157D01*
X4667400Y27497054D01*
X4497054Y27667400D01*
X4491470Y27671457D01*
X7369499Y27671457D01*
X7407947Y27478171D01*
X7407950Y27478161D01*
X7483364Y27296093D01*
X7483371Y27296080D01*
X7592860Y27132219D01*
X7592863Y27132215D01*
X7732214Y26992864D01*
X7732218Y26992861D01*
X7896079Y26883372D01*
X7896092Y26883365D01*
X7956381Y26858393D01*
X8078165Y26807949D01*
X8078169Y26807949D01*
X8078170Y26807948D01*
X8271456Y26769500D01*
X8271459Y26769500D01*
X8468543Y26769500D01*
X8622622Y26800149D01*
X8661835Y26807949D01*
X8843914Y26883368D01*
X9007782Y26992861D01*
X9147139Y27132218D01*
X9256632Y27296086D01*
X9332051Y27478165D01*
X9352167Y27579293D01*
X9370500Y27671457D01*
X9909499Y27671457D01*
X9947947Y27478171D01*
X9947950Y27478161D01*
X10023364Y27296093D01*
X10023371Y27296080D01*
X10132860Y27132219D01*
X10132863Y27132215D01*
X10272214Y26992864D01*
X10272218Y26992861D01*
X10436079Y26883372D01*
X10436092Y26883365D01*
X10496381Y26858393D01*
X10618165Y26807949D01*
X10618169Y26807949D01*
X10618170Y26807948D01*
X10811456Y26769500D01*
X10811459Y26769500D01*
X11008543Y26769500D01*
X11162622Y26800149D01*
X11201835Y26807949D01*
X11383914Y26883368D01*
X11547782Y26992861D01*
X11687139Y27132218D01*
X11796632Y27296086D01*
X11872051Y27478165D01*
X11879852Y27517385D01*
X11912236Y27579293D01*
X11972952Y27613867D01*
X12042721Y27610128D01*
X12099394Y27569262D01*
X12123942Y27512589D01*
X12133242Y27453873D01*
X12133242Y27453870D01*
X12198904Y27251783D01*
X12295375Y27062450D01*
X12334728Y27008284D01*
X12967037Y27640592D01*
X12984075Y27577007D01*
X13049901Y27462993D01*
X13142993Y27369901D01*
X13257007Y27304075D01*
X13320590Y27287038D01*
X12688282Y26654731D01*
X12688282Y26654730D01*
X12742449Y26615376D01*
X12931782Y26518905D01*
X13107973Y26461657D01*
X13165648Y26422220D01*
X13192847Y26357861D01*
X13180932Y26289015D01*
X13133688Y26237539D01*
X13117108Y26229165D01*
X12952403Y26160943D01*
X12780342Y26045976D01*
X12634024Y25899658D01*
X12519058Y25727597D01*
X12439870Y25536421D01*
X12439868Y25536413D01*
X12399500Y25333470D01*
X12399500Y25126531D01*
X12439868Y24923588D01*
X12439870Y24923580D01*
X12519058Y24732404D01*
X12634024Y24560343D01*
X12780342Y24414025D01*
X12780345Y24414023D01*
X12952402Y24299059D01*
X13143580Y24219870D01*
X13346530Y24179501D01*
X13346534Y24179500D01*
X13346535Y24179500D01*
X13553466Y24179500D01*
X13553467Y24179501D01*
X13756420Y24219870D01*
X13947598Y24299059D01*
X14119655Y24414023D01*
X14265977Y24560345D01*
X14380941Y24732402D01*
X14460130Y24923580D01*
X14500500Y25126535D01*
X14500500Y25131457D01*
X14989499Y25131457D01*
X15027947Y24938171D01*
X15027950Y24938161D01*
X15103364Y24756093D01*
X15103371Y24756080D01*
X15212860Y24592219D01*
X15212863Y24592215D01*
X15352214Y24452864D01*
X15352218Y24452861D01*
X15516079Y24343372D01*
X15516092Y24343365D01*
X15698160Y24267951D01*
X15698165Y24267949D01*
X15698169Y24267949D01*
X15698170Y24267948D01*
X15891456Y24229500D01*
X15891459Y24229500D01*
X16088543Y24229500D01*
X16218582Y24255368D01*
X16281835Y24267949D01*
X16463914Y24343368D01*
X16627782Y24452861D01*
X16767139Y24592218D01*
X16876632Y24756086D01*
X16952051Y24938165D01*
X16959852Y24977385D01*
X16992236Y25039293D01*
X17052952Y25073867D01*
X17122721Y25070128D01*
X17179394Y25029262D01*
X17203942Y24972589D01*
X17213242Y24913873D01*
X17213242Y24913870D01*
X17278904Y24711783D01*
X17375375Y24522450D01*
X17414728Y24468284D01*
X18047037Y25100592D01*
X18064075Y25037007D01*
X18129901Y24922993D01*
X18222993Y24829901D01*
X18337007Y24764075D01*
X18400590Y24747038D01*
X17768282Y24114731D01*
X17768282Y24114730D01*
X17822449Y24075376D01*
X18011782Y23978905D01*
X18213870Y23913243D01*
X18423754Y23880000D01*
X18636246Y23880000D01*
X18846127Y23913243D01*
X18846130Y23913243D01*
X19048217Y23978905D01*
X19237554Y24075378D01*
X19291716Y24114730D01*
X19291717Y24114730D01*
X18659408Y24747038D01*
X18722993Y24764075D01*
X18837007Y24829901D01*
X18930099Y24922993D01*
X18995925Y25037007D01*
X19012962Y25100592D01*
X19645270Y24468283D01*
X19645270Y24468284D01*
X19684622Y24522446D01*
X19781095Y24711783D01*
X19846755Y24913866D01*
X19856056Y24972588D01*
X19885985Y25035723D01*
X19945296Y25072654D01*
X20015159Y25071658D01*
X20073392Y25033048D01*
X20100147Y24977384D01*
X20107947Y24938170D01*
X20107950Y24938161D01*
X20183364Y24756093D01*
X20183371Y24756080D01*
X20292860Y24592219D01*
X20292863Y24592215D01*
X20432214Y24452864D01*
X20432218Y24452861D01*
X20596079Y24343372D01*
X20596092Y24343365D01*
X20778160Y24267951D01*
X20778165Y24267949D01*
X20778169Y24267949D01*
X20778170Y24267948D01*
X20971456Y24229500D01*
X20971459Y24229500D01*
X21168543Y24229500D01*
X21298582Y24255368D01*
X21361835Y24267949D01*
X21543914Y24343368D01*
X21707782Y24452861D01*
X21847139Y24592218D01*
X21956632Y24756086D01*
X22032051Y24938165D01*
X22045780Y25007186D01*
X22070500Y25131457D01*
X22070500Y25328544D01*
X22032052Y25521830D01*
X22032051Y25521833D01*
X22032051Y25521835D01*
X22021986Y25546135D01*
X21956635Y25703908D01*
X21956628Y25703921D01*
X21847139Y25867782D01*
X21847136Y25867786D01*
X21707785Y26007137D01*
X21707781Y26007140D01*
X21543920Y26116629D01*
X21543907Y26116636D01*
X21361839Y26192050D01*
X21361829Y26192053D01*
X21168543Y26230500D01*
X21168541Y26230500D01*
X20971459Y26230500D01*
X20971457Y26230500D01*
X20778170Y26192053D01*
X20778160Y26192050D01*
X20596092Y26116636D01*
X20596079Y26116629D01*
X20432218Y26007140D01*
X20432214Y26007137D01*
X20292863Y25867786D01*
X20292860Y25867782D01*
X20183371Y25703921D01*
X20183364Y25703908D01*
X20107950Y25521840D01*
X20107948Y25521833D01*
X20100147Y25482616D01*
X20067761Y25420706D01*
X20007044Y25386133D01*
X19937275Y25389874D01*
X19880604Y25430742D01*
X19856056Y25487413D01*
X19846755Y25546135D01*
X19781095Y25748218D01*
X19684624Y25937551D01*
X19645270Y25991718D01*
X19645269Y25991718D01*
X19012962Y25359410D01*
X18995925Y25422993D01*
X18930099Y25537007D01*
X18837007Y25630099D01*
X18722993Y25695925D01*
X18659409Y25712963D01*
X19291716Y26345272D01*
X19237550Y26384625D01*
X19048217Y26481096D01*
X18846128Y26546758D01*
X18787411Y26556058D01*
X18724276Y26585988D01*
X18687345Y26645299D01*
X18688343Y26715162D01*
X18726953Y26773394D01*
X18782615Y26800148D01*
X18821835Y26807949D01*
X19003914Y26883368D01*
X19167782Y26992861D01*
X19307139Y27132218D01*
X19416632Y27296086D01*
X19492051Y27478165D01*
X19512167Y27579293D01*
X19530500Y27671457D01*
X20069499Y27671457D01*
X20107947Y27478171D01*
X20107950Y27478161D01*
X20183364Y27296093D01*
X20183371Y27296080D01*
X20292860Y27132219D01*
X20292863Y27132215D01*
X20432214Y26992864D01*
X20432218Y26992861D01*
X20596079Y26883372D01*
X20596092Y26883365D01*
X20656381Y26858393D01*
X20778165Y26807949D01*
X20778169Y26807949D01*
X20778170Y26807948D01*
X20971456Y26769500D01*
X20971459Y26769500D01*
X21168543Y26769500D01*
X21322622Y26800149D01*
X21361835Y26807949D01*
X21543914Y26883368D01*
X21707782Y26992861D01*
X21847139Y27132218D01*
X21956632Y27296086D01*
X22032051Y27478165D01*
X22039852Y27517385D01*
X22072236Y27579293D01*
X22132952Y27613867D01*
X22202721Y27610128D01*
X22259394Y27569262D01*
X22283942Y27512589D01*
X22293242Y27453873D01*
X22293242Y27453870D01*
X22358904Y27251783D01*
X22455375Y27062450D01*
X22494728Y27008284D01*
X23127037Y27640592D01*
X23144075Y27577007D01*
X23209901Y27462993D01*
X23302993Y27369901D01*
X23417007Y27304075D01*
X23480590Y27287038D01*
X22848282Y26654731D01*
X22848282Y26654730D01*
X22902449Y26615376D01*
X23091782Y26518905D01*
X23293865Y26453245D01*
X23352587Y26443944D01*
X23415722Y26414015D01*
X23452654Y26354703D01*
X23451656Y26284841D01*
X23413047Y26226608D01*
X23357384Y26199853D01*
X23318167Y26192052D01*
X23318160Y26192050D01*
X23136092Y26116636D01*
X23136079Y26116629D01*
X22972218Y26007140D01*
X22972214Y26007137D01*
X22832863Y25867786D01*
X22832860Y25867782D01*
X22723371Y25703921D01*
X22723364Y25703908D01*
X22647950Y25521840D01*
X22647947Y25521830D01*
X22609500Y25328544D01*
X22609500Y25328541D01*
X22609500Y25131459D01*
X22609500Y25131457D01*
X22609499Y25131457D01*
X22647947Y24938171D01*
X22647950Y24938161D01*
X22723364Y24756093D01*
X22723371Y24756080D01*
X22832860Y24592219D01*
X22832863Y24592215D01*
X22972214Y24452864D01*
X22972218Y24452861D01*
X23136079Y24343372D01*
X23136092Y24343365D01*
X23318160Y24267951D01*
X23318165Y24267949D01*
X23318169Y24267949D01*
X23318170Y24267948D01*
X23511456Y24229500D01*
X23511459Y24229500D01*
X23708543Y24229500D01*
X23838582Y24255368D01*
X23901835Y24267949D01*
X24083914Y24343368D01*
X24247782Y24452861D01*
X24387139Y24592218D01*
X24496632Y24756086D01*
X24572051Y24938165D01*
X24585780Y25007186D01*
X24610500Y25131457D01*
X25149499Y25131457D01*
X25187947Y24938171D01*
X25187950Y24938161D01*
X25263364Y24756093D01*
X25263371Y24756080D01*
X25372860Y24592219D01*
X25372863Y24592215D01*
X25512214Y24452864D01*
X25512218Y24452861D01*
X25676079Y24343372D01*
X25676092Y24343365D01*
X25858160Y24267951D01*
X25858165Y24267949D01*
X25858169Y24267949D01*
X25858170Y24267948D01*
X26051456Y24229500D01*
X26051459Y24229500D01*
X26248543Y24229500D01*
X26378582Y24255368D01*
X26441835Y24267949D01*
X26623914Y24343368D01*
X26787782Y24452861D01*
X26927139Y24592218D01*
X27036632Y24756086D01*
X27112051Y24938165D01*
X27125780Y25007186D01*
X27150500Y25131457D01*
X27689499Y25131457D01*
X27727947Y24938171D01*
X27727950Y24938161D01*
X27803364Y24756093D01*
X27803371Y24756080D01*
X27912860Y24592219D01*
X27912863Y24592215D01*
X28052214Y24452864D01*
X28052218Y24452861D01*
X28216079Y24343372D01*
X28216092Y24343365D01*
X28398160Y24267951D01*
X28398165Y24267949D01*
X28398169Y24267949D01*
X28398170Y24267948D01*
X28591456Y24229500D01*
X28591459Y24229500D01*
X28788543Y24229500D01*
X28918582Y24255368D01*
X28981835Y24267949D01*
X29163914Y24343368D01*
X29327782Y24452861D01*
X29467139Y24592218D01*
X29576632Y24756086D01*
X29652051Y24938165D01*
X29665780Y25007186D01*
X29690500Y25131457D01*
X29690500Y25328544D01*
X29652052Y25521830D01*
X29652051Y25521833D01*
X29652051Y25521835D01*
X29641986Y25546135D01*
X29576635Y25703908D01*
X29576628Y25703921D01*
X29467139Y25867782D01*
X29467136Y25867786D01*
X29327785Y26007137D01*
X29327781Y26007140D01*
X29163920Y26116629D01*
X29163907Y26116636D01*
X28981839Y26192050D01*
X28981829Y26192053D01*
X28788543Y26230500D01*
X28788541Y26230500D01*
X28591459Y26230500D01*
X28591457Y26230500D01*
X28398170Y26192053D01*
X28398160Y26192050D01*
X28216092Y26116636D01*
X28216079Y26116629D01*
X28052218Y26007140D01*
X28052214Y26007137D01*
X27912863Y25867786D01*
X27912860Y25867782D01*
X27803371Y25703921D01*
X27803364Y25703908D01*
X27727950Y25521840D01*
X27727947Y25521830D01*
X27689500Y25328544D01*
X27689500Y25328541D01*
X27689500Y25131459D01*
X27689500Y25131457D01*
X27689499Y25131457D01*
X27150500Y25131457D01*
X27150500Y25328544D01*
X27112052Y25521830D01*
X27112051Y25521833D01*
X27112051Y25521835D01*
X27101986Y25546135D01*
X27036635Y25703908D01*
X27036628Y25703921D01*
X26927139Y25867782D01*
X26927136Y25867786D01*
X26787785Y26007137D01*
X26787781Y26007140D01*
X26623920Y26116629D01*
X26623907Y26116636D01*
X26441839Y26192050D01*
X26441829Y26192053D01*
X26248543Y26230500D01*
X26248541Y26230500D01*
X26051459Y26230500D01*
X26051457Y26230500D01*
X25858170Y26192053D01*
X25858160Y26192050D01*
X25676092Y26116636D01*
X25676079Y26116629D01*
X25512218Y26007140D01*
X25512214Y26007137D01*
X25372863Y25867786D01*
X25372860Y25867782D01*
X25263371Y25703921D01*
X25263364Y25703908D01*
X25187950Y25521840D01*
X25187947Y25521830D01*
X25149500Y25328544D01*
X25149500Y25328541D01*
X25149500Y25131459D01*
X25149500Y25131457D01*
X25149499Y25131457D01*
X24610500Y25131457D01*
X24610500Y25328544D01*
X24572052Y25521830D01*
X24572051Y25521833D01*
X24572051Y25521835D01*
X24561986Y25546135D01*
X24496635Y25703908D01*
X24496628Y25703921D01*
X24387139Y25867782D01*
X24387136Y25867786D01*
X24247785Y26007137D01*
X24247781Y26007140D01*
X24083920Y26116629D01*
X24083907Y26116636D01*
X23901839Y26192050D01*
X23901830Y26192053D01*
X23862616Y26199853D01*
X23800705Y26232239D01*
X23766132Y26292955D01*
X23769873Y26362725D01*
X23810740Y26419396D01*
X23867412Y26443944D01*
X23926134Y26453245D01*
X24128217Y26518905D01*
X24317554Y26615378D01*
X24371716Y26654730D01*
X24371717Y26654730D01*
X23739408Y27287038D01*
X23802993Y27304075D01*
X23917007Y27369901D01*
X24010099Y27462993D01*
X24075925Y27577007D01*
X24092962Y27640592D01*
X24725270Y27008283D01*
X24725270Y27008284D01*
X24764622Y27062446D01*
X24861095Y27251783D01*
X24926755Y27453866D01*
X24936056Y27512588D01*
X24965985Y27575723D01*
X25025296Y27612654D01*
X25095159Y27611658D01*
X25153392Y27573048D01*
X25180147Y27517384D01*
X25187947Y27478170D01*
X25187950Y27478161D01*
X25263364Y27296093D01*
X25263371Y27296080D01*
X25372860Y27132219D01*
X25372863Y27132215D01*
X25512214Y26992864D01*
X25512218Y26992861D01*
X25676079Y26883372D01*
X25676092Y26883365D01*
X25736381Y26858393D01*
X25858165Y26807949D01*
X25858169Y26807949D01*
X25858170Y26807948D01*
X26051456Y26769500D01*
X26051459Y26769500D01*
X26248543Y26769500D01*
X26402622Y26800149D01*
X26441835Y26807949D01*
X26623914Y26883368D01*
X26787782Y26992861D01*
X26927139Y27132218D01*
X27036632Y27296086D01*
X27112051Y27478165D01*
X27132167Y27579293D01*
X27150500Y27671457D01*
X27689499Y27671457D01*
X27727947Y27478171D01*
X27727950Y27478161D01*
X27803364Y27296093D01*
X27803371Y27296080D01*
X27912860Y27132219D01*
X27912863Y27132215D01*
X28052214Y26992864D01*
X28052218Y26992861D01*
X28216079Y26883372D01*
X28216092Y26883365D01*
X28276381Y26858393D01*
X28398165Y26807949D01*
X28398169Y26807949D01*
X28398170Y26807948D01*
X28591456Y26769500D01*
X28591459Y26769500D01*
X28788543Y26769500D01*
X28942622Y26800149D01*
X28981835Y26807949D01*
X29163914Y26883368D01*
X29327782Y26992861D01*
X29467139Y27132218D01*
X29576632Y27296086D01*
X29652051Y27478165D01*
X29659852Y27517385D01*
X29692236Y27579293D01*
X29752952Y27613867D01*
X29822721Y27610128D01*
X29879394Y27569262D01*
X29903942Y27512589D01*
X29913242Y27453873D01*
X29913242Y27453870D01*
X29978904Y27251783D01*
X30075375Y27062450D01*
X30114728Y27008284D01*
X30747037Y27640592D01*
X30764075Y27577007D01*
X30829901Y27462993D01*
X30922993Y27369901D01*
X31037007Y27304075D01*
X31100590Y27287038D01*
X30468282Y26654731D01*
X30468282Y26654730D01*
X30522449Y26615376D01*
X30711782Y26518905D01*
X30913865Y26453245D01*
X30972587Y26443944D01*
X31035722Y26414015D01*
X31072654Y26354703D01*
X31071656Y26284841D01*
X31033047Y26226608D01*
X30977384Y26199853D01*
X30938167Y26192052D01*
X30938160Y26192050D01*
X30756092Y26116636D01*
X30756079Y26116629D01*
X30592218Y26007140D01*
X30592214Y26007137D01*
X30452863Y25867786D01*
X30452860Y25867782D01*
X30343371Y25703921D01*
X30343364Y25703908D01*
X30267950Y25521840D01*
X30267947Y25521830D01*
X30229500Y25328544D01*
X30229500Y25328541D01*
X30229500Y25131459D01*
X30229500Y25131457D01*
X30229499Y25131457D01*
X30267947Y24938171D01*
X30267950Y24938161D01*
X30343364Y24756093D01*
X30343371Y24756080D01*
X30452860Y24592219D01*
X30452863Y24592215D01*
X30592214Y24452864D01*
X30592218Y24452861D01*
X30756079Y24343372D01*
X30756092Y24343365D01*
X30938160Y24267951D01*
X30938165Y24267949D01*
X30938169Y24267949D01*
X30938170Y24267948D01*
X31131456Y24229500D01*
X31131459Y24229500D01*
X31328543Y24229500D01*
X31458582Y24255368D01*
X31521835Y24267949D01*
X31703914Y24343368D01*
X31867782Y24452861D01*
X32007139Y24592218D01*
X32116632Y24756086D01*
X32192051Y24938165D01*
X32205780Y25007186D01*
X32230500Y25131457D01*
X32769499Y25131457D01*
X32807947Y24938171D01*
X32807950Y24938161D01*
X32883364Y24756093D01*
X32883371Y24756080D01*
X32992860Y24592219D01*
X32992863Y24592215D01*
X33132214Y24452864D01*
X33132218Y24452861D01*
X33296079Y24343372D01*
X33296092Y24343365D01*
X33478160Y24267951D01*
X33478165Y24267949D01*
X33478169Y24267949D01*
X33478170Y24267948D01*
X33671456Y24229500D01*
X33671459Y24229500D01*
X33868543Y24229500D01*
X33998582Y24255368D01*
X34061835Y24267949D01*
X34243914Y24343368D01*
X34407782Y24452861D01*
X34547139Y24592218D01*
X34656632Y24756086D01*
X34732051Y24938165D01*
X34745780Y25007186D01*
X34770500Y25131457D01*
X35309499Y25131457D01*
X35347947Y24938171D01*
X35347950Y24938161D01*
X35423364Y24756093D01*
X35423371Y24756080D01*
X35532860Y24592219D01*
X35532863Y24592215D01*
X35672214Y24452864D01*
X35672218Y24452861D01*
X35836079Y24343372D01*
X35836092Y24343365D01*
X36018160Y24267951D01*
X36018165Y24267949D01*
X36018169Y24267949D01*
X36018170Y24267948D01*
X36211456Y24229500D01*
X36211459Y24229500D01*
X36408543Y24229500D01*
X36538582Y24255368D01*
X36601835Y24267949D01*
X36783914Y24343368D01*
X36947782Y24452861D01*
X37087139Y24592218D01*
X37196632Y24756086D01*
X37272051Y24938165D01*
X37279852Y24977385D01*
X37312236Y25039293D01*
X37372952Y25073867D01*
X37442721Y25070128D01*
X37499394Y25029262D01*
X37523942Y24972589D01*
X37533242Y24913873D01*
X37533242Y24913870D01*
X37598904Y24711783D01*
X37695375Y24522450D01*
X37734728Y24468284D01*
X38367037Y25100592D01*
X38384075Y25037007D01*
X38449901Y24922993D01*
X38542993Y24829901D01*
X38657007Y24764075D01*
X38720590Y24747038D01*
X38088282Y24114731D01*
X38088282Y24114730D01*
X38142449Y24075376D01*
X38331782Y23978905D01*
X38533870Y23913243D01*
X38743754Y23880000D01*
X38956246Y23880000D01*
X39166127Y23913243D01*
X39166130Y23913243D01*
X39368217Y23978905D01*
X39557554Y24075378D01*
X39611716Y24114730D01*
X39611717Y24114730D01*
X38979408Y24747038D01*
X39042993Y24764075D01*
X39157007Y24829901D01*
X39250099Y24922993D01*
X39315925Y25037007D01*
X39332962Y25100591D01*
X39965270Y24468283D01*
X39965270Y24468284D01*
X40004622Y24522446D01*
X40101095Y24711783D01*
X40166755Y24913866D01*
X40176056Y24972588D01*
X40205985Y25035723D01*
X40265296Y25072654D01*
X40335159Y25071658D01*
X40393392Y25033048D01*
X40420147Y24977384D01*
X40427947Y24938170D01*
X40427950Y24938161D01*
X40503364Y24756093D01*
X40503371Y24756080D01*
X40612860Y24592219D01*
X40612863Y24592215D01*
X40752214Y24452864D01*
X40752218Y24452861D01*
X40916079Y24343372D01*
X40916092Y24343365D01*
X41098160Y24267951D01*
X41098165Y24267949D01*
X41098169Y24267949D01*
X41098170Y24267948D01*
X41291456Y24229500D01*
X41291459Y24229500D01*
X41488543Y24229500D01*
X41618582Y24255368D01*
X41681835Y24267949D01*
X41863914Y24343368D01*
X42027782Y24452861D01*
X42167139Y24592218D01*
X42276632Y24756086D01*
X42352051Y24938165D01*
X42365780Y25007186D01*
X42390500Y25131457D01*
X42390500Y25328544D01*
X42352052Y25521830D01*
X42352051Y25521833D01*
X42352051Y25521835D01*
X42341986Y25546135D01*
X42276635Y25703908D01*
X42276628Y25703921D01*
X42167139Y25867782D01*
X42167136Y25867786D01*
X42027785Y26007137D01*
X42027781Y26007140D01*
X41863920Y26116629D01*
X41863907Y26116636D01*
X41681839Y26192050D01*
X41681829Y26192053D01*
X41488543Y26230500D01*
X41488541Y26230500D01*
X41291459Y26230500D01*
X41291457Y26230500D01*
X41098170Y26192053D01*
X41098160Y26192050D01*
X40916092Y26116636D01*
X40916079Y26116629D01*
X40752218Y26007140D01*
X40752214Y26007137D01*
X40612863Y25867786D01*
X40612860Y25867782D01*
X40503371Y25703921D01*
X40503364Y25703908D01*
X40427950Y25521840D01*
X40427948Y25521833D01*
X40420147Y25482616D01*
X40387761Y25420706D01*
X40327044Y25386133D01*
X40257275Y25389874D01*
X40200604Y25430742D01*
X40176056Y25487413D01*
X40166755Y25546135D01*
X40101095Y25748218D01*
X40004624Y25937551D01*
X39965270Y25991718D01*
X39332962Y25359410D01*
X39315925Y25422993D01*
X39250099Y25537007D01*
X39157007Y25630099D01*
X39042993Y25695925D01*
X38979409Y25712963D01*
X39611716Y26345272D01*
X39557550Y26384625D01*
X39368217Y26481096D01*
X39166128Y26546758D01*
X39107411Y26556058D01*
X39044276Y26585988D01*
X39007345Y26645299D01*
X39008343Y26715162D01*
X39046953Y26773394D01*
X39102615Y26800148D01*
X39141835Y26807949D01*
X39323914Y26883368D01*
X39487782Y26992861D01*
X39627139Y27132218D01*
X39736632Y27296086D01*
X39812051Y27478165D01*
X39832167Y27579293D01*
X39850500Y27671457D01*
X40389499Y27671457D01*
X40427947Y27478171D01*
X40427950Y27478161D01*
X40503364Y27296093D01*
X40503371Y27296080D01*
X40612860Y27132219D01*
X40612863Y27132215D01*
X40752214Y26992864D01*
X40752218Y26992861D01*
X40916079Y26883372D01*
X40916092Y26883365D01*
X40976381Y26858393D01*
X41098165Y26807949D01*
X41098169Y26807949D01*
X41098170Y26807948D01*
X41291456Y26769500D01*
X41291459Y26769500D01*
X41488543Y26769500D01*
X41642622Y26800149D01*
X41681835Y26807949D01*
X41863914Y26883368D01*
X42027782Y26992861D01*
X42167139Y27132218D01*
X42276632Y27296086D01*
X42352051Y27478165D01*
X42359852Y27517385D01*
X42392236Y27579293D01*
X42452952Y27613867D01*
X42522721Y27610128D01*
X42579394Y27569262D01*
X42603942Y27512589D01*
X42613242Y27453873D01*
X42613242Y27453870D01*
X42678904Y27251783D01*
X42775375Y27062450D01*
X42814728Y27008284D01*
X43447037Y27640592D01*
X43464075Y27577007D01*
X43529901Y27462993D01*
X43622993Y27369901D01*
X43737007Y27304075D01*
X43800590Y27287038D01*
X43168282Y26654731D01*
X43168282Y26654730D01*
X43222449Y26615376D01*
X43411782Y26518905D01*
X43613865Y26453245D01*
X43672587Y26443944D01*
X43735722Y26414015D01*
X43772654Y26354703D01*
X43771656Y26284841D01*
X43733047Y26226608D01*
X43677384Y26199853D01*
X43638167Y26192052D01*
X43638160Y26192050D01*
X43456092Y26116636D01*
X43456079Y26116629D01*
X43292218Y26007140D01*
X43292214Y26007137D01*
X43152863Y25867786D01*
X43152860Y25867782D01*
X43043371Y25703921D01*
X43043364Y25703908D01*
X42967950Y25521840D01*
X42967947Y25521830D01*
X42929500Y25328544D01*
X42929500Y25328541D01*
X42929500Y25131459D01*
X42929500Y25131457D01*
X42929499Y25131457D01*
X42967947Y24938171D01*
X42967950Y24938161D01*
X43043364Y24756093D01*
X43043371Y24756080D01*
X43152860Y24592219D01*
X43152863Y24592215D01*
X43292214Y24452864D01*
X43292218Y24452861D01*
X43456079Y24343372D01*
X43456092Y24343365D01*
X43638160Y24267951D01*
X43638165Y24267949D01*
X43638169Y24267949D01*
X43638170Y24267948D01*
X43831456Y24229500D01*
X43831459Y24229500D01*
X44028543Y24229500D01*
X44158582Y24255368D01*
X44221835Y24267949D01*
X44403914Y24343368D01*
X44567782Y24452861D01*
X44707139Y24592218D01*
X44816632Y24756086D01*
X44892051Y24938165D01*
X44905780Y25007186D01*
X44930500Y25131457D01*
X45469499Y25131457D01*
X45507947Y24938171D01*
X45507950Y24938161D01*
X45583364Y24756093D01*
X45583371Y24756080D01*
X45692860Y24592219D01*
X45692863Y24592215D01*
X45832214Y24452864D01*
X45832218Y24452861D01*
X45996079Y24343372D01*
X45996092Y24343365D01*
X46178160Y24267951D01*
X46178165Y24267949D01*
X46178169Y24267949D01*
X46178170Y24267948D01*
X46371456Y24229500D01*
X46371459Y24229500D01*
X46568543Y24229500D01*
X46698582Y24255368D01*
X46761835Y24267949D01*
X46943914Y24343368D01*
X47107782Y24452861D01*
X47247139Y24592218D01*
X47356632Y24756086D01*
X47432051Y24938165D01*
X47445780Y25007186D01*
X47470500Y25131457D01*
X47470500Y25328544D01*
X47432052Y25521830D01*
X47432051Y25521833D01*
X47432051Y25521835D01*
X47421986Y25546135D01*
X47356635Y25703908D01*
X47356628Y25703921D01*
X47247139Y25867782D01*
X47247136Y25867786D01*
X47107785Y26007137D01*
X47107781Y26007140D01*
X46943920Y26116629D01*
X46943907Y26116636D01*
X46761839Y26192050D01*
X46761829Y26192053D01*
X46568543Y26230500D01*
X46568541Y26230500D01*
X46371459Y26230500D01*
X46371457Y26230500D01*
X46178170Y26192053D01*
X46178160Y26192050D01*
X45996092Y26116636D01*
X45996079Y26116629D01*
X45832218Y26007140D01*
X45832214Y26007137D01*
X45692863Y25867786D01*
X45692860Y25867782D01*
X45583371Y25703921D01*
X45583364Y25703908D01*
X45507950Y25521840D01*
X45507947Y25521830D01*
X45469500Y25328544D01*
X45469500Y25328541D01*
X45469500Y25131459D01*
X45469500Y25131457D01*
X45469499Y25131457D01*
X44930500Y25131457D01*
X44930500Y25328544D01*
X44892052Y25521830D01*
X44892051Y25521833D01*
X44892051Y25521835D01*
X44881986Y25546135D01*
X44816635Y25703908D01*
X44816628Y25703921D01*
X44707139Y25867782D01*
X44707136Y25867786D01*
X44567785Y26007137D01*
X44567781Y26007140D01*
X44403920Y26116629D01*
X44403907Y26116636D01*
X44221839Y26192050D01*
X44221830Y26192053D01*
X44182616Y26199853D01*
X44120705Y26232239D01*
X44086132Y26292955D01*
X44089873Y26362725D01*
X44130740Y26419396D01*
X44187412Y26443944D01*
X44246134Y26453245D01*
X44448217Y26518905D01*
X44637554Y26615378D01*
X44691716Y26654730D01*
X44691717Y26654730D01*
X44059408Y27287038D01*
X44122993Y27304075D01*
X44237007Y27369901D01*
X44330099Y27462993D01*
X44395925Y27577007D01*
X44412962Y27640592D01*
X45045270Y27008283D01*
X45045270Y27008284D01*
X45084622Y27062446D01*
X45181095Y27251783D01*
X45246755Y27453866D01*
X45256056Y27512588D01*
X45285985Y27575723D01*
X45345296Y27612654D01*
X45415159Y27611658D01*
X45473392Y27573048D01*
X45500147Y27517384D01*
X45507947Y27478170D01*
X45507950Y27478161D01*
X45583364Y27296093D01*
X45583371Y27296080D01*
X45692860Y27132219D01*
X45692863Y27132215D01*
X45832214Y26992864D01*
X45832218Y26992861D01*
X45996079Y26883372D01*
X45996092Y26883365D01*
X46056381Y26858393D01*
X46178165Y26807949D01*
X46178169Y26807949D01*
X46178170Y26807948D01*
X46371456Y26769500D01*
X46371459Y26769500D01*
X46568543Y26769500D01*
X46722622Y26800149D01*
X46761835Y26807949D01*
X46943914Y26883368D01*
X47107782Y26992861D01*
X47247139Y27132218D01*
X47356632Y27296086D01*
X47432051Y27478165D01*
X47439852Y27517385D01*
X47472236Y27579293D01*
X47532952Y27613867D01*
X47602721Y27610128D01*
X47659394Y27569262D01*
X47683942Y27512589D01*
X47693242Y27453873D01*
X47693242Y27453870D01*
X47758904Y27251783D01*
X47855375Y27062450D01*
X47894728Y27008284D01*
X48527037Y27640592D01*
X48544075Y27577007D01*
X48609901Y27462993D01*
X48702993Y27369901D01*
X48817007Y27304075D01*
X48880590Y27287038D01*
X48248282Y26654731D01*
X48248282Y26654730D01*
X48302449Y26615376D01*
X48491782Y26518905D01*
X48693865Y26453245D01*
X48752587Y26443944D01*
X48815722Y26414015D01*
X48852654Y26354703D01*
X48851656Y26284841D01*
X48813047Y26226608D01*
X48757384Y26199853D01*
X48718167Y26192052D01*
X48718160Y26192050D01*
X48536092Y26116636D01*
X48536079Y26116629D01*
X48372218Y26007140D01*
X48372214Y26007137D01*
X48232863Y25867786D01*
X48232860Y25867782D01*
X48123371Y25703921D01*
X48123364Y25703908D01*
X48047950Y25521840D01*
X48047947Y25521830D01*
X48009500Y25328544D01*
X48009500Y25328541D01*
X48009500Y25131459D01*
X48009500Y25131457D01*
X48009499Y25131457D01*
X48047947Y24938171D01*
X48047950Y24938161D01*
X48123364Y24756093D01*
X48123371Y24756080D01*
X48232860Y24592219D01*
X48232863Y24592215D01*
X48372214Y24452864D01*
X48372218Y24452861D01*
X48536079Y24343372D01*
X48536092Y24343365D01*
X48718160Y24267951D01*
X48718165Y24267949D01*
X48718169Y24267949D01*
X48718170Y24267948D01*
X48911456Y24229500D01*
X48911459Y24229500D01*
X49108543Y24229500D01*
X49238582Y24255368D01*
X49301835Y24267949D01*
X49483914Y24343368D01*
X49647782Y24452861D01*
X49787139Y24592218D01*
X49896632Y24756086D01*
X49972051Y24938165D01*
X49985780Y25007186D01*
X50010500Y25131457D01*
X50549499Y25131457D01*
X50587947Y24938171D01*
X50587950Y24938161D01*
X50663364Y24756093D01*
X50663371Y24756080D01*
X50772860Y24592219D01*
X50772863Y24592215D01*
X50912214Y24452864D01*
X50912218Y24452861D01*
X51076079Y24343372D01*
X51076092Y24343365D01*
X51258160Y24267951D01*
X51258165Y24267949D01*
X51258169Y24267949D01*
X51258170Y24267948D01*
X51451456Y24229500D01*
X51451459Y24229500D01*
X51648543Y24229500D01*
X51778582Y24255368D01*
X51841835Y24267949D01*
X52023914Y24343368D01*
X52187782Y24452861D01*
X52327139Y24592218D01*
X52436632Y24756086D01*
X52512051Y24938165D01*
X52525780Y25007186D01*
X52550500Y25131457D01*
X53089499Y25131457D01*
X53127947Y24938171D01*
X53127950Y24938161D01*
X53203364Y24756093D01*
X53203371Y24756080D01*
X53312860Y24592219D01*
X53312863Y24592215D01*
X53452214Y24452864D01*
X53452218Y24452861D01*
X53616079Y24343372D01*
X53616092Y24343365D01*
X53798160Y24267951D01*
X53798165Y24267949D01*
X53798169Y24267949D01*
X53798170Y24267948D01*
X53991456Y24229500D01*
X53991459Y24229500D01*
X54188543Y24229500D01*
X54318582Y24255368D01*
X54381835Y24267949D01*
X54563914Y24343368D01*
X54727782Y24452861D01*
X54867139Y24592218D01*
X54976632Y24756086D01*
X55052051Y24938165D01*
X55059852Y24977385D01*
X55092236Y25039293D01*
X55152952Y25073867D01*
X55222721Y25070128D01*
X55279394Y25029262D01*
X55303942Y24972589D01*
X55313242Y24913873D01*
X55313242Y24913870D01*
X55378904Y24711783D01*
X55475375Y24522450D01*
X55514728Y24468284D01*
X56147036Y25100593D01*
X56164075Y25037007D01*
X56229901Y24922993D01*
X56322993Y24829901D01*
X56437007Y24764075D01*
X56500590Y24747038D01*
X55868282Y24114731D01*
X55868282Y24114730D01*
X55922449Y24075376D01*
X56111782Y23978905D01*
X56313870Y23913243D01*
X56523754Y23880000D01*
X56736246Y23880000D01*
X56946127Y23913243D01*
X56946130Y23913243D01*
X57148217Y23978905D01*
X57337554Y24075378D01*
X57391716Y24114730D01*
X57391717Y24114730D01*
X56759408Y24747038D01*
X56822993Y24764075D01*
X56937007Y24829901D01*
X57030099Y24922993D01*
X57095925Y25037007D01*
X57112962Y25100591D01*
X57745270Y24468283D01*
X57745270Y24468284D01*
X57784622Y24522446D01*
X57881095Y24711783D01*
X57946757Y24913870D01*
X57946757Y24913873D01*
X57980000Y25123754D01*
X57980000Y25336247D01*
X57946757Y25546128D01*
X57946757Y25546131D01*
X57881095Y25748218D01*
X57784624Y25937551D01*
X57745270Y25991718D01*
X57112962Y25359410D01*
X57095925Y25422993D01*
X57030099Y25537007D01*
X56937007Y25630099D01*
X56822993Y25695925D01*
X56759409Y25712963D01*
X57391716Y26345272D01*
X57337550Y26384625D01*
X57148217Y26481096D01*
X57070387Y26506384D01*
X56874749Y26558747D01*
X56850220Y26573689D01*
X56824276Y26585988D01*
X56820759Y26591635D01*
X56815078Y26595096D01*
X56802751Y26620453D01*
X59969500Y26620453D01*
X59969500Y26379547D01*
X59991992Y26237539D01*
X60007186Y26141607D01*
X60081631Y25912488D01*
X60187902Y25703921D01*
X60190999Y25697843D01*
X60332600Y25502946D01*
X60502946Y25332600D01*
X60697843Y25190999D01*
X60799256Y25139327D01*
X60912487Y25081632D01*
X60912489Y25081632D01*
X60912492Y25081630D01*
X61141607Y25007186D01*
X61379547Y24969500D01*
X61379548Y24969500D01*
X61620452Y24969500D01*
X61620453Y24969500D01*
X61858393Y25007186D01*
X62087508Y25081630D01*
X62302157Y25190999D01*
X62497054Y25332600D01*
X62667400Y25502946D01*
X62809001Y25697843D01*
X62918370Y25912492D01*
X62992814Y26141607D01*
X63030500Y26379547D01*
X63030500Y26620453D01*
X62992814Y26858393D01*
X62918370Y27087508D01*
X62918368Y27087511D01*
X62918368Y27087513D01*
X62834668Y27251783D01*
X62809001Y27302157D01*
X62667400Y27497054D01*
X62497054Y27667400D01*
X62302157Y27809001D01*
X62249510Y27835826D01*
X62087512Y27918369D01*
X61858393Y27992814D01*
X61620453Y28030500D01*
X61379547Y28030500D01*
X61260577Y28011657D01*
X61141606Y27992814D01*
X60912487Y27918369D01*
X60697842Y27809001D01*
X60502943Y27667398D01*
X60332602Y27497057D01*
X60190999Y27302158D01*
X60081631Y27087513D01*
X60052066Y26996520D01*
X60007186Y26858393D01*
X59969500Y26620453D01*
X56802751Y26620453D01*
X56802523Y26620922D01*
X56787345Y26645299D01*
X56787440Y26651952D01*
X56784532Y26657934D01*
X56787932Y26686447D01*
X56788343Y26715162D01*
X56792019Y26720707D01*
X56792807Y26727312D01*
X56811083Y26749460D01*
X56826953Y26773394D01*
X56833386Y26776487D01*
X56837278Y26781202D01*
X56854987Y26786869D01*
X56882615Y26800148D01*
X56921835Y26807949D01*
X57103914Y26883368D01*
X57267782Y26992861D01*
X57407139Y27132218D01*
X57516632Y27296086D01*
X57592051Y27478165D01*
X57612167Y27579293D01*
X57630500Y27671457D01*
X57630500Y27868544D01*
X57592052Y28061830D01*
X57592051Y28061833D01*
X57592051Y28061835D01*
X57581986Y28086135D01*
X57516635Y28243908D01*
X57516628Y28243921D01*
X57407139Y28407782D01*
X57407136Y28407786D01*
X57267785Y28547137D01*
X57267781Y28547140D01*
X57103920Y28656629D01*
X57103907Y28656636D01*
X56921839Y28732050D01*
X56921829Y28732053D01*
X56728543Y28770500D01*
X56728541Y28770500D01*
X56531459Y28770500D01*
X56531457Y28770500D01*
X56338170Y28732053D01*
X56338160Y28732050D01*
X56156092Y28656636D01*
X56156079Y28656629D01*
X55992218Y28547140D01*
X55992214Y28547137D01*
X55852863Y28407786D01*
X55852860Y28407782D01*
X55743371Y28243921D01*
X55743364Y28243908D01*
X55667950Y28061840D01*
X55667947Y28061830D01*
X55629500Y27868544D01*
X55629500Y27868541D01*
X55629500Y27671459D01*
X55629500Y27671457D01*
X55629499Y27671457D01*
X55667947Y27478171D01*
X55667950Y27478161D01*
X55743364Y27296093D01*
X55743371Y27296080D01*
X55852860Y27132219D01*
X55852863Y27132215D01*
X55992214Y26992864D01*
X55992218Y26992861D01*
X56156079Y26883372D01*
X56156092Y26883365D01*
X56216381Y26858393D01*
X56338165Y26807949D01*
X56358491Y26803906D01*
X56377381Y26800148D01*
X56439292Y26767763D01*
X56473866Y26707048D01*
X56470127Y26637278D01*
X56429261Y26580606D01*
X56372589Y26556058D01*
X56313870Y26546758D01*
X56313869Y26546758D01*
X56111782Y26481096D01*
X55922439Y26384620D01*
X55868282Y26345273D01*
X55868282Y26345272D01*
X56500591Y25712963D01*
X56437007Y25695925D01*
X56322993Y25630099D01*
X56229901Y25537007D01*
X56164075Y25422993D01*
X56147037Y25359409D01*
X55514728Y25991718D01*
X55514727Y25991718D01*
X55475380Y25937561D01*
X55378904Y25748218D01*
X55313242Y25546131D01*
X55313242Y25546130D01*
X55303942Y25487411D01*
X55274012Y25424277D01*
X55214700Y25387346D01*
X55144838Y25388344D01*
X55086605Y25426954D01*
X55059852Y25482619D01*
X55052052Y25521828D01*
X55052051Y25521833D01*
X55052051Y25521835D01*
X55041986Y25546135D01*
X54976635Y25703908D01*
X54976628Y25703921D01*
X54867139Y25867782D01*
X54867136Y25867786D01*
X54727785Y26007137D01*
X54727781Y26007140D01*
X54563920Y26116629D01*
X54563907Y26116636D01*
X54381839Y26192050D01*
X54381829Y26192053D01*
X54188543Y26230500D01*
X54188541Y26230500D01*
X53991459Y26230500D01*
X53991457Y26230500D01*
X53798170Y26192053D01*
X53798160Y26192050D01*
X53616092Y26116636D01*
X53616079Y26116629D01*
X53452218Y26007140D01*
X53452214Y26007137D01*
X53312863Y25867786D01*
X53312860Y25867782D01*
X53203371Y25703921D01*
X53203364Y25703908D01*
X53127950Y25521840D01*
X53127947Y25521830D01*
X53089500Y25328544D01*
X53089500Y25328541D01*
X53089500Y25131459D01*
X53089500Y25131457D01*
X53089499Y25131457D01*
X52550500Y25131457D01*
X52550500Y25328544D01*
X52512052Y25521830D01*
X52512051Y25521833D01*
X52512051Y25521835D01*
X52501986Y25546135D01*
X52436635Y25703908D01*
X52436628Y25703921D01*
X52327139Y25867782D01*
X52327136Y25867786D01*
X52187785Y26007137D01*
X52187781Y26007140D01*
X52023920Y26116629D01*
X52023907Y26116636D01*
X51841839Y26192050D01*
X51841829Y26192053D01*
X51648543Y26230500D01*
X51648541Y26230500D01*
X51451459Y26230500D01*
X51451457Y26230500D01*
X51258170Y26192053D01*
X51258160Y26192050D01*
X51076092Y26116636D01*
X51076079Y26116629D01*
X50912218Y26007140D01*
X50912214Y26007137D01*
X50772863Y25867786D01*
X50772860Y25867782D01*
X50663371Y25703921D01*
X50663364Y25703908D01*
X50587950Y25521840D01*
X50587947Y25521830D01*
X50549500Y25328544D01*
X50549500Y25328541D01*
X50549500Y25131459D01*
X50549500Y25131457D01*
X50549499Y25131457D01*
X50010500Y25131457D01*
X50010500Y25328544D01*
X49972052Y25521830D01*
X49972051Y25521833D01*
X49972051Y25521835D01*
X49961986Y25546135D01*
X49896635Y25703908D01*
X49896628Y25703921D01*
X49787139Y25867782D01*
X49787136Y25867786D01*
X49647785Y26007137D01*
X49647781Y26007140D01*
X49483920Y26116629D01*
X49483907Y26116636D01*
X49301839Y26192050D01*
X49301830Y26192053D01*
X49262616Y26199853D01*
X49200705Y26232239D01*
X49166132Y26292955D01*
X49169873Y26362725D01*
X49210740Y26419396D01*
X49267412Y26443944D01*
X49326134Y26453245D01*
X49528217Y26518905D01*
X49717554Y26615378D01*
X49771716Y26654730D01*
X49771717Y26654730D01*
X49139408Y27287038D01*
X49202993Y27304075D01*
X49317007Y27369901D01*
X49410099Y27462993D01*
X49475925Y27577007D01*
X49492962Y27640592D01*
X50125270Y27008283D01*
X50125270Y27008284D01*
X50164622Y27062446D01*
X50261095Y27251783D01*
X50326755Y27453866D01*
X50336056Y27512588D01*
X50365985Y27575723D01*
X50425296Y27612654D01*
X50495159Y27611658D01*
X50553392Y27573048D01*
X50580147Y27517384D01*
X50587947Y27478170D01*
X50587950Y27478161D01*
X50663364Y27296093D01*
X50663371Y27296080D01*
X50772860Y27132219D01*
X50772863Y27132215D01*
X50912214Y26992864D01*
X50912218Y26992861D01*
X51076079Y26883372D01*
X51076092Y26883365D01*
X51136381Y26858393D01*
X51258165Y26807949D01*
X51258169Y26807949D01*
X51258170Y26807948D01*
X51451456Y26769500D01*
X51451459Y26769500D01*
X51648543Y26769500D01*
X51802622Y26800149D01*
X51841835Y26807949D01*
X52023914Y26883368D01*
X52187782Y26992861D01*
X52327139Y27132218D01*
X52436632Y27296086D01*
X52512051Y27478165D01*
X52532167Y27579293D01*
X52550500Y27671457D01*
X53089499Y27671457D01*
X53127947Y27478171D01*
X53127950Y27478161D01*
X53203364Y27296093D01*
X53203371Y27296080D01*
X53312860Y27132219D01*
X53312863Y27132215D01*
X53452214Y26992864D01*
X53452218Y26992861D01*
X53616079Y26883372D01*
X53616092Y26883365D01*
X53676381Y26858393D01*
X53798165Y26807949D01*
X53798169Y26807949D01*
X53798170Y26807948D01*
X53991456Y26769500D01*
X53991459Y26769500D01*
X54188543Y26769500D01*
X54342622Y26800149D01*
X54381835Y26807949D01*
X54563914Y26883368D01*
X54727782Y26992861D01*
X54867139Y27132218D01*
X54976632Y27296086D01*
X55052051Y27478165D01*
X55072167Y27579293D01*
X55090500Y27671457D01*
X55090500Y27868544D01*
X55052052Y28061830D01*
X55052051Y28061833D01*
X55052051Y28061835D01*
X55041986Y28086135D01*
X54976635Y28243908D01*
X54976628Y28243921D01*
X54867139Y28407782D01*
X54867136Y28407786D01*
X54727785Y28547137D01*
X54727781Y28547140D01*
X54563920Y28656629D01*
X54563907Y28656636D01*
X54381839Y28732050D01*
X54381829Y28732053D01*
X54188543Y28770500D01*
X54188541Y28770500D01*
X53991459Y28770500D01*
X53991457Y28770500D01*
X53798170Y28732053D01*
X53798160Y28732050D01*
X53616092Y28656636D01*
X53616079Y28656629D01*
X53452218Y28547140D01*
X53452214Y28547137D01*
X53312863Y28407786D01*
X53312860Y28407782D01*
X53203371Y28243921D01*
X53203364Y28243908D01*
X53127950Y28061840D01*
X53127947Y28061830D01*
X53089500Y27868544D01*
X53089500Y27868541D01*
X53089500Y27671459D01*
X53089500Y27671457D01*
X53089499Y27671457D01*
X52550500Y27671457D01*
X52550500Y27868544D01*
X52512052Y28061830D01*
X52512051Y28061833D01*
X52512051Y28061835D01*
X52501986Y28086135D01*
X52436635Y28243908D01*
X52436628Y28243921D01*
X52327139Y28407782D01*
X52327136Y28407786D01*
X52187785Y28547137D01*
X52187781Y28547140D01*
X52023920Y28656629D01*
X52023907Y28656636D01*
X51841839Y28732050D01*
X51841829Y28732053D01*
X51648543Y28770500D01*
X51648541Y28770500D01*
X51451459Y28770500D01*
X51451457Y28770500D01*
X51258170Y28732053D01*
X51258160Y28732050D01*
X51076092Y28656636D01*
X51076079Y28656629D01*
X50912218Y28547140D01*
X50912214Y28547137D01*
X50772863Y28407786D01*
X50772860Y28407782D01*
X50663371Y28243921D01*
X50663364Y28243908D01*
X50587950Y28061840D01*
X50587948Y28061833D01*
X50580147Y28022616D01*
X50547761Y27960706D01*
X50487044Y27926133D01*
X50417275Y27929874D01*
X50360604Y27970742D01*
X50336056Y28027413D01*
X50326755Y28086135D01*
X50261095Y28288218D01*
X50164624Y28477551D01*
X50125270Y28531718D01*
X49492962Y27899410D01*
X49475925Y27962993D01*
X49410099Y28077007D01*
X49317007Y28170099D01*
X49202993Y28235925D01*
X49139409Y28252963D01*
X49771716Y28885272D01*
X49717550Y28924625D01*
X49528217Y29021096D01*
X49326129Y29086758D01*
X49116246Y29120000D01*
X48903754Y29120000D01*
X48693872Y29086758D01*
X48693869Y29086758D01*
X48491782Y29021096D01*
X48302439Y28924620D01*
X48248282Y28885273D01*
X48248282Y28885272D01*
X48880591Y28252963D01*
X48817007Y28235925D01*
X48702993Y28170099D01*
X48609901Y28077007D01*
X48544075Y27962993D01*
X48527037Y27899409D01*
X47894728Y28531718D01*
X47894727Y28531718D01*
X47855380Y28477561D01*
X47758904Y28288218D01*
X47693242Y28086131D01*
X47693242Y28086130D01*
X47683942Y28027411D01*
X47654012Y27964277D01*
X47594700Y27927346D01*
X47524838Y27928344D01*
X47466605Y27966954D01*
X47439852Y28022619D01*
X47432052Y28061828D01*
X47432051Y28061833D01*
X47432051Y28061835D01*
X47421986Y28086135D01*
X47356635Y28243908D01*
X47356628Y28243921D01*
X47247139Y28407782D01*
X47247136Y28407786D01*
X47107785Y28547137D01*
X47107781Y28547140D01*
X46943920Y28656629D01*
X46943907Y28656636D01*
X46782596Y28723452D01*
X46761839Y28732050D01*
X46761829Y28732053D01*
X46568543Y28770500D01*
X46568541Y28770500D01*
X46371459Y28770500D01*
X46371457Y28770500D01*
X46178170Y28732053D01*
X46178160Y28732050D01*
X45996092Y28656636D01*
X45996079Y28656629D01*
X45832218Y28547140D01*
X45832214Y28547137D01*
X45692863Y28407786D01*
X45692860Y28407782D01*
X45583371Y28243921D01*
X45583364Y28243908D01*
X45507950Y28061840D01*
X45507948Y28061833D01*
X45500147Y28022616D01*
X45467761Y27960706D01*
X45407044Y27926133D01*
X45337275Y27929874D01*
X45280604Y27970742D01*
X45256056Y28027413D01*
X45246755Y28086135D01*
X45181095Y28288218D01*
X45084624Y28477551D01*
X45045270Y28531718D01*
X44412962Y27899410D01*
X44395925Y27962993D01*
X44330099Y28077007D01*
X44237007Y28170099D01*
X44122993Y28235925D01*
X44059409Y28252963D01*
X44691716Y28885272D01*
X44637550Y28924625D01*
X44448217Y29021096D01*
X44246129Y29086758D01*
X44036246Y29120000D01*
X43823754Y29120000D01*
X43613872Y29086758D01*
X43613869Y29086758D01*
X43411782Y29021096D01*
X43222439Y28924620D01*
X43168282Y28885273D01*
X43168282Y28885272D01*
X43800591Y28252963D01*
X43737007Y28235925D01*
X43622993Y28170099D01*
X43529901Y28077007D01*
X43464075Y27962993D01*
X43447037Y27899409D01*
X42814728Y28531718D01*
X42814727Y28531718D01*
X42775380Y28477561D01*
X42678904Y28288218D01*
X42613242Y28086131D01*
X42613242Y28086130D01*
X42603942Y28027411D01*
X42574012Y27964277D01*
X42514700Y27927346D01*
X42444838Y27928344D01*
X42386605Y27966954D01*
X42359852Y28022619D01*
X42352052Y28061828D01*
X42352051Y28061833D01*
X42352051Y28061835D01*
X42341986Y28086135D01*
X42276635Y28243908D01*
X42276628Y28243921D01*
X42167139Y28407782D01*
X42167136Y28407786D01*
X42027785Y28547137D01*
X42027781Y28547140D01*
X41863920Y28656629D01*
X41863907Y28656636D01*
X41702596Y28723452D01*
X41681839Y28732050D01*
X41681829Y28732053D01*
X41488543Y28770500D01*
X41488541Y28770500D01*
X41291459Y28770500D01*
X41291457Y28770500D01*
X41098170Y28732053D01*
X41098160Y28732050D01*
X40916092Y28656636D01*
X40916079Y28656629D01*
X40752218Y28547140D01*
X40752214Y28547137D01*
X40612863Y28407786D01*
X40612860Y28407782D01*
X40503371Y28243921D01*
X40503364Y28243908D01*
X40427950Y28061840D01*
X40427947Y28061830D01*
X40389500Y27868544D01*
X40389500Y27868541D01*
X40389500Y27671459D01*
X40389500Y27671457D01*
X40389499Y27671457D01*
X39850500Y27671457D01*
X39850500Y27868544D01*
X39812052Y28061830D01*
X39812051Y28061833D01*
X39812051Y28061835D01*
X39801986Y28086135D01*
X39736635Y28243908D01*
X39736628Y28243921D01*
X39627139Y28407782D01*
X39627136Y28407786D01*
X39487785Y28547137D01*
X39487781Y28547140D01*
X39323920Y28656629D01*
X39323907Y28656636D01*
X39141839Y28732050D01*
X39141829Y28732053D01*
X38948543Y28770500D01*
X38948541Y28770500D01*
X38751459Y28770500D01*
X38751457Y28770500D01*
X38558170Y28732053D01*
X38558160Y28732050D01*
X38376092Y28656636D01*
X38376079Y28656629D01*
X38212218Y28547140D01*
X38212214Y28547137D01*
X38072863Y28407786D01*
X38072860Y28407782D01*
X37963371Y28243921D01*
X37963364Y28243908D01*
X37887950Y28061840D01*
X37887947Y28061830D01*
X37849500Y27868544D01*
X37849500Y27868541D01*
X37849500Y27671459D01*
X37849500Y27671457D01*
X37849499Y27671457D01*
X37887947Y27478171D01*
X37887950Y27478161D01*
X37963364Y27296093D01*
X37963371Y27296080D01*
X38072860Y27132219D01*
X38072863Y27132215D01*
X38212214Y26992864D01*
X38212218Y26992861D01*
X38376079Y26883372D01*
X38376092Y26883365D01*
X38436381Y26858393D01*
X38558165Y26807949D01*
X38578491Y26803906D01*
X38597381Y26800148D01*
X38659292Y26767763D01*
X38693866Y26707048D01*
X38690127Y26637278D01*
X38649261Y26580606D01*
X38592589Y26556058D01*
X38533870Y26546758D01*
X38533869Y26546758D01*
X38331782Y26481096D01*
X38142439Y26384620D01*
X38088282Y26345273D01*
X38088282Y26345272D01*
X38720591Y25712963D01*
X38657007Y25695925D01*
X38542993Y25630099D01*
X38449901Y25537007D01*
X38384075Y25422993D01*
X38367037Y25359409D01*
X37734728Y25991718D01*
X37734727Y25991718D01*
X37695380Y25937561D01*
X37598904Y25748218D01*
X37533242Y25546131D01*
X37533242Y25546130D01*
X37523942Y25487411D01*
X37494012Y25424277D01*
X37434700Y25387346D01*
X37364838Y25388344D01*
X37306605Y25426954D01*
X37279852Y25482619D01*
X37272052Y25521828D01*
X37272051Y25521833D01*
X37272051Y25521835D01*
X37261986Y25546135D01*
X37196635Y25703908D01*
X37196628Y25703921D01*
X37087139Y25867782D01*
X37087136Y25867786D01*
X36947785Y26007137D01*
X36947781Y26007140D01*
X36783920Y26116629D01*
X36783907Y26116636D01*
X36601839Y26192050D01*
X36601829Y26192053D01*
X36408543Y26230500D01*
X36408541Y26230500D01*
X36211459Y26230500D01*
X36211457Y26230500D01*
X36018170Y26192053D01*
X36018160Y26192050D01*
X35836092Y26116636D01*
X35836079Y26116629D01*
X35672218Y26007140D01*
X35672214Y26007137D01*
X35532863Y25867786D01*
X35532860Y25867782D01*
X35423371Y25703921D01*
X35423364Y25703908D01*
X35347950Y25521840D01*
X35347947Y25521830D01*
X35309500Y25328544D01*
X35309500Y25328541D01*
X35309500Y25131459D01*
X35309500Y25131457D01*
X35309499Y25131457D01*
X34770500Y25131457D01*
X34770500Y25328544D01*
X34732052Y25521830D01*
X34732051Y25521833D01*
X34732051Y25521835D01*
X34721986Y25546135D01*
X34656635Y25703908D01*
X34656628Y25703921D01*
X34547139Y25867782D01*
X34547136Y25867786D01*
X34407785Y26007137D01*
X34407781Y26007140D01*
X34243920Y26116629D01*
X34243907Y26116636D01*
X34061839Y26192050D01*
X34061829Y26192053D01*
X33868543Y26230500D01*
X33868541Y26230500D01*
X33671459Y26230500D01*
X33671457Y26230500D01*
X33478170Y26192053D01*
X33478160Y26192050D01*
X33296092Y26116636D01*
X33296079Y26116629D01*
X33132218Y26007140D01*
X33132214Y26007137D01*
X32992863Y25867786D01*
X32992860Y25867782D01*
X32883371Y25703921D01*
X32883364Y25703908D01*
X32807950Y25521840D01*
X32807947Y25521830D01*
X32769500Y25328544D01*
X32769500Y25328541D01*
X32769500Y25131459D01*
X32769500Y25131457D01*
X32769499Y25131457D01*
X32230500Y25131457D01*
X32230500Y25328544D01*
X32192052Y25521830D01*
X32192051Y25521833D01*
X32192051Y25521835D01*
X32181986Y25546135D01*
X32116635Y25703908D01*
X32116628Y25703921D01*
X32007139Y25867782D01*
X32007136Y25867786D01*
X31867785Y26007137D01*
X31867781Y26007140D01*
X31703920Y26116629D01*
X31703907Y26116636D01*
X31521839Y26192050D01*
X31521830Y26192053D01*
X31482616Y26199853D01*
X31420705Y26232239D01*
X31386132Y26292955D01*
X31389873Y26362725D01*
X31430740Y26419396D01*
X31487412Y26443944D01*
X31546134Y26453245D01*
X31748217Y26518905D01*
X31937554Y26615378D01*
X31991716Y26654730D01*
X31991717Y26654730D01*
X31359408Y27287038D01*
X31422993Y27304075D01*
X31537007Y27369901D01*
X31630099Y27462993D01*
X31695925Y27577007D01*
X31712962Y27640591D01*
X32345270Y27008283D01*
X32345270Y27008284D01*
X32384622Y27062446D01*
X32481095Y27251783D01*
X32546755Y27453866D01*
X32556056Y27512588D01*
X32585985Y27575723D01*
X32645296Y27612654D01*
X32715159Y27611658D01*
X32773392Y27573048D01*
X32800147Y27517384D01*
X32807947Y27478170D01*
X32807950Y27478161D01*
X32883364Y27296093D01*
X32883371Y27296080D01*
X32992860Y27132219D01*
X32992863Y27132215D01*
X33132214Y26992864D01*
X33132218Y26992861D01*
X33296079Y26883372D01*
X33296092Y26883365D01*
X33356381Y26858393D01*
X33478165Y26807949D01*
X33478169Y26807949D01*
X33478170Y26807948D01*
X33671456Y26769500D01*
X33671459Y26769500D01*
X33868543Y26769500D01*
X34022622Y26800149D01*
X34061835Y26807949D01*
X34243914Y26883368D01*
X34407782Y26992861D01*
X34547139Y27132218D01*
X34656632Y27296086D01*
X34732051Y27478165D01*
X34752167Y27579293D01*
X34770500Y27671457D01*
X35309499Y27671457D01*
X35347947Y27478171D01*
X35347950Y27478161D01*
X35423364Y27296093D01*
X35423371Y27296080D01*
X35532860Y27132219D01*
X35532863Y27132215D01*
X35672214Y26992864D01*
X35672218Y26992861D01*
X35836079Y26883372D01*
X35836092Y26883365D01*
X35896381Y26858393D01*
X36018165Y26807949D01*
X36018169Y26807949D01*
X36018170Y26807948D01*
X36211456Y26769500D01*
X36211459Y26769500D01*
X36408543Y26769500D01*
X36562622Y26800149D01*
X36601835Y26807949D01*
X36783914Y26883368D01*
X36947782Y26992861D01*
X37087139Y27132218D01*
X37196632Y27296086D01*
X37272051Y27478165D01*
X37292167Y27579293D01*
X37310500Y27671457D01*
X37310500Y27868544D01*
X37272052Y28061830D01*
X37272051Y28061833D01*
X37272051Y28061835D01*
X37261986Y28086135D01*
X37196635Y28243908D01*
X37196628Y28243921D01*
X37087139Y28407782D01*
X37087136Y28407786D01*
X36947785Y28547137D01*
X36947781Y28547140D01*
X36783920Y28656629D01*
X36783907Y28656636D01*
X36601839Y28732050D01*
X36601829Y28732053D01*
X36408543Y28770500D01*
X36408541Y28770500D01*
X36211459Y28770500D01*
X36211457Y28770500D01*
X36018170Y28732053D01*
X36018160Y28732050D01*
X35836092Y28656636D01*
X35836079Y28656629D01*
X35672218Y28547140D01*
X35672214Y28547137D01*
X35532863Y28407786D01*
X35532860Y28407782D01*
X35423371Y28243921D01*
X35423364Y28243908D01*
X35347950Y28061840D01*
X35347947Y28061830D01*
X35309500Y27868544D01*
X35309500Y27868541D01*
X35309500Y27671459D01*
X35309500Y27671457D01*
X35309499Y27671457D01*
X34770500Y27671457D01*
X34770500Y27868544D01*
X34732052Y28061830D01*
X34732051Y28061833D01*
X34732051Y28061835D01*
X34721986Y28086135D01*
X34656635Y28243908D01*
X34656628Y28243921D01*
X34547139Y28407782D01*
X34547136Y28407786D01*
X34407785Y28547137D01*
X34407781Y28547140D01*
X34243920Y28656629D01*
X34243907Y28656636D01*
X34061839Y28732050D01*
X34061829Y28732053D01*
X33868543Y28770500D01*
X33868541Y28770500D01*
X33671459Y28770500D01*
X33671457Y28770500D01*
X33478170Y28732053D01*
X33478160Y28732050D01*
X33296092Y28656636D01*
X33296079Y28656629D01*
X33132218Y28547140D01*
X33132214Y28547137D01*
X32992863Y28407786D01*
X32992860Y28407782D01*
X32883371Y28243921D01*
X32883364Y28243908D01*
X32807950Y28061840D01*
X32807948Y28061833D01*
X32800147Y28022616D01*
X32767761Y27960706D01*
X32707044Y27926133D01*
X32637275Y27929874D01*
X32580604Y27970742D01*
X32556056Y28027413D01*
X32546755Y28086135D01*
X32481095Y28288218D01*
X32384624Y28477551D01*
X32345270Y28531718D01*
X32345269Y28531718D01*
X31712962Y27899410D01*
X31695925Y27962993D01*
X31630099Y28077007D01*
X31537007Y28170099D01*
X31422993Y28235925D01*
X31359409Y28252963D01*
X31991716Y28885272D01*
X31937550Y28924625D01*
X31748217Y29021096D01*
X31546129Y29086758D01*
X31336246Y29120000D01*
X31123754Y29120000D01*
X30913872Y29086758D01*
X30913869Y29086758D01*
X30711782Y29021096D01*
X30522439Y28924620D01*
X30468282Y28885273D01*
X30468282Y28885272D01*
X31100591Y28252963D01*
X31037007Y28235925D01*
X30922993Y28170099D01*
X30829901Y28077007D01*
X30764075Y27962993D01*
X30747037Y27899409D01*
X30114728Y28531718D01*
X30114727Y28531718D01*
X30075380Y28477561D01*
X29978904Y28288218D01*
X29913242Y28086131D01*
X29913242Y28086130D01*
X29903942Y28027411D01*
X29874012Y27964277D01*
X29814700Y27927346D01*
X29744838Y27928344D01*
X29686605Y27966954D01*
X29659852Y28022619D01*
X29652052Y28061828D01*
X29652051Y28061833D01*
X29652051Y28061835D01*
X29641986Y28086135D01*
X29576635Y28243908D01*
X29576628Y28243921D01*
X29467139Y28407782D01*
X29467136Y28407786D01*
X29327785Y28547137D01*
X29327781Y28547140D01*
X29163920Y28656629D01*
X29163907Y28656636D01*
X29002596Y28723452D01*
X28981839Y28732050D01*
X28981829Y28732053D01*
X28788543Y28770500D01*
X28788541Y28770500D01*
X28591459Y28770500D01*
X28591457Y28770500D01*
X28398170Y28732053D01*
X28398160Y28732050D01*
X28216092Y28656636D01*
X28216079Y28656629D01*
X28052218Y28547140D01*
X28052214Y28547137D01*
X27912863Y28407786D01*
X27912860Y28407782D01*
X27803371Y28243921D01*
X27803364Y28243908D01*
X27727950Y28061840D01*
X27727947Y28061830D01*
X27689500Y27868544D01*
X27689500Y27868541D01*
X27689500Y27671459D01*
X27689500Y27671457D01*
X27689499Y27671457D01*
X27150500Y27671457D01*
X27150500Y27868544D01*
X27112052Y28061830D01*
X27112051Y28061833D01*
X27112051Y28061835D01*
X27101986Y28086135D01*
X27036635Y28243908D01*
X27036628Y28243921D01*
X26927139Y28407782D01*
X26927136Y28407786D01*
X26787785Y28547137D01*
X26787781Y28547140D01*
X26623920Y28656629D01*
X26623907Y28656636D01*
X26441839Y28732050D01*
X26441829Y28732053D01*
X26248543Y28770500D01*
X26248541Y28770500D01*
X26051459Y28770500D01*
X26051457Y28770500D01*
X25858170Y28732053D01*
X25858160Y28732050D01*
X25676092Y28656636D01*
X25676079Y28656629D01*
X25512218Y28547140D01*
X25512214Y28547137D01*
X25372863Y28407786D01*
X25372860Y28407782D01*
X25263371Y28243921D01*
X25263364Y28243908D01*
X25187950Y28061840D01*
X25187948Y28061833D01*
X25180147Y28022616D01*
X25147761Y27960706D01*
X25087044Y27926133D01*
X25017275Y27929874D01*
X24960604Y27970742D01*
X24936056Y28027413D01*
X24926755Y28086135D01*
X24861095Y28288218D01*
X24764624Y28477551D01*
X24725270Y28531718D01*
X24725269Y28531718D01*
X24092962Y27899410D01*
X24075925Y27962993D01*
X24010099Y28077007D01*
X23917007Y28170099D01*
X23802993Y28235925D01*
X23739409Y28252963D01*
X24371716Y28885272D01*
X24317550Y28924625D01*
X24128217Y29021096D01*
X23926129Y29086758D01*
X23716246Y29120000D01*
X23503754Y29120000D01*
X23293872Y29086758D01*
X23293869Y29086758D01*
X23091782Y29021096D01*
X22902439Y28924620D01*
X22848282Y28885273D01*
X22848282Y28885272D01*
X23480591Y28252963D01*
X23417007Y28235925D01*
X23302993Y28170099D01*
X23209901Y28077007D01*
X23144075Y27962993D01*
X23127037Y27899409D01*
X22494728Y28531718D01*
X22494727Y28531718D01*
X22455380Y28477561D01*
X22358904Y28288218D01*
X22293242Y28086131D01*
X22293242Y28086130D01*
X22283942Y28027411D01*
X22254012Y27964277D01*
X22194700Y27927346D01*
X22124838Y27928344D01*
X22066605Y27966954D01*
X22039852Y28022619D01*
X22032052Y28061828D01*
X22032051Y28061833D01*
X22032051Y28061835D01*
X22021986Y28086135D01*
X21956635Y28243908D01*
X21956628Y28243921D01*
X21847139Y28407782D01*
X21847136Y28407786D01*
X21707785Y28547137D01*
X21707781Y28547140D01*
X21543920Y28656629D01*
X21543907Y28656636D01*
X21382596Y28723452D01*
X21361839Y28732050D01*
X21361829Y28732053D01*
X21168543Y28770500D01*
X21168541Y28770500D01*
X20971459Y28770500D01*
X20971457Y28770500D01*
X20778170Y28732053D01*
X20778160Y28732050D01*
X20596092Y28656636D01*
X20596079Y28656629D01*
X20432218Y28547140D01*
X20432214Y28547137D01*
X20292863Y28407786D01*
X20292860Y28407782D01*
X20183371Y28243921D01*
X20183364Y28243908D01*
X20107950Y28061840D01*
X20107947Y28061830D01*
X20069500Y27868544D01*
X20069500Y27868541D01*
X20069500Y27671459D01*
X20069500Y27671457D01*
X20069499Y27671457D01*
X19530500Y27671457D01*
X19530500Y27868544D01*
X19492052Y28061830D01*
X19492051Y28061833D01*
X19492051Y28061835D01*
X19481986Y28086135D01*
X19416635Y28243908D01*
X19416628Y28243921D01*
X19307139Y28407782D01*
X19307136Y28407786D01*
X19167785Y28547137D01*
X19167781Y28547140D01*
X19003920Y28656629D01*
X19003907Y28656636D01*
X18821839Y28732050D01*
X18821829Y28732053D01*
X18628543Y28770500D01*
X18628541Y28770500D01*
X18431459Y28770500D01*
X18431457Y28770500D01*
X18238170Y28732053D01*
X18238160Y28732050D01*
X18056092Y28656636D01*
X18056079Y28656629D01*
X17892218Y28547140D01*
X17892214Y28547137D01*
X17752863Y28407786D01*
X17752860Y28407782D01*
X17643371Y28243921D01*
X17643364Y28243908D01*
X17567950Y28061840D01*
X17567947Y28061830D01*
X17529500Y27868544D01*
X17529500Y27868541D01*
X17529500Y27671459D01*
X17529500Y27671457D01*
X17529499Y27671457D01*
X17567947Y27478171D01*
X17567950Y27478161D01*
X17643364Y27296093D01*
X17643371Y27296080D01*
X17752860Y27132219D01*
X17752863Y27132215D01*
X17892214Y26992864D01*
X17892218Y26992861D01*
X18056079Y26883372D01*
X18056092Y26883365D01*
X18116381Y26858393D01*
X18238165Y26807949D01*
X18258491Y26803906D01*
X18277381Y26800148D01*
X18339292Y26767763D01*
X18373866Y26707048D01*
X18370127Y26637278D01*
X18329261Y26580606D01*
X18272589Y26556058D01*
X18213870Y26546758D01*
X18213869Y26546758D01*
X18011782Y26481096D01*
X17822439Y26384620D01*
X17768282Y26345273D01*
X17768282Y26345272D01*
X18400591Y25712963D01*
X18337007Y25695925D01*
X18222993Y25630099D01*
X18129901Y25537007D01*
X18064075Y25422993D01*
X18047037Y25359409D01*
X17414728Y25991718D01*
X17414727Y25991718D01*
X17375380Y25937561D01*
X17278904Y25748218D01*
X17213242Y25546131D01*
X17213242Y25546130D01*
X17203942Y25487411D01*
X17174012Y25424277D01*
X17114700Y25387346D01*
X17044838Y25388344D01*
X16986605Y25426954D01*
X16959852Y25482619D01*
X16952052Y25521828D01*
X16952051Y25521833D01*
X16952051Y25521835D01*
X16941986Y25546135D01*
X16876635Y25703908D01*
X16876628Y25703921D01*
X16767139Y25867782D01*
X16767136Y25867786D01*
X16627785Y26007137D01*
X16627781Y26007140D01*
X16463920Y26116629D01*
X16463907Y26116636D01*
X16281839Y26192050D01*
X16281829Y26192053D01*
X16088543Y26230500D01*
X16088541Y26230500D01*
X15891459Y26230500D01*
X15891457Y26230500D01*
X15698170Y26192053D01*
X15698160Y26192050D01*
X15516092Y26116636D01*
X15516079Y26116629D01*
X15352218Y26007140D01*
X15352214Y26007137D01*
X15212863Y25867786D01*
X15212860Y25867782D01*
X15103371Y25703921D01*
X15103364Y25703908D01*
X15027950Y25521840D01*
X15027947Y25521830D01*
X14989500Y25328544D01*
X14989500Y25328541D01*
X14989500Y25131459D01*
X14989500Y25131457D01*
X14989499Y25131457D01*
X14500500Y25131457D01*
X14500500Y25333465D01*
X14460130Y25536420D01*
X14380941Y25727598D01*
X14265977Y25899655D01*
X14265975Y25899658D01*
X14119657Y26045976D01*
X14013916Y26116629D01*
X13947598Y26160941D01*
X13947593Y26160943D01*
X13872487Y26192053D01*
X13782890Y26229166D01*
X13728488Y26273006D01*
X13706423Y26339300D01*
X13723702Y26406999D01*
X13774839Y26454610D01*
X13792026Y26461657D01*
X13968217Y26518905D01*
X14157554Y26615378D01*
X14211716Y26654730D01*
X14211717Y26654730D01*
X13579408Y27287038D01*
X13642993Y27304075D01*
X13757007Y27369901D01*
X13850099Y27462993D01*
X13915925Y27577007D01*
X13932962Y27640592D01*
X14565270Y27008283D01*
X14565270Y27008284D01*
X14604622Y27062446D01*
X14701095Y27251783D01*
X14766755Y27453866D01*
X14776056Y27512588D01*
X14805985Y27575723D01*
X14865296Y27612654D01*
X14935159Y27611658D01*
X14993392Y27573048D01*
X15020147Y27517384D01*
X15027947Y27478170D01*
X15027950Y27478161D01*
X15103364Y27296093D01*
X15103371Y27296080D01*
X15212860Y27132219D01*
X15212863Y27132215D01*
X15352214Y26992864D01*
X15352218Y26992861D01*
X15516079Y26883372D01*
X15516092Y26883365D01*
X15576381Y26858393D01*
X15698165Y26807949D01*
X15698169Y26807949D01*
X15698170Y26807948D01*
X15891456Y26769500D01*
X15891459Y26769500D01*
X16088543Y26769500D01*
X16242622Y26800149D01*
X16281835Y26807949D01*
X16463914Y26883368D01*
X16627782Y26992861D01*
X16767139Y27132218D01*
X16876632Y27296086D01*
X16952051Y27478165D01*
X16972167Y27579293D01*
X16990500Y27671457D01*
X16990500Y27868544D01*
X16952052Y28061830D01*
X16952051Y28061833D01*
X16952051Y28061835D01*
X16941986Y28086135D01*
X16876635Y28243908D01*
X16876628Y28243921D01*
X16767139Y28407782D01*
X16767136Y28407786D01*
X16627785Y28547137D01*
X16627781Y28547140D01*
X16463920Y28656629D01*
X16463907Y28656636D01*
X16281839Y28732050D01*
X16281829Y28732053D01*
X16088543Y28770500D01*
X16088541Y28770500D01*
X15891459Y28770500D01*
X15891457Y28770500D01*
X15698170Y28732053D01*
X15698160Y28732050D01*
X15516092Y28656636D01*
X15516079Y28656629D01*
X15352218Y28547140D01*
X15352214Y28547137D01*
X15212863Y28407786D01*
X15212860Y28407782D01*
X15103371Y28243921D01*
X15103364Y28243908D01*
X15027950Y28061840D01*
X15027948Y28061833D01*
X15020147Y28022616D01*
X14987761Y27960706D01*
X14927044Y27926133D01*
X14857275Y27929874D01*
X14800604Y27970742D01*
X14776056Y28027413D01*
X14766755Y28086135D01*
X14701095Y28288218D01*
X14604624Y28477551D01*
X14565270Y28531718D01*
X14565269Y28531718D01*
X13932962Y27899410D01*
X13915925Y27962993D01*
X13850099Y28077007D01*
X13757007Y28170099D01*
X13642993Y28235925D01*
X13579409Y28252963D01*
X14211716Y28885272D01*
X14157550Y28924625D01*
X13968217Y29021096D01*
X13766129Y29086758D01*
X13556246Y29120000D01*
X13343754Y29120000D01*
X13133872Y29086758D01*
X13133869Y29086758D01*
X12931782Y29021096D01*
X12742439Y28924620D01*
X12688282Y28885273D01*
X12688282Y28885272D01*
X13320591Y28252963D01*
X13257007Y28235925D01*
X13142993Y28170099D01*
X13049901Y28077007D01*
X12984075Y27962993D01*
X12967037Y27899409D01*
X12334728Y28531718D01*
X12334727Y28531718D01*
X12295380Y28477561D01*
X12198904Y28288218D01*
X12133242Y28086131D01*
X12133242Y28086130D01*
X12123942Y28027411D01*
X12094012Y27964277D01*
X12034700Y27927346D01*
X11964838Y27928344D01*
X11906605Y27966954D01*
X11879852Y28022619D01*
X11872052Y28061828D01*
X11872051Y28061833D01*
X11872051Y28061835D01*
X11861986Y28086135D01*
X11796635Y28243908D01*
X11796628Y28243921D01*
X11687139Y28407782D01*
X11687136Y28407786D01*
X11547785Y28547137D01*
X11547781Y28547140D01*
X11383920Y28656629D01*
X11383907Y28656636D01*
X11222596Y28723452D01*
X11201839Y28732050D01*
X11201829Y28732053D01*
X11008543Y28770500D01*
X11008541Y28770500D01*
X10811459Y28770500D01*
X10811457Y28770500D01*
X10618170Y28732053D01*
X10618160Y28732050D01*
X10436092Y28656636D01*
X10436079Y28656629D01*
X10272218Y28547140D01*
X10272214Y28547137D01*
X10132863Y28407786D01*
X10132860Y28407782D01*
X10023371Y28243921D01*
X10023364Y28243908D01*
X9947950Y28061840D01*
X9947947Y28061830D01*
X9909500Y27868544D01*
X9909500Y27868541D01*
X9909500Y27671459D01*
X9909500Y27671457D01*
X9909499Y27671457D01*
X9370500Y27671457D01*
X9370500Y27868544D01*
X9332052Y28061830D01*
X9332051Y28061833D01*
X9332051Y28061835D01*
X9321986Y28086135D01*
X9256635Y28243908D01*
X9256628Y28243921D01*
X9147139Y28407782D01*
X9147136Y28407786D01*
X9007785Y28547137D01*
X9007781Y28547140D01*
X8843920Y28656629D01*
X8843907Y28656636D01*
X8661839Y28732050D01*
X8661829Y28732053D01*
X8468543Y28770500D01*
X8468541Y28770500D01*
X8271459Y28770500D01*
X8271457Y28770500D01*
X8078170Y28732053D01*
X8078160Y28732050D01*
X7896092Y28656636D01*
X7896079Y28656629D01*
X7732218Y28547140D01*
X7732214Y28547137D01*
X7592863Y28407786D01*
X7592860Y28407782D01*
X7483371Y28243921D01*
X7483364Y28243908D01*
X7407950Y28061840D01*
X7407947Y28061830D01*
X7369500Y27868544D01*
X7369500Y27868541D01*
X7369500Y27671459D01*
X7369500Y27671457D01*
X7369499Y27671457D01*
X4491470Y27671457D01*
X4302157Y27809001D01*
X4249510Y27835826D01*
X4087512Y27918369D01*
X3858393Y27992814D01*
X3620453Y28030500D01*
X3379547Y28030500D01*
X3260577Y28011657D01*
X3141606Y27992814D01*
X2912487Y27918369D01*
X2697842Y27809001D01*
X2502943Y27667398D01*
X2332602Y27497057D01*
X2190999Y27302158D01*
X2081631Y27087513D01*
X2052066Y26996520D01*
X2007186Y26858393D01*
X1969500Y26620453D01*
X200500Y26620453D01*
X200500Y26996520D01*
X200695Y27003473D01*
X207925Y27132219D01*
X217713Y27306506D01*
X219267Y27320300D01*
X269523Y27616085D01*
X272616Y27629637D01*
X283496Y27667400D01*
X355673Y27917932D01*
X360265Y27931052D01*
X424500Y28086130D01*
X475075Y28208232D01*
X481097Y28220738D01*
X626230Y28483335D01*
X633625Y28495103D01*
X659605Y28531718D01*
X807245Y28739799D01*
X815896Y28750646D01*
X1015816Y28974355D01*
X1025647Y28984185D01*
X1249354Y29184104D01*
X1260201Y29192755D01*
X1504902Y29366379D01*
X1516665Y29373770D01*
X1779262Y29518903D01*
X1791768Y29524925D01*
X2068948Y29639735D01*
X2082068Y29644327D01*
X2370369Y29727386D01*
X2383915Y29730477D01*
X2679700Y29780733D01*
X2693494Y29782287D01*
X2996528Y29799305D01*
X3003481Y29799500D01*
X3039882Y29799500D01*
X61960118Y29799500D01*
X61996519Y29799500D01*
X62003472Y29799305D01*
G37*
G04 #@! TD.AperFunction*
M02*
