G04 #@! TF.GenerationSoftware,KiCad,Pcbnew,9.0.6-9.0.6~ubuntu22.04.1*
G04 #@! TF.CreationDate,2025-12-28T21:54:21+02:00*
G04 #@! TF.ProjectId,rpi_i2c_board,7270695f-6932-4635-9f62-6f6172642e6b,1.0*
G04 #@! TF.SameCoordinates,PX5f5e100PY5f5e100*
G04 #@! TF.FileFunction,Soldermask,Bot*
G04 #@! TF.FilePolarity,Negative*
%FSLAX46Y46*%
G04 Gerber Fmt 4.6, Leading zero omitted, Abs format (unit mm)*
G04 Created by KiCad (PCBNEW 9.0.6-9.0.6~ubuntu22.04.1) date 2025-12-28 21:54:21*
%MOMM*%
%LPD*%
G01*
G04 APERTURE LIST*
%ADD10C,5.400000*%
%ADD11R,1.000000X1.000000*%
%ADD12R,1.700000X1.700000*%
%ADD13C,1.700000*%
%ADD14C,0.650000*%
%ADD15O,1.000000X2.100000*%
%ADD16O,1.000000X1.800000*%
%ADD17C,3.500000*%
%ADD18R,1.800000X1.800000*%
%ADD19C,1.800000*%
G04 APERTURE END LIST*
D10*
X61500000Y26500000D03*
D11*
X42572000Y16256000D03*
D12*
X53680000Y20447000D03*
D13*
X53680000Y17907000D03*
X53680000Y15367000D03*
X53680000Y12827000D03*
D14*
X9930000Y6280000D03*
X15710000Y6280000D03*
D15*
X8500000Y6780000D03*
D16*
X8500000Y2600000D03*
D15*
X17140000Y6780000D03*
D16*
X17140000Y2600000D03*
D11*
X45085000Y11176000D03*
X45085000Y13208000D03*
D10*
X3500000Y3500000D03*
X3500000Y26500000D03*
D12*
X50130000Y20447000D03*
D13*
X50130000Y17907000D03*
X50130000Y15367000D03*
X50130000Y12827000D03*
D10*
X61500000Y3500000D03*
D11*
X42572000Y18288000D03*
D17*
X44140000Y3000000D03*
X20840000Y3000000D03*
D18*
X36300000Y2500000D03*
D19*
X33760000Y2500000D03*
X31220000Y2500000D03*
X28680000Y2500000D03*
D12*
X8370000Y25230000D03*
D13*
X8370000Y27770000D03*
X10910000Y25230000D03*
X10910000Y27770000D03*
X13450000Y25230000D03*
X13450000Y27770000D03*
X15990000Y25230000D03*
X15990000Y27770000D03*
X18530000Y25230000D03*
X18530000Y27770000D03*
X21070000Y25230000D03*
X21070000Y27770000D03*
X23610000Y25230000D03*
X23610000Y27770000D03*
X26150000Y25230000D03*
X26150000Y27770000D03*
X28690000Y25230000D03*
X28690000Y27770000D03*
X31230000Y25230000D03*
X31230000Y27770000D03*
X33770000Y25230000D03*
X33770000Y27770000D03*
X36310000Y25230000D03*
X36310000Y27770000D03*
X38850000Y25230000D03*
X38850000Y27770000D03*
X41390000Y25230000D03*
X41390000Y27770000D03*
X43930000Y25230000D03*
X43930000Y27770000D03*
X46470000Y25230000D03*
X46470000Y27770000D03*
X49010000Y25230000D03*
X49010000Y27770000D03*
X51550000Y25230000D03*
X51550000Y27770000D03*
X54090000Y25230000D03*
X54090000Y27770000D03*
X56630000Y25230000D03*
X56630000Y27770000D03*
M02*
