M48
; DRILL file {KiCad 9.0.6-9.0.6~ubuntu22.04.1} date 2025-12-28T21:54:18+0200
; FORMAT={-:-/ absolute / inch / decimal}
; #@! TF.CreationDate,2025-12-28T21:54:18+02:00
; #@! TF.GenerationSoftware,Kicad,Pcbnew,9.0.6-9.0.6~ubuntu22.04.1
; #@! TF.FileFunction,Plated,1,2,PTH
FMAT,2
INCH
; #@! TA.AperFunction,Plated,PTH,ViaDrill
T1C0.0157
; #@! TA.AperFunction,Plated,PTH,ViaDrill
T2C0.0197
; #@! TA.AperFunction,Plated,PTH,ComponentDrill
T3C0.0197
; #@! TA.AperFunction,Plated,PTH,ComponentDrill
T4C0.0236
; #@! TA.AperFunction,Plated,PTH,ComponentDrill
T5C0.0394
%
G90
G05
T1
X0.265Y0.845
X0.29Y0.565
X0.3Y0.6803
X0.344Y0.47
X0.367Y0.895
X0.37Y0.705
X0.3787Y0.335
X0.435Y0.45
X0.45Y0.4911
X0.481Y0.415
X0.5144Y0.58
X0.5546Y0.6671
X0.5795Y0.8598
X0.6307Y0.335
X0.645Y0.3802
X0.6795Y0.8598
X0.7755Y0.63
X1.1291Y0.3201
X1.1928Y0.603
X1.232Y0.488
X1.26Y0.365
X1.295Y0.502
X1.3Y0.546
X1.4711Y0.8032
X1.5288Y0.83
X1.6056Y0.7087
X1.7362Y0.83
X1.895Y0.38
X1.895Y0.275
X2.045Y0.435
X2.245Y0.35
T2
X0.23Y0.524
X0.385Y0.415
X0.5736Y0.435
X0.755Y0.4242
X0.85Y0.667
X0.9846Y0.435
X1.014Y0.668
X1.014Y0.59
X1.039Y0.499
X1.059Y0.251
X1.3291Y0.225
X1.349Y0.668
X1.95Y0.1
X1.95Y0.05
X2.0Y0.1
X2.0Y0.05
X2.05Y0.325
X2.05Y0.275
X2.05Y0.225
X2.05Y0.175
X2.05Y0.1
X2.05Y0.05
X2.1Y0.325
X2.1Y0.275
X2.1Y0.225
X2.1Y0.175
X2.1Y0.1
X2.1Y0.05
X2.15Y0.1
X2.15Y0.05
X2.2Y0.1
X2.2Y0.05
T3
X1.6761Y0.72
X1.6761Y0.64
X1.775Y0.52
X1.775Y0.44
T5
X0.3295Y1.0933
X0.3295Y0.9933
X0.4295Y1.0933
X0.4295Y0.9933
X0.5295Y1.0933
X0.5295Y0.9933
X0.6295Y1.0933
X0.6295Y0.9933
X0.7295Y1.0933
X0.7295Y0.9933
X0.8295Y1.0933
X0.8295Y0.9933
X0.9295Y1.0933
X0.9295Y0.9933
X1.0295Y1.0933
X1.0295Y0.9933
X1.1291Y0.0984
X1.1295Y1.0933
X1.1295Y0.9933
X1.2291Y0.0984
X1.2295Y1.0933
X1.2295Y0.9933
X1.3291Y0.0984
X1.3295Y1.0933
X1.3295Y0.9933
X1.4291Y0.0984
X1.4295Y1.0933
X1.4295Y0.9933
X1.5295Y1.0933
X1.5295Y0.9933
X1.6295Y1.0933
X1.6295Y0.9933
X1.7295Y1.0933
X1.7295Y0.9933
X1.8295Y1.0933
X1.8295Y0.9933
X1.9295Y1.0933
X1.9295Y0.9933
X1.9736Y0.805
X1.9736Y0.705
X1.9736Y0.605
X1.9736Y0.505
X2.0295Y1.0933
X2.0295Y0.9933
X2.1134Y0.805
X2.1134Y0.705
X2.1134Y0.605
X2.1134Y0.505
X2.1295Y1.0933
X2.1295Y0.9933
X2.2295Y1.0933
X2.2295Y0.9933
T4
G00X0.3346Y0.2886
M15
G01X0.3346Y0.2453
M16
G05
G00X0.3346Y0.1181
M15
G01X0.3346Y0.0866
M16
G05
G00X0.6748Y0.2886
M15
G01X0.6748Y0.2453
M16
G05
G00X0.6748Y0.1181
M15
G01X0.6748Y0.0866
M16
G05
M30
